<svg width="392" height="231" viewBox="0 0 392 231" fill="none" xmlns="http://www.w3.org/2000/svg">
<rect x="-2.5" y="2.5" width="387" height="209" rx="17.5" transform="matrix(-1 0 0 1 387 17)" fill="#EEEDE2" stroke="#FFAA09" stroke-width="5"/>
<path d="M129.21 90H125.801L129.642 78.3636H133.96L137.801 90H134.392L131.847 81.5682H131.756L129.21 90ZM128.574 85.4091H134.983V87.7727H128.574V85.4091ZM145.808 78.3636H148.967V85.8182C148.967 86.7045 148.755 87.4716 148.331 88.1193C147.911 88.7633 147.323 89.2614 146.57 89.6136C145.816 89.9621 144.941 90.1364 143.945 90.1364C142.941 90.1364 142.062 89.9621 141.308 89.6136C140.554 89.2614 139.967 88.7633 139.547 88.1193C139.13 87.4716 138.922 86.7045 138.922 85.8182V78.3636H142.081V85.5455C142.081 85.9053 142.161 86.2273 142.32 86.5114C142.479 86.7917 142.698 87.0114 142.979 87.1705C143.263 87.3295 143.585 87.4091 143.945 87.4091C144.308 87.4091 144.63 87.3295 144.911 87.1705C145.191 87.0114 145.411 86.7917 145.57 86.5114C145.729 86.2273 145.808 85.9053 145.808 85.5455V78.3636ZM158.026 82.2045C157.976 82.0038 157.899 81.8277 157.793 81.6761C157.687 81.5208 157.554 81.3902 157.395 81.2841C157.24 81.1742 157.058 81.0928 156.849 81.0398C156.645 80.983 156.42 80.9545 156.173 80.9545C155.643 80.9545 155.19 81.0814 154.815 81.3352C154.444 81.589 154.16 81.9545 153.963 82.4318C153.77 82.9091 153.673 83.4848 153.673 84.1591C153.673 84.8409 153.766 85.4242 153.952 85.9091C154.137 86.3939 154.414 86.7652 154.781 87.0227C155.149 87.2803 155.605 87.4091 156.151 87.4091C156.632 87.4091 157.031 87.339 157.349 87.1989C157.671 87.0587 157.912 86.8598 158.071 86.6023C158.23 86.3447 158.31 86.0417 158.31 85.6932L158.855 85.75H156.196V83.5H161.355V85.1136C161.355 86.1742 161.13 87.0814 160.679 87.8352C160.232 88.5852 159.615 89.161 158.827 89.5625C158.043 89.9602 157.143 90.1591 156.128 90.1591C154.995 90.1591 154.001 89.9186 153.145 89.4375C152.289 88.9564 151.62 88.2708 151.139 87.3807C150.662 86.4905 150.423 85.4318 150.423 84.2045C150.423 83.2424 150.569 82.3902 150.861 81.6477C151.156 80.9053 151.565 80.2784 152.088 79.767C152.611 79.2519 153.215 78.8636 153.901 78.6023C154.586 78.3371 155.321 78.2045 156.105 78.2045C156.795 78.2045 157.435 78.303 158.026 78.5C158.62 78.6932 159.145 78.9697 159.599 79.3295C160.058 79.6856 160.427 80.108 160.707 80.5966C160.988 81.0852 161.158 81.6212 161.219 82.2045H158.026ZM171.743 78.3636V90H168.584V81.2727H168.516L165.97 82.7955V80.1136L168.834 78.3636H171.743ZM174.018 88.1818V85.7273L178.7 78.3636H180.928V81.6364H179.655L177.132 85.6364V85.7273H184.041V88.1818H174.018ZM179.678 90V87.4318L179.746 86.3636V78.3636H182.7V90H179.678ZM185.026 80.9091V78.3636H195.139V80.9091H191.639V90H188.526V80.9091H185.026ZM196.328 90V78.3636H199.487V82.9091H203.669V78.3636H206.828V90H203.669V85.4545H199.487V90H196.328ZM217.288 83V85.3636H211.834V83H217.288ZM222.32 90V87.7273L226.661 84.1364C226.948 83.8977 227.195 83.6742 227.399 83.4659C227.607 83.2538 227.767 83.036 227.876 82.8125C227.99 82.589 228.047 82.3409 228.047 82.0682C228.047 81.7689 227.982 81.5133 227.854 81.3011C227.729 81.089 227.554 80.9261 227.331 80.8125C227.107 80.6951 226.85 80.6364 226.558 80.6364C226.267 80.6364 226.009 80.6951 225.786 80.8125C225.566 80.9299 225.395 81.1023 225.274 81.3295C225.153 81.5568 225.092 81.8333 225.092 82.1591H222.092C222.092 81.3409 222.276 80.6364 222.643 80.0455C223.011 79.4545 223.53 79 224.2 78.6818C224.871 78.3636 225.657 78.2045 226.558 78.2045C227.49 78.2045 228.297 78.3542 228.979 78.6534C229.664 78.9489 230.193 79.3655 230.564 79.9034C230.939 80.4413 231.126 81.072 231.126 81.7955C231.126 82.2424 231.034 82.6875 230.848 83.1307C230.662 83.5701 230.329 84.0568 229.848 84.5909C229.367 85.125 228.683 85.7614 227.797 86.5L226.706 87.4091V87.4773H231.251V90H222.32ZM237.732 90.3182C236.675 90.3144 235.762 90.0701 234.993 89.5852C234.224 89.1004 233.631 88.4015 233.214 87.4886C232.798 86.5758 232.591 85.4811 232.595 84.2045C232.599 82.9242 232.807 81.8371 233.22 80.9432C233.637 80.0492 234.228 79.3693 234.993 78.9034C235.762 78.4375 236.675 78.2045 237.732 78.2045C238.788 78.2045 239.701 78.4394 240.47 78.9091C241.239 79.375 241.832 80.0549 242.249 80.9489C242.665 81.8428 242.872 82.928 242.868 84.2045C242.868 85.4886 242.66 86.5871 242.243 87.5C241.826 88.4129 241.233 89.1117 240.464 89.5966C239.699 90.0777 238.788 90.3182 237.732 90.3182ZM237.732 87.75C238.277 87.75 238.724 87.4659 239.072 86.8977C239.425 86.3258 239.599 85.428 239.595 84.2045C239.595 83.4053 239.516 82.7519 239.357 82.2443C239.197 81.7367 238.978 81.3617 238.697 81.1193C238.417 80.8731 238.095 80.75 237.732 80.75C237.186 80.75 236.741 81.0265 236.396 81.5795C236.052 82.1326 235.875 83.0076 235.868 84.2045C235.864 85.0189 235.942 85.6894 236.101 86.2159C236.26 86.7386 236.48 87.125 236.76 87.375C237.044 87.625 237.368 87.75 237.732 87.75ZM244.01 80.9091V78.3636H254.124V80.9091H250.624V90H247.51V80.9091H244.01ZM255.312 90V78.3636H258.472V82.9091H262.653V78.3636H265.812V90H262.653V85.4545H258.472V90H255.312Z" fill="#9A2B2B"/>
<path d="M75.9672 106C75.9406 105.669 75.8163 105.41 75.5943 105.224C75.3755 105.039 75.0424 104.946 74.595 104.946C74.31 104.946 74.0763 104.981 73.894 105.05C73.715 105.117 73.5824 105.208 73.4963 105.324C73.4101 105.44 73.3654 105.572 73.362 105.722C73.3554 105.844 73.377 105.955 73.4267 106.055C73.4797 106.151 73.5626 106.239 73.6752 106.318C73.7879 106.394 73.9321 106.464 74.1078 106.527C74.2834 106.59 74.4922 106.646 74.7342 106.696L75.5694 106.875C76.1329 106.994 76.6151 107.152 77.0162 107.347C77.4172 107.543 77.7453 107.773 78.0005 108.038C78.2557 108.3 78.443 108.595 78.5623 108.923C78.685 109.251 78.7479 109.609 78.7512 109.997C78.7479 110.667 78.5806 111.233 78.2491 111.697C77.9177 112.161 77.4437 112.514 76.8272 112.756C76.2141 112.998 75.4766 113.119 74.6149 113.119C73.7299 113.119 72.9577 112.988 72.2981 112.727C71.6419 112.465 71.1315 112.062 70.7669 111.518C70.4056 110.972 70.2233 110.272 70.22 109.42H72.845C72.8616 109.732 72.9395 109.994 73.0787 110.206C73.2179 110.418 73.4134 110.579 73.6653 110.688C73.9205 110.798 74.2238 110.852 74.5751 110.852C74.8701 110.852 75.117 110.816 75.3159 110.743C75.5147 110.67 75.6655 110.569 75.7683 110.44C75.871 110.31 75.9241 110.163 75.9274 109.997C75.9241 109.841 75.8727 109.705 75.7733 109.589C75.6771 109.47 75.5181 109.364 75.296 109.271C75.0739 109.175 74.774 109.086 74.3961 109.003L73.3819 108.784C72.4804 108.589 71.7695 108.262 71.2491 107.805C70.7321 107.344 70.4752 106.716 70.4785 105.92C70.4752 105.274 70.6475 104.709 70.9956 104.225C71.3469 103.738 71.8324 103.358 72.4522 103.087C73.0753 102.815 73.7896 102.679 74.595 102.679C75.417 102.679 76.1279 102.817 76.7278 103.092C77.3277 103.367 77.7901 103.754 78.1149 104.255C78.443 104.752 78.6087 105.334 78.612 106H75.9672ZM84.7942 109.659V105.364H87.5385V113H84.9334V111.548H84.8539C84.6882 112.036 84.3981 112.417 83.9838 112.692C83.5695 112.964 83.0774 113.099 82.5073 113.099C81.9737 113.099 81.5063 112.977 81.1053 112.732C80.7076 112.486 80.3977 112.148 80.1756 111.717C79.9569 111.286 79.8458 110.793 79.8425 110.236V105.364H82.5868V109.659C82.5901 110.037 82.6863 110.334 82.8752 110.549C83.0674 110.764 83.3359 110.872 83.6806 110.872C83.9093 110.872 84.1065 110.824 84.2722 110.728C84.4412 110.629 84.5705 110.489 84.66 110.31C84.7528 110.128 84.7975 109.911 84.7942 109.659ZM88.9343 115.864V105.364H91.6587V106.696H91.7184C91.8178 106.437 91.9637 106.201 92.1559 105.985C92.3481 105.766 92.5868 105.592 92.8718 105.463C93.1568 105.33 93.4883 105.264 93.8661 105.264C94.3699 105.264 94.8488 105.398 95.3029 105.667C95.7603 105.935 96.1315 106.358 96.4165 106.935C96.7049 107.511 96.8491 108.26 96.8491 109.182C96.8491 110.063 96.7115 110.794 96.4364 111.374C96.1647 111.954 95.8001 112.387 95.3427 112.672C94.8886 112.957 94.3898 113.099 93.8462 113.099C93.4883 113.099 93.1684 113.041 92.8867 112.925C92.6083 112.806 92.3697 112.645 92.1708 112.443C91.9753 112.238 91.8245 112.006 91.7184 111.747H91.6786V115.864H88.9343ZM91.619 109.182C91.619 109.553 91.667 109.875 91.7631 110.146C91.8626 110.415 92.0018 110.624 92.1808 110.773C92.363 110.919 92.5801 110.991 92.832 110.991C93.0839 110.991 93.2977 110.92 93.4734 110.778C93.6523 110.632 93.7882 110.425 93.881 110.156C93.9772 109.884 94.0252 109.56 94.0252 109.182C94.0252 108.804 93.9772 108.481 93.881 108.212C93.7882 107.941 93.6523 107.733 93.4734 107.591C93.2977 107.445 93.0839 107.372 92.832 107.372C92.5801 107.372 92.363 107.445 92.1808 107.591C92.0018 107.733 91.8626 107.941 91.7631 108.212C91.667 108.481 91.619 108.804 91.619 109.182ZM101.658 113.139C100.843 113.139 100.14 112.983 99.5499 112.672C98.9632 112.357 98.5108 111.906 98.1926 111.32C97.8778 110.73 97.7203 110.024 97.7203 109.202C97.7203 108.413 97.8794 107.723 98.1976 107.134C98.5158 106.544 98.9649 106.085 99.5449 105.756C100.125 105.428 100.809 105.264 101.598 105.264C102.175 105.264 102.697 105.354 103.164 105.533C103.632 105.712 104.031 105.972 104.362 106.313C104.694 106.651 104.949 107.062 105.128 107.546C105.307 108.03 105.396 108.575 105.396 109.182V109.818H98.5755V108.307H102.871C102.868 108.088 102.811 107.896 102.702 107.73C102.596 107.561 102.452 107.43 102.269 107.337C102.09 107.241 101.887 107.193 101.658 107.193C101.436 107.193 101.232 107.241 101.046 107.337C100.861 107.43 100.712 107.559 100.599 107.725C100.49 107.891 100.432 108.085 100.425 108.307V109.938C100.425 110.183 100.476 110.402 100.579 110.594C100.682 110.786 100.829 110.937 101.021 111.046C101.214 111.156 101.446 111.21 101.718 111.21C101.906 111.21 102.079 111.184 102.235 111.131C102.394 111.078 102.53 111.001 102.642 110.902C102.755 110.799 102.838 110.677 102.891 110.534H105.396C105.31 111.064 105.106 111.525 104.785 111.916C104.463 112.304 104.038 112.606 103.507 112.821C102.98 113.033 102.364 113.139 101.658 113.139ZM106.516 113V105.364H109.181V106.815H109.261C109.4 106.278 109.62 105.886 109.922 105.637C110.227 105.388 110.583 105.264 110.991 105.264C111.11 105.264 111.228 105.274 111.344 105.294C111.463 105.311 111.577 105.335 111.687 105.369V107.71C111.551 107.664 111.384 107.629 111.185 107.606C110.986 107.583 110.815 107.571 110.673 107.571C110.404 107.571 110.162 107.632 109.947 107.755C109.735 107.874 109.567 108.043 109.445 108.262C109.322 108.478 109.261 108.731 109.261 109.023V113H106.516ZM117.455 105.364V107.352H112.424V105.364H117.455ZM113.398 103.534H116.143V110.544C116.143 110.65 116.161 110.74 116.197 110.812C116.234 110.882 116.29 110.935 116.366 110.972C116.443 111.005 116.54 111.021 116.66 111.021C116.742 111.021 116.839 111.011 116.948 110.991C117.061 110.972 117.144 110.955 117.197 110.942L117.594 112.871C117.472 112.907 117.296 112.952 117.067 113.005C116.842 113.058 116.573 113.093 116.262 113.109C115.632 113.143 115.104 113.078 114.676 112.915C114.248 112.75 113.927 112.49 113.711 112.135C113.496 111.78 113.392 111.336 113.398 110.803V103.534ZM122.152 113.139C121.337 113.139 120.634 112.983 120.044 112.672C119.457 112.357 119.005 111.906 118.687 111.32C118.372 110.73 118.214 110.024 118.214 109.202C118.214 108.413 118.374 107.723 118.692 107.134C119.01 106.544 119.459 106.085 120.039 105.756C120.619 105.428 121.304 105.264 122.092 105.264C122.669 105.264 123.191 105.354 123.658 105.533C124.126 105.712 124.525 105.972 124.857 106.313C125.188 106.651 125.443 107.062 125.622 107.546C125.801 108.03 125.891 108.575 125.891 109.182V109.818H119.07V108.307H123.365C123.362 108.088 123.305 107.896 123.196 107.73C123.09 107.561 122.946 107.43 122.763 107.337C122.585 107.241 122.381 107.193 122.152 107.193C121.93 107.193 121.726 107.241 121.54 107.337C121.355 107.43 121.206 107.559 121.093 107.725C120.984 107.891 120.926 108.085 120.919 108.307V109.938C120.919 110.183 120.97 110.402 121.073 110.594C121.176 110.786 121.323 110.937 121.516 111.046C121.708 111.156 121.94 111.21 122.212 111.21C122.401 111.21 122.573 111.184 122.729 111.131C122.888 111.078 123.024 111.001 123.136 110.902C123.249 110.799 123.332 110.677 123.385 110.534H125.891C125.804 111.064 125.601 111.525 125.279 111.916C124.958 112.304 124.532 112.606 124.001 112.821C123.474 113.033 122.858 113.139 122.152 113.139ZM129.138 113.119C128.651 113.119 128.22 113.04 127.846 112.881C127.474 112.718 127.183 112.473 126.971 112.145C126.759 111.817 126.653 111.399 126.653 110.892C126.653 110.474 126.724 110.118 126.866 109.823C127.009 109.525 127.208 109.281 127.463 109.092C127.718 108.903 128.015 108.759 128.353 108.66C128.694 108.56 129.062 108.496 129.456 108.466C129.884 108.433 130.227 108.393 130.486 108.347C130.747 108.297 130.936 108.229 131.052 108.143C131.168 108.053 131.226 107.936 131.226 107.79V107.77C131.226 107.571 131.15 107.419 130.998 107.312C130.845 107.206 130.65 107.153 130.411 107.153C130.149 107.153 129.935 107.211 129.77 107.327C129.607 107.44 129.51 107.614 129.476 107.849H126.951C126.984 107.385 127.131 106.958 127.393 106.567C127.658 106.172 128.045 105.857 128.552 105.622C129.059 105.384 129.692 105.264 130.451 105.264C130.998 105.264 131.488 105.329 131.922 105.458C132.357 105.584 132.726 105.761 133.031 105.99C133.336 106.215 133.568 106.481 133.727 106.786C133.89 107.087 133.971 107.415 133.971 107.77V113H131.405V111.926H131.346C131.193 112.211 131.008 112.442 130.789 112.617C130.573 112.793 130.327 112.92 130.048 113C129.773 113.08 129.47 113.119 129.138 113.119ZM130.033 111.389C130.242 111.389 130.438 111.346 130.62 111.26C130.805 111.174 130.956 111.049 131.072 110.887C131.188 110.725 131.246 110.527 131.246 110.295V109.659C131.173 109.689 131.095 109.717 131.013 109.744C130.933 109.77 130.847 109.795 130.754 109.818C130.665 109.841 130.568 109.863 130.466 109.883C130.366 109.903 130.262 109.921 130.153 109.938C129.94 109.971 129.766 110.025 129.631 110.102C129.498 110.174 129.398 110.266 129.332 110.375C129.269 110.481 129.238 110.6 129.238 110.733C129.238 110.945 129.312 111.107 129.461 111.22C129.611 111.333 129.801 111.389 130.033 111.389ZM135.282 113V105.364H137.887V106.815H137.967C138.126 106.338 138.397 105.96 138.782 105.682C139.166 105.403 139.624 105.264 140.154 105.264C140.691 105.264 141.153 105.407 141.541 105.692C141.929 105.973 142.163 106.348 142.242 106.815H142.322C142.451 106.348 142.726 105.973 143.147 105.692C143.568 105.407 144.062 105.264 144.629 105.264C145.361 105.264 145.954 105.5 146.408 105.97C146.866 106.441 147.094 107.067 147.094 107.849V113H144.35V108.545C144.35 108.211 144.266 107.949 144.097 107.76C143.928 107.568 143.701 107.472 143.415 107.472C143.134 107.472 142.91 107.568 142.744 107.76C142.582 107.949 142.501 108.211 142.501 108.545V113H139.876V108.545C139.876 108.211 139.791 107.949 139.622 107.76C139.453 107.568 139.226 107.472 138.941 107.472C138.752 107.472 138.59 107.515 138.454 107.601C138.318 107.687 138.212 107.811 138.136 107.974C138.063 108.133 138.026 108.323 138.026 108.545V113H135.282ZM153.961 102.818V113H151.197V102.818H153.961ZM158.056 108.705V113H155.311V105.364H157.916V106.815H157.996C158.162 106.331 158.453 105.952 158.871 105.677C159.292 105.402 159.782 105.264 160.343 105.264C160.883 105.264 161.352 105.388 161.749 105.637C162.151 105.882 162.46 106.22 162.679 106.651C162.901 107.082 163.011 107.574 163.007 108.128V113H160.263V108.705C160.266 108.327 160.17 108.03 159.975 107.815C159.782 107.599 159.514 107.491 159.169 107.491C158.944 107.491 158.747 107.541 158.578 107.641C158.412 107.737 158.284 107.876 158.195 108.058C158.105 108.237 158.059 108.453 158.056 108.705ZM167.126 113.099C166.583 113.099 166.082 112.957 165.625 112.672C165.171 112.387 164.806 111.954 164.531 111.374C164.259 110.794 164.123 110.063 164.123 109.182C164.123 108.26 164.266 107.511 164.551 106.935C164.839 106.358 165.211 105.935 165.665 105.667C166.122 105.398 166.603 105.264 167.106 105.264C167.484 105.264 167.816 105.33 168.101 105.463C168.386 105.592 168.624 105.766 168.817 105.985C169.009 106.201 169.155 106.437 169.254 106.696H169.294V102.818H172.038V113H169.314V111.747H169.254C169.148 112.006 168.996 112.238 168.797 112.443C168.601 112.645 168.363 112.806 168.081 112.925C167.802 113.041 167.484 113.099 167.126 113.099ZM168.14 110.991C168.392 110.991 168.608 110.919 168.787 110.773C168.969 110.624 169.108 110.415 169.204 110.146C169.304 109.875 169.354 109.553 169.354 109.182C169.354 108.804 169.304 108.481 169.204 108.212C169.108 107.941 168.969 107.733 168.787 107.591C168.608 107.445 168.392 107.372 168.14 107.372C167.889 107.372 167.673 107.445 167.494 107.591C167.318 107.733 167.183 107.941 167.086 108.212C166.994 108.481 166.947 108.804 166.947 109.182C166.947 109.56 166.994 109.884 167.086 110.156C167.183 110.425 167.318 110.632 167.494 110.778C167.673 110.92 167.889 110.991 168.14 110.991ZM177.064 113.139C176.236 113.139 175.527 112.975 174.937 112.647C174.347 112.316 173.894 111.855 173.579 111.265C173.265 110.672 173.107 109.984 173.107 109.202C173.107 108.42 173.265 107.733 173.579 107.143C173.894 106.55 174.347 106.089 174.937 105.761C175.527 105.43 176.236 105.264 177.064 105.264C177.893 105.264 178.602 105.43 179.192 105.761C179.782 106.089 180.235 106.55 180.55 107.143C180.864 107.733 181.022 108.42 181.022 109.202C181.022 109.984 180.864 110.672 180.55 111.265C180.235 111.855 179.782 112.316 179.192 112.647C178.602 112.975 177.893 113.139 177.064 113.139ZM177.084 111.111C177.316 111.111 177.517 111.033 177.686 110.877C177.855 110.721 177.986 110.499 178.079 110.211C178.171 109.923 178.218 109.58 178.218 109.182C178.218 108.781 178.171 108.438 178.079 108.153C177.986 107.864 177.855 107.642 177.686 107.487C177.517 107.331 177.316 107.253 177.084 107.253C176.839 107.253 176.629 107.331 176.453 107.487C176.277 107.642 176.143 107.864 176.05 108.153C175.957 108.438 175.911 108.781 175.911 109.182C175.911 109.58 175.957 109.923 176.05 110.211C176.143 110.499 176.277 110.721 176.453 110.877C176.629 111.033 176.839 111.111 177.084 111.111ZM184.88 108.705V113H182.135V105.364H184.741V106.815H184.82C184.986 106.331 185.278 105.952 185.695 105.677C186.116 105.402 186.607 105.264 187.167 105.264C187.707 105.264 188.176 105.388 188.574 105.637C188.975 105.882 189.285 106.22 189.503 106.651C189.725 107.082 189.835 107.574 189.831 108.128V113H187.087V108.705C187.09 108.327 186.994 108.03 186.799 107.815C186.607 107.599 186.338 107.491 185.993 107.491C185.768 107.491 185.571 107.541 185.402 107.641C185.236 107.737 185.108 107.876 185.019 108.058C184.93 108.237 184.883 108.453 184.88 108.705ZM194.845 113.139C194.03 113.139 193.327 112.983 192.737 112.672C192.151 112.357 191.698 111.906 191.38 111.32C191.065 110.73 190.908 110.024 190.908 109.202C190.908 108.413 191.067 107.723 191.385 107.134C191.703 106.544 192.152 106.085 192.732 105.756C193.312 105.428 193.997 105.264 194.786 105.264C195.362 105.264 195.884 105.354 196.352 105.533C196.819 105.712 197.218 105.972 197.55 106.313C197.881 106.651 198.137 107.062 198.316 107.546C198.494 108.03 198.584 108.575 198.584 109.182V109.818H191.763V108.307H196.058C196.055 108.088 195.999 107.896 195.889 107.73C195.783 107.561 195.639 107.43 195.457 107.337C195.278 107.241 195.074 107.193 194.845 107.193C194.623 107.193 194.419 107.241 194.234 107.337C194.048 107.43 193.899 107.559 193.786 107.725C193.677 107.891 193.619 108.085 193.612 108.307V109.938C193.612 110.183 193.664 110.402 193.767 110.594C193.869 110.786 194.017 110.937 194.209 111.046C194.401 111.156 194.633 111.21 194.905 111.21C195.094 111.21 195.266 111.184 195.422 111.131C195.581 111.078 195.717 111.001 195.83 110.902C195.942 110.799 196.025 110.677 196.078 110.534H198.584C198.498 111.064 198.294 111.525 197.972 111.916C197.651 112.304 197.225 112.606 196.695 112.821C196.168 113.033 195.551 113.139 194.845 113.139ZM206.684 107.849H204.158C204.145 107.694 204.09 107.559 203.994 107.447C203.898 107.334 203.774 107.248 203.621 107.188C203.472 107.125 203.307 107.094 203.124 107.094C202.889 107.094 202.687 107.137 202.518 107.223C202.349 107.309 202.266 107.432 202.269 107.591C202.266 107.704 202.314 107.808 202.413 107.904C202.516 108 202.713 108.075 203.005 108.128L204.556 108.406C205.338 108.549 205.92 108.789 206.301 109.127C206.686 109.462 206.879 109.911 206.883 110.474C206.879 111.018 206.717 111.49 206.396 111.891C206.077 112.289 205.642 112.597 205.088 112.816C204.538 113.031 203.91 113.139 203.204 113.139C202.037 113.139 201.124 112.901 200.464 112.423C199.808 111.946 199.442 111.316 199.366 110.534H202.09C202.127 110.776 202.246 110.963 202.448 111.096C202.654 111.225 202.912 111.29 203.224 111.29C203.476 111.29 203.683 111.247 203.845 111.161C204.011 111.074 204.095 110.952 204.099 110.793C204.095 110.647 204.022 110.531 203.88 110.445C203.741 110.358 203.522 110.289 203.224 110.236L201.871 109.997C201.093 109.861 200.509 109.603 200.121 109.222C199.734 108.84 199.541 108.35 199.545 107.75C199.541 107.22 199.681 106.771 199.962 106.403C200.247 106.031 200.653 105.75 201.18 105.558C201.711 105.362 202.339 105.264 203.065 105.264C204.168 105.264 205.038 105.493 205.675 105.95C206.314 106.408 206.651 107.041 206.684 107.849ZM207.934 113V105.364H210.679V113H207.934ZM209.306 104.568C208.935 104.568 208.617 104.446 208.352 104.2C208.087 103.955 207.954 103.66 207.954 103.315C207.954 102.971 208.087 102.676 208.352 102.43C208.617 102.185 208.935 102.062 209.306 102.062C209.681 102.062 209.999 102.185 210.261 102.43C210.526 102.676 210.659 102.971 210.659 103.315C210.659 103.66 210.526 103.955 210.261 104.2C209.999 104.446 209.681 104.568 209.306 104.568ZM214.205 113.119C213.718 113.119 213.287 113.04 212.912 112.881C212.541 112.718 212.249 112.473 212.037 112.145C211.825 111.817 211.719 111.399 211.719 110.892C211.719 110.474 211.79 110.118 211.933 109.823C212.075 109.525 212.274 109.281 212.529 109.092C212.785 108.903 213.081 108.759 213.419 108.66C213.761 108.56 214.128 108.496 214.523 108.466C214.95 108.433 215.294 108.393 215.552 108.347C215.814 108.297 216.003 108.229 216.119 108.143C216.235 108.053 216.293 107.936 216.293 107.79V107.77C216.293 107.571 216.217 107.419 216.064 107.312C215.912 107.206 215.716 107.153 215.477 107.153C215.216 107.153 215.002 107.211 214.836 107.327C214.674 107.44 214.576 107.614 214.543 107.849H212.017C212.05 107.385 212.198 106.958 212.46 106.567C212.725 106.172 213.111 105.857 213.618 105.622C214.125 105.384 214.758 105.264 215.517 105.264C216.064 105.264 216.555 105.329 216.989 105.458C217.423 105.584 217.793 105.761 218.097 105.99C218.402 106.215 218.634 106.481 218.794 106.786C218.956 107.087 219.037 107.415 219.037 107.77V113H216.472V111.926H216.412C216.26 112.211 216.074 112.442 215.855 112.617C215.64 112.793 215.393 112.92 215.115 113C214.839 113.08 214.536 113.119 214.205 113.119ZM215.1 111.389C215.308 111.389 215.504 111.346 215.686 111.26C215.872 111.174 216.023 111.049 216.139 110.887C216.255 110.725 216.313 110.527 216.313 110.295V109.659C216.24 109.689 216.162 109.717 216.079 109.744C215.999 109.77 215.913 109.795 215.82 109.818C215.731 109.841 215.635 109.863 215.532 109.883C215.433 109.903 215.328 109.921 215.219 109.938C215.007 109.971 214.833 110.025 214.697 110.102C214.564 110.174 214.465 110.266 214.399 110.375C214.336 110.481 214.304 110.6 214.304 110.733C214.304 110.945 214.379 111.107 214.528 111.22C214.677 111.333 214.868 111.389 215.1 111.389ZM228.586 106C228.56 105.669 228.435 105.41 228.213 105.224C227.995 105.039 227.662 104.946 227.214 104.946C226.929 104.946 226.695 104.981 226.513 105.05C226.334 105.117 226.202 105.208 226.115 105.324C226.029 105.44 225.984 105.572 225.981 105.722C225.975 105.844 225.996 105.955 226.046 106.055C226.099 106.151 226.182 106.239 226.294 106.318C226.407 106.394 226.551 106.464 226.727 106.527C226.903 106.59 227.111 106.646 227.353 106.696L228.189 106.875C228.752 106.994 229.234 107.152 229.635 107.347C230.036 107.543 230.364 107.773 230.62 108.038C230.875 108.3 231.062 108.595 231.181 108.923C231.304 109.251 231.367 109.609 231.37 109.997C231.367 110.667 231.2 111.233 230.868 111.697C230.537 112.161 230.063 112.514 229.446 112.756C228.833 112.998 228.096 113.119 227.234 113.119C226.349 113.119 225.577 112.988 224.917 112.727C224.261 112.465 223.751 112.062 223.386 111.518C223.025 110.972 222.842 110.272 222.839 109.42H225.464C225.481 109.732 225.559 109.994 225.698 110.206C225.837 110.418 226.033 110.579 226.284 110.688C226.54 110.798 226.843 110.852 227.194 110.852C227.489 110.852 227.736 110.816 227.935 110.743C228.134 110.67 228.285 110.569 228.387 110.44C228.49 110.31 228.543 110.163 228.547 109.997C228.543 109.841 228.492 109.705 228.392 109.589C228.296 109.47 228.137 109.364 227.915 109.271C227.693 109.175 227.393 109.086 227.015 109.003L226.001 108.784C225.1 108.589 224.389 108.262 223.868 107.805C223.351 107.344 223.094 106.716 223.098 105.92C223.094 105.274 223.267 104.709 223.615 104.225C223.966 103.738 224.452 103.358 225.071 103.087C225.694 102.815 226.409 102.679 227.214 102.679C228.036 102.679 228.747 102.817 229.347 103.092C229.947 103.367 230.409 103.754 230.734 104.255C231.062 104.752 231.228 105.334 231.231 106H228.586ZM237.016 105.364V107.352H231.984V105.364H237.016ZM232.959 103.534H235.703V110.544C235.703 110.65 235.721 110.74 235.758 110.812C235.794 110.882 235.851 110.935 235.927 110.972C236.003 111.005 236.101 111.021 236.22 111.021C236.303 111.021 236.399 111.011 236.509 110.991C236.621 110.972 236.704 110.955 236.757 110.942L237.155 112.871C237.032 112.907 236.857 112.952 236.628 113.005C236.402 113.058 236.134 113.093 235.822 113.109C235.193 113.143 234.664 113.078 234.237 112.915C233.809 112.75 233.487 112.49 233.272 112.135C233.057 111.78 232.952 111.336 232.959 110.803V103.534ZM240.263 113.119C239.776 113.119 239.345 113.04 238.971 112.881C238.599 112.718 238.308 112.473 238.096 112.145C237.884 111.817 237.778 111.399 237.778 110.892C237.778 110.474 237.849 110.118 237.991 109.823C238.134 109.525 238.333 109.281 238.588 109.092C238.843 108.903 239.14 108.759 239.478 108.66C239.819 108.56 240.187 108.496 240.581 108.466C241.009 108.433 241.352 108.393 241.611 108.347C241.872 108.297 242.061 108.229 242.177 108.143C242.293 108.053 242.351 107.936 242.351 107.79V107.77C242.351 107.571 242.275 107.419 242.123 107.312C241.97 107.206 241.775 107.153 241.536 107.153C241.274 107.153 241.06 107.211 240.895 107.327C240.732 107.44 240.635 107.614 240.601 107.849H238.076C238.109 107.385 238.256 106.958 238.518 106.567C238.783 106.172 239.17 105.857 239.677 105.622C240.184 105.384 240.817 105.264 241.576 105.264C242.123 105.264 242.613 105.329 243.047 105.458C243.482 105.584 243.851 105.761 244.156 105.99C244.461 106.215 244.693 106.481 244.852 106.786C245.015 107.087 245.096 107.415 245.096 107.77V113H242.53V111.926H242.471C242.318 112.211 242.133 112.442 241.914 112.617C241.698 112.793 241.452 112.92 241.173 113C240.898 113.08 240.595 113.119 240.263 113.119ZM241.158 111.389C241.367 111.389 241.563 111.346 241.745 111.26C241.93 111.174 242.081 111.049 242.197 110.887C242.313 110.725 242.371 110.527 242.371 110.295V109.659C242.298 109.689 242.22 109.717 242.138 109.744C242.058 109.77 241.972 109.795 241.879 109.818C241.79 109.841 241.693 109.863 241.591 109.883C241.491 109.903 241.387 109.921 241.278 109.938C241.065 109.971 240.891 110.025 240.756 110.102C240.623 110.174 240.523 110.266 240.457 110.375C240.394 110.481 240.363 110.6 240.363 110.733C240.363 110.945 240.437 111.107 240.586 111.22C240.736 111.333 240.926 111.389 241.158 111.389ZM246.407 113V105.364H249.072V106.815H249.151C249.29 106.278 249.511 105.886 249.812 105.637C250.117 105.388 250.474 105.264 250.881 105.264C251.001 105.264 251.118 105.274 251.234 105.294C251.354 105.311 251.468 105.335 251.577 105.369V107.71C251.442 107.664 251.274 107.629 251.075 107.606C250.876 107.583 250.706 107.571 250.563 107.571C250.295 107.571 250.053 107.632 249.837 107.755C249.625 107.874 249.458 108.043 249.335 108.262C249.213 108.478 249.151 108.731 249.151 109.023V113H246.407ZM257.429 109.659V105.364H260.173V113H257.568V111.548H257.489C257.323 112.036 257.033 112.417 256.619 112.692C256.204 112.964 255.712 113.099 255.142 113.099C254.608 113.099 254.141 112.977 253.74 112.732C253.342 112.486 253.032 112.148 252.81 111.717C252.592 111.286 252.481 110.793 252.477 110.236V105.364H255.222V109.659C255.225 110.037 255.321 110.334 255.51 110.549C255.702 110.764 255.971 110.872 256.315 110.872C256.544 110.872 256.741 110.824 256.907 110.728C257.076 110.629 257.205 110.489 257.295 110.31C257.388 110.128 257.432 109.911 257.429 109.659ZM261.569 115.864V105.364H264.294V106.696H264.353C264.453 106.437 264.598 106.201 264.791 105.985C264.983 105.766 265.222 105.592 265.507 105.463C265.792 105.33 266.123 105.264 266.501 105.264C267.005 105.264 267.484 105.398 267.938 105.667C268.395 105.935 268.766 106.358 269.051 106.935C269.34 107.511 269.484 108.26 269.484 109.182C269.484 110.063 269.346 110.794 269.071 111.374C268.799 111.954 268.435 112.387 267.977 112.672C267.523 112.957 267.025 113.099 266.481 113.099C266.123 113.099 265.803 113.041 265.521 112.925C265.243 112.806 265.004 112.645 264.806 112.443C264.61 112.238 264.459 112.006 264.353 111.747H264.313V115.864H261.569ZM264.254 109.182C264.254 109.553 264.302 109.875 264.398 110.146C264.497 110.415 264.637 110.624 264.816 110.773C264.998 110.919 265.215 110.991 265.467 110.991C265.719 110.991 265.932 110.92 266.108 110.778C266.287 110.632 266.423 110.425 266.516 110.156C266.612 109.884 266.66 109.56 266.66 109.182C266.66 108.804 266.612 108.481 266.516 108.212C266.423 107.941 266.287 107.733 266.108 107.591C265.932 107.445 265.719 107.372 265.467 107.372C265.215 107.372 264.998 107.445 264.816 107.591C264.637 107.733 264.497 107.941 264.398 108.212C264.302 108.481 264.254 108.804 264.254 109.182ZM276.167 102.818L278.255 109.997H278.335L280.423 102.818H283.545L280.184 113H276.406L273.045 102.818H276.167ZM284.565 113V105.364H287.309V113H284.565ZM285.937 104.568C285.566 104.568 285.248 104.446 284.983 104.2C284.718 103.955 284.585 103.66 284.585 103.315C284.585 102.971 284.718 102.676 284.983 102.43C285.248 102.185 285.566 102.062 285.937 102.062C286.312 102.062 286.63 102.185 286.892 102.43C287.157 102.676 287.29 102.971 287.29 103.315C287.29 103.66 287.157 103.955 286.892 104.2C286.63 104.446 286.312 104.568 285.937 104.568ZM291.452 102.818V113H288.708V102.818H291.452ZM295.595 102.818V113H292.85V102.818H295.595ZM299.121 113.119C298.634 113.119 298.203 113.04 297.828 112.881C297.457 112.718 297.165 112.473 296.953 112.145C296.741 111.817 296.635 111.399 296.635 110.892C296.635 110.474 296.706 110.118 296.849 109.823C296.991 109.525 297.19 109.281 297.445 109.092C297.701 108.903 297.997 108.759 298.335 108.66C298.677 108.56 299.045 108.496 299.439 108.466C299.866 108.433 300.21 108.393 300.468 108.347C300.73 108.297 300.919 108.229 301.035 108.143C301.151 108.053 301.209 107.936 301.209 107.79V107.77C301.209 107.571 301.133 107.419 300.98 107.312C300.828 107.206 300.632 107.153 300.393 107.153C300.132 107.153 299.918 107.211 299.752 107.327C299.59 107.44 299.492 107.614 299.459 107.849H296.933C296.966 107.385 297.114 106.958 297.376 106.567C297.641 106.172 298.027 105.857 298.534 105.622C299.041 105.384 299.674 105.264 300.433 105.264C300.98 105.264 301.471 105.329 301.905 105.458C302.339 105.584 302.709 105.761 303.013 105.99C303.318 106.215 303.55 106.481 303.71 106.786C303.872 107.087 303.953 107.415 303.953 107.77V113H301.388V111.926H301.328C301.176 112.211 300.99 112.442 300.771 112.617C300.556 112.793 300.309 112.92 300.031 113C299.755 113.08 299.452 113.119 299.121 113.119ZM300.016 111.389C300.224 111.389 300.42 111.346 300.602 111.26C300.788 111.174 300.939 111.049 301.055 110.887C301.171 110.725 301.229 110.527 301.229 110.295V109.659C301.156 109.689 301.078 109.717 300.995 109.744C300.915 109.77 300.829 109.795 300.737 109.818C300.647 109.841 300.551 109.863 300.448 109.883C300.349 109.903 300.244 109.921 300.135 109.938C299.923 109.971 299.749 110.025 299.613 110.102C299.48 110.174 299.381 110.266 299.315 110.375C299.252 110.481 299.22 110.6 299.22 110.733C299.22 110.945 299.295 111.107 299.444 111.22C299.593 111.333 299.784 111.389 300.016 111.389ZM308.943 116.023C308.178 116.023 307.521 115.913 306.975 115.695C306.431 115.479 306.008 115.181 305.707 114.8C305.409 114.422 305.241 113.988 305.205 113.497H307.85C307.876 113.66 307.942 113.79 308.048 113.89C308.155 113.989 308.29 114.061 308.456 114.104C308.625 114.15 308.814 114.173 309.023 114.173C309.378 114.173 309.671 114.087 309.903 113.915C310.138 113.742 310.256 113.431 310.256 112.98V111.688H310.176C310.077 111.946 309.924 112.166 309.719 112.349C309.513 112.528 309.267 112.665 308.978 112.761C308.69 112.854 308.373 112.901 308.029 112.901C307.485 112.901 306.985 112.775 306.527 112.523C306.073 112.271 305.709 111.871 305.433 111.325C305.162 110.778 305.026 110.063 305.026 109.182C305.026 108.26 305.168 107.511 305.453 106.935C305.742 106.358 306.113 105.935 306.567 105.667C307.024 105.398 307.505 105.264 308.009 105.264C308.387 105.264 308.718 105.33 309.003 105.463C309.288 105.592 309.527 105.766 309.719 105.985C309.911 106.201 310.057 106.437 310.156 106.696H310.216V105.364H312.96V112.98C312.96 113.626 312.793 114.175 312.458 114.626C312.127 115.08 311.66 115.426 311.056 115.665C310.453 115.903 309.749 116.023 308.943 116.023ZM309.043 110.952C309.295 110.952 309.51 110.882 309.689 110.743C309.871 110.6 310.011 110.398 310.107 110.136C310.206 109.871 310.256 109.553 310.256 109.182C310.256 108.804 310.206 108.481 310.107 108.212C310.011 107.941 309.871 107.733 309.689 107.591C309.51 107.445 309.295 107.372 309.043 107.372C308.791 107.372 308.575 107.445 308.396 107.591C308.221 107.733 308.085 107.941 307.989 108.212C307.896 108.481 307.85 108.804 307.85 109.182C307.85 109.56 307.896 109.881 307.989 110.146C308.085 110.408 308.221 110.609 308.396 110.748C308.575 110.884 308.791 110.952 309.043 110.952ZM318.015 113.139C317.2 113.139 316.497 112.983 315.907 112.672C315.321 112.357 314.868 111.906 314.55 111.32C314.235 110.73 314.078 110.024 314.078 109.202C314.078 108.413 314.237 107.723 314.555 107.134C314.873 106.544 315.322 106.085 315.902 105.756C316.482 105.428 317.167 105.264 317.956 105.264C318.532 105.264 319.054 105.354 319.522 105.533C319.989 105.712 320.388 105.972 320.72 106.313C321.051 106.651 321.306 107.062 321.485 107.546C321.664 108.03 321.754 108.575 321.754 109.182V109.818H314.933V108.307H319.228C319.225 108.088 319.169 107.896 319.059 107.73C318.953 107.561 318.809 107.43 318.627 107.337C318.448 107.241 318.244 107.193 318.015 107.193C317.793 107.193 317.589 107.241 317.404 107.337C317.218 107.43 317.069 107.559 316.956 107.725C316.847 107.891 316.789 108.085 316.782 108.307V109.938C316.782 110.183 316.834 110.402 316.936 110.594C317.039 110.786 317.187 110.937 317.379 111.046C317.571 111.156 317.803 111.21 318.075 111.21C318.264 111.21 318.436 111.184 318.592 111.131C318.751 111.078 318.887 111.001 319 110.902C319.112 110.799 319.195 110.677 319.248 110.534H321.754C321.668 111.064 321.464 111.525 321.142 111.916C320.821 112.304 320.395 112.606 319.865 112.821C319.338 113.033 318.721 113.139 318.015 113.139Z" fill="#3B3636"/>
<path d="M136.859 139C136.828 138.621 136.686 138.326 136.433 138.114C136.183 137.902 135.802 137.795 135.29 137.795C134.965 137.795 134.698 137.835 134.489 137.915C134.285 137.991 134.133 138.095 134.035 138.227C133.936 138.36 133.885 138.511 133.881 138.682C133.874 138.822 133.898 138.949 133.955 139.062C134.016 139.172 134.111 139.273 134.239 139.364C134.368 139.451 134.533 139.53 134.734 139.602C134.934 139.674 135.173 139.739 135.45 139.795L136.404 140C137.048 140.136 137.599 140.316 138.058 140.54C138.516 140.763 138.891 141.027 139.183 141.33C139.474 141.629 139.688 141.966 139.825 142.341C139.965 142.716 140.037 143.125 140.04 143.568C140.037 144.333 139.845 144.981 139.467 145.511C139.088 146.042 138.546 146.445 137.842 146.722C137.141 146.998 136.298 147.136 135.313 147.136C134.302 147.136 133.419 146.987 132.665 146.688C131.915 146.388 131.332 145.928 130.915 145.307C130.503 144.682 130.294 143.883 130.29 142.909H133.29C133.309 143.265 133.398 143.564 133.558 143.807C133.717 144.049 133.94 144.233 134.228 144.358C134.52 144.483 134.866 144.545 135.268 144.545C135.605 144.545 135.887 144.504 136.114 144.42C136.342 144.337 136.514 144.222 136.631 144.074C136.749 143.926 136.809 143.758 136.813 143.568C136.809 143.39 136.751 143.235 136.637 143.102C136.527 142.966 136.345 142.845 136.092 142.739C135.838 142.629 135.495 142.527 135.063 142.432L133.904 142.182C132.874 141.958 132.061 141.585 131.467 141.062C130.876 140.536 130.582 139.818 130.586 138.909C130.582 138.17 130.779 137.525 131.177 136.972C131.578 136.415 132.133 135.981 132.842 135.67C133.554 135.36 134.37 135.205 135.29 135.205C136.23 135.205 137.042 135.362 137.728 135.676C138.414 135.991 138.942 136.434 139.313 137.006C139.688 137.574 139.878 138.239 139.881 139H136.859ZM141.242 147V135.364H149.629V137.909H144.401V139.909H149.197V142.455H144.401V144.455H149.606V147H141.242ZM151.195 147V135.364H156.218C157.082 135.364 157.837 135.534 158.485 135.875C159.133 136.216 159.637 136.695 159.996 137.312C160.356 137.93 160.536 138.652 160.536 139.477C160.536 140.311 160.351 141.032 159.979 141.642C159.612 142.252 159.095 142.722 158.428 143.051C157.765 143.381 156.991 143.545 156.104 143.545H153.104V141.091H155.468C155.839 141.091 156.156 141.027 156.417 140.898C156.682 140.765 156.885 140.578 157.025 140.335C157.169 140.093 157.241 139.807 157.241 139.477C157.241 139.144 157.169 138.86 157.025 138.625C156.885 138.386 156.682 138.205 156.417 138.08C156.156 137.951 155.839 137.886 155.468 137.886H154.354V147H151.195ZM164.906 147V144.727L169.246 141.136C169.534 140.898 169.781 140.674 169.985 140.466C170.193 140.254 170.353 140.036 170.462 139.812C170.576 139.589 170.633 139.341 170.633 139.068C170.633 138.769 170.568 138.513 170.44 138.301C170.315 138.089 170.14 137.926 169.917 137.812C169.693 137.695 169.436 137.636 169.144 137.636C168.853 137.636 168.595 137.695 168.371 137.812C168.152 137.93 167.981 138.102 167.86 138.33C167.739 138.557 167.678 138.833 167.678 139.159H164.678C164.678 138.341 164.862 137.636 165.229 137.045C165.597 136.455 166.116 136 166.786 135.682C167.457 135.364 168.243 135.205 169.144 135.205C170.076 135.205 170.883 135.354 171.565 135.653C172.25 135.949 172.779 136.366 173.15 136.903C173.525 137.441 173.712 138.072 173.712 138.795C173.712 139.242 173.62 139.687 173.434 140.131C173.248 140.57 172.915 141.057 172.434 141.591C171.953 142.125 171.269 142.761 170.383 143.5L169.292 144.409V144.477H173.837V147H164.906ZM180.954 135.364V147H177.795V138.273H177.727L175.181 139.795V137.114L178.045 135.364H180.954ZM189.593 139C189.563 138.621 189.421 138.326 189.167 138.114C188.917 137.902 188.536 137.795 188.025 137.795C187.699 137.795 187.432 137.835 187.224 137.915C187.019 137.991 186.868 138.095 186.769 138.227C186.671 138.36 186.62 138.511 186.616 138.682C186.608 138.822 186.633 138.949 186.69 139.062C186.75 139.172 186.845 139.273 186.974 139.364C187.103 139.451 187.267 139.53 187.468 139.602C187.669 139.674 187.907 139.739 188.184 139.795L189.138 140C189.782 140.136 190.334 140.316 190.792 140.54C191.25 140.763 191.625 141.027 191.917 141.33C192.209 141.629 192.423 141.966 192.559 142.341C192.699 142.716 192.771 143.125 192.775 143.568C192.771 144.333 192.58 144.981 192.201 145.511C191.822 146.042 191.281 146.445 190.576 146.722C189.875 146.998 189.032 147.136 188.048 147.136C187.036 147.136 186.154 146.987 185.4 146.688C184.65 146.388 184.067 145.928 183.65 145.307C183.237 144.682 183.029 143.883 183.025 142.909H186.025C186.044 143.265 186.133 143.564 186.292 143.807C186.451 144.049 186.674 144.233 186.962 144.358C187.254 144.483 187.601 144.545 188.002 144.545C188.339 144.545 188.621 144.504 188.849 144.42C189.076 144.337 189.248 144.222 189.366 144.074C189.483 143.926 189.544 143.758 189.548 143.568C189.544 143.39 189.485 143.235 189.371 143.102C189.262 142.966 189.08 142.845 188.826 142.739C188.572 142.629 188.229 142.527 187.798 142.432L186.638 142.182C185.608 141.958 184.796 141.585 184.201 141.062C183.61 140.536 183.317 139.818 183.32 138.909C183.317 138.17 183.513 137.525 183.911 136.972C184.313 136.415 184.868 135.981 185.576 135.67C186.288 135.36 187.104 135.205 188.025 135.205C188.964 135.205 189.777 135.362 190.462 135.676C191.148 135.991 191.676 136.434 192.048 137.006C192.423 137.574 192.612 138.239 192.616 139H189.593ZM193.658 137.909V135.364H203.772V137.909H200.272V147H197.158V137.909H193.658ZM213.921 140V142.364H208.467V140H213.921ZM218.952 147V144.727L223.293 141.136C223.581 140.898 223.827 140.674 224.032 140.466C224.24 140.254 224.399 140.036 224.509 139.812C224.623 139.589 224.68 139.341 224.68 139.068C224.68 138.769 224.615 138.513 224.487 138.301C224.362 138.089 224.187 137.926 223.964 137.812C223.74 137.695 223.483 137.636 223.191 137.636C222.899 137.636 222.642 137.695 222.418 137.812C222.199 137.93 222.028 138.102 221.907 138.33C221.786 138.557 221.725 138.833 221.725 139.159H218.725C218.725 138.341 218.909 137.636 219.276 137.045C219.644 136.455 220.163 136 220.833 135.682C221.504 135.364 222.29 135.205 223.191 135.205C224.123 135.205 224.93 135.354 225.612 135.653C226.297 135.949 226.826 136.366 227.197 136.903C227.572 137.441 227.759 138.072 227.759 138.795C227.759 139.242 227.666 139.687 227.481 140.131C227.295 140.57 226.962 141.057 226.481 141.591C226 142.125 225.316 142.761 224.43 143.5L223.339 144.409V144.477H227.884V147H218.952ZM229.296 147V144.727L233.637 141.136C233.925 140.898 234.171 140.674 234.376 140.466C234.584 140.254 234.743 140.036 234.853 139.812C234.967 139.589 235.023 139.341 235.023 139.068C235.023 138.769 234.959 138.513 234.83 138.301C234.705 138.089 234.531 137.926 234.308 137.812C234.084 137.695 233.826 137.636 233.535 137.636C233.243 137.636 232.986 137.695 232.762 137.812C232.542 137.93 232.372 138.102 232.251 138.33C232.129 138.557 232.069 138.833 232.069 139.159H229.069C229.069 138.341 229.253 137.636 229.62 137.045C229.987 136.455 230.506 136 231.177 135.682C231.847 135.364 232.633 135.205 233.535 135.205C234.467 135.205 235.273 135.354 235.955 135.653C236.641 135.949 237.169 136.366 237.54 136.903C237.915 137.441 238.103 138.072 238.103 138.795C238.103 139.242 238.01 139.687 237.825 140.131C237.639 140.57 237.306 141.057 236.825 141.591C236.344 142.125 235.66 142.761 234.773 143.5L233.683 144.409V144.477H238.228V147H229.296ZM249.685 135.364V147H247.049L242.844 140.886H242.776V147H239.617V135.364H242.299L246.435 141.455H246.526V135.364H249.685ZM255.657 147H251.18V135.364H255.612C256.808 135.364 257.843 135.597 258.714 136.062C259.589 136.525 260.263 137.191 260.737 138.062C261.214 138.93 261.452 139.97 261.452 141.182C261.452 142.394 261.216 143.436 260.742 144.307C260.269 145.174 259.598 145.841 258.731 146.307C257.863 146.769 256.839 147 255.657 147ZM254.339 144.318H255.543C256.119 144.318 256.61 144.225 257.015 144.04C257.424 143.854 257.735 143.534 257.947 143.08C258.163 142.625 258.271 141.992 258.271 141.182C258.271 140.371 258.161 139.739 257.941 139.284C257.725 138.83 257.407 138.509 256.987 138.324C256.57 138.138 256.058 138.045 255.452 138.045H254.339V144.318Z" fill="#9A2B2B"/>
<path d="M138.52 163.636H135.716C135.696 163.404 135.643 163.194 135.557 163.005C135.474 162.816 135.358 162.654 135.209 162.518C135.063 162.379 134.886 162.272 134.677 162.2C134.468 162.123 134.232 162.085 133.966 162.085C133.502 162.085 133.11 162.198 132.788 162.423C132.47 162.649 132.228 162.972 132.062 163.393C131.9 163.814 131.819 164.319 131.819 164.909C131.819 165.532 131.901 166.054 132.067 166.475C132.236 166.893 132.48 167.208 132.798 167.42C133.116 167.629 133.499 167.733 133.946 167.733C134.202 167.733 134.43 167.701 134.633 167.638C134.835 167.572 135.01 167.478 135.16 167.355C135.309 167.232 135.43 167.085 135.522 166.913C135.619 166.737 135.683 166.54 135.716 166.321L138.52 166.341C138.487 166.772 138.366 167.211 138.157 167.658C137.949 168.103 137.652 168.513 137.267 168.891C136.886 169.266 136.414 169.567 135.851 169.796C135.287 170.025 134.633 170.139 133.887 170.139C132.952 170.139 132.114 169.939 131.371 169.538C130.632 169.137 130.047 168.547 129.616 167.768C129.189 166.989 128.975 166.036 128.975 164.909C128.975 163.776 129.194 162.821 129.631 162.045C130.069 161.267 130.659 160.678 131.401 160.281C132.143 159.879 132.972 159.679 133.887 159.679C134.53 159.679 135.121 159.767 135.662 159.942C136.202 160.118 136.676 160.375 137.084 160.713C137.491 161.048 137.819 161.46 138.068 161.951C138.316 162.442 138.467 163.003 138.52 163.636ZM143.493 170.139C142.665 170.139 141.955 169.975 141.365 169.647C140.775 169.316 140.323 168.855 140.008 168.265C139.693 167.672 139.536 166.984 139.536 166.202C139.536 165.42 139.693 164.733 140.008 164.143C140.323 163.55 140.775 163.089 141.365 162.761C141.955 162.43 142.665 162.264 143.493 162.264C144.322 162.264 145.031 162.43 145.621 162.761C146.211 163.089 146.663 163.55 146.978 164.143C147.293 164.733 147.451 165.42 147.451 166.202C147.451 166.984 147.293 167.672 146.978 168.265C146.663 168.855 146.211 169.316 145.621 169.647C145.031 169.975 144.322 170.139 143.493 170.139ZM143.513 168.111C143.745 168.111 143.946 168.033 144.115 167.877C144.284 167.721 144.415 167.499 144.507 167.211C144.6 166.923 144.647 166.58 144.647 166.182C144.647 165.781 144.6 165.438 144.507 165.153C144.415 164.864 144.284 164.642 144.115 164.487C143.946 164.331 143.745 164.253 143.513 164.253C143.268 164.253 143.057 164.331 142.882 164.487C142.706 164.642 142.572 164.864 142.479 165.153C142.386 165.438 142.34 165.781 142.34 166.182C142.34 166.58 142.386 166.923 142.479 167.211C142.572 167.499 142.706 167.721 142.882 167.877C143.057 168.033 143.268 168.111 143.513 168.111ZM148.564 170V162.364H151.309V170H148.564ZM149.936 161.568C149.565 161.568 149.247 161.446 148.982 161.2C148.717 160.955 148.584 160.66 148.584 160.315C148.584 159.971 148.717 159.676 148.982 159.43C149.247 159.185 149.565 159.062 149.936 159.062C150.311 159.062 150.629 159.185 150.891 159.43C151.156 159.676 151.289 159.971 151.289 160.315C151.289 160.66 151.156 160.955 150.891 161.2C150.629 161.446 150.311 161.568 149.936 161.568ZM155.451 165.705V170H152.707V162.364H155.312V163.815H155.391C155.557 163.331 155.849 162.952 156.266 162.677C156.687 162.402 157.178 162.264 157.738 162.264C158.278 162.264 158.747 162.388 159.145 162.637C159.546 162.882 159.856 163.22 160.075 163.651C160.297 164.082 160.406 164.574 160.403 165.128V170H157.658V165.705C157.662 165.327 157.566 165.03 157.37 164.815C157.178 164.599 156.909 164.491 156.565 164.491C156.339 164.491 156.142 164.541 155.973 164.641C155.807 164.737 155.68 164.876 155.59 165.058C155.501 165.237 155.454 165.453 155.451 165.705ZM166.331 162.364V164.352H161.221V162.364H166.331ZM162.195 170V162.145C162.195 161.515 162.308 160.993 162.533 160.579C162.758 160.165 163.077 159.855 163.488 159.649C163.899 159.444 164.383 159.341 164.939 159.341C165.287 159.341 165.625 159.367 165.954 159.42C166.285 159.473 166.53 159.52 166.689 159.56L166.292 161.528C166.192 161.499 166.076 161.475 165.944 161.459C165.811 161.439 165.695 161.429 165.596 161.429C165.337 161.429 165.163 161.484 165.074 161.593C164.984 161.702 164.939 161.847 164.939 162.026V170H162.195ZM170.817 170.139C170.002 170.139 169.299 169.983 168.709 169.672C168.122 169.357 167.67 168.906 167.352 168.32C167.037 167.73 166.88 167.024 166.88 166.202C166.88 165.413 167.039 164.723 167.357 164.134C167.675 163.544 168.124 163.085 168.704 162.756C169.284 162.428 169.969 162.264 170.757 162.264C171.334 162.264 171.856 162.354 172.323 162.533C172.791 162.712 173.19 162.972 173.522 163.313C173.853 163.651 174.108 164.062 174.287 164.546C174.466 165.03 174.556 165.575 174.556 166.182V166.818H167.735V165.307H172.03C172.027 165.088 171.97 164.896 171.861 164.73C171.755 164.561 171.611 164.43 171.429 164.337C171.25 164.241 171.046 164.193 170.817 164.193C170.595 164.193 170.391 164.241 170.206 164.337C170.02 164.43 169.871 164.559 169.758 164.725C169.649 164.891 169.591 165.085 169.584 165.307V166.938C169.584 167.183 169.635 167.402 169.738 167.594C169.841 167.786 169.988 167.937 170.181 168.046C170.373 168.156 170.605 168.21 170.877 168.21C171.066 168.21 171.238 168.184 171.394 168.131C171.553 168.078 171.689 168.001 171.801 167.902C171.914 167.799 171.997 167.677 172.05 167.534H174.556C174.469 168.064 174.266 168.525 173.944 168.916C173.623 169.304 173.197 169.606 172.666 169.821C172.139 170.033 171.523 170.139 170.817 170.139ZM182.656 164.849H180.13C180.117 164.694 180.062 164.559 179.966 164.447C179.87 164.334 179.746 164.248 179.593 164.188C179.444 164.125 179.278 164.094 179.096 164.094C178.861 164.094 178.658 164.137 178.489 164.223C178.32 164.309 178.238 164.432 178.241 164.591C178.238 164.704 178.286 164.808 178.385 164.904C178.488 165 178.685 165.075 178.977 165.128L180.528 165.406C181.31 165.549 181.892 165.789 182.273 166.127C182.657 166.462 182.851 166.911 182.854 167.474C182.851 168.018 182.689 168.49 182.367 168.891C182.049 169.289 181.613 169.597 181.06 169.816C180.51 170.031 179.881 170.139 179.176 170.139C178.009 170.139 177.096 169.901 176.436 169.423C175.78 168.946 175.414 168.316 175.337 167.534H178.062C178.098 167.776 178.218 167.963 178.42 168.096C178.625 168.225 178.884 168.29 179.195 168.29C179.447 168.29 179.654 168.247 179.817 168.161C179.983 168.074 180.067 167.952 180.07 167.793C180.067 167.647 179.994 167.531 179.852 167.445C179.712 167.358 179.494 167.289 179.195 167.236L177.843 166.997C177.064 166.861 176.481 166.603 176.093 166.222C175.705 165.84 175.513 165.35 175.516 164.75C175.513 164.22 175.652 163.771 175.934 163.403C176.219 163.031 176.625 162.75 177.152 162.558C177.682 162.362 178.31 162.264 179.036 162.264C180.14 162.264 181.01 162.493 181.646 162.95C182.286 163.408 182.622 164.041 182.656 164.849ZM188.46 162.364V164.352H183.429V162.364H188.46ZM184.403 160.534H187.147V167.544C187.147 167.65 187.166 167.74 187.202 167.812C187.239 167.882 187.295 167.935 187.371 167.972C187.447 168.005 187.545 168.021 187.665 168.021C187.747 168.021 187.843 168.011 187.953 167.991C188.066 167.972 188.148 167.955 188.201 167.942L188.599 169.871C188.477 169.907 188.301 169.952 188.072 170.005C187.847 170.058 187.578 170.093 187.267 170.109C186.637 170.143 186.108 170.078 185.681 169.915C185.253 169.75 184.932 169.49 184.716 169.135C184.501 168.78 184.397 168.336 184.403 167.803V160.534ZM194.974 170H191.991L195.352 159.818H199.13L202.491 170H199.508L197.281 162.622H197.201L194.974 170ZM194.417 165.983H200.025V168.051H194.417V165.983ZM210.191 164.849H207.665C207.652 164.694 207.597 164.559 207.501 164.447C207.405 164.334 207.281 164.248 207.128 164.188C206.979 164.125 206.813 164.094 206.631 164.094C206.396 164.094 206.194 164.137 206.025 164.223C205.856 164.309 205.773 164.432 205.776 164.591C205.773 164.704 205.821 164.808 205.92 164.904C206.023 165 206.22 165.075 206.512 165.128L208.063 165.406C208.845 165.549 209.427 165.789 209.808 166.127C210.192 166.462 210.386 166.911 210.39 167.474C210.386 168.018 210.224 168.49 209.902 168.891C209.584 169.289 209.148 169.597 208.595 169.816C208.045 170.031 207.417 170.139 206.711 170.139C205.544 170.139 204.631 169.901 203.971 169.423C203.315 168.946 202.949 168.316 202.873 167.534H205.597C205.633 167.776 205.753 167.963 205.955 168.096C206.16 168.225 206.419 168.29 206.731 168.29C206.982 168.29 207.19 168.247 207.352 168.161C207.518 168.074 207.602 167.952 207.606 167.793C207.602 167.647 207.529 167.531 207.387 167.445C207.248 167.358 207.029 167.289 206.731 167.236L205.378 166.997C204.599 166.861 204.016 166.603 203.628 166.222C203.241 165.84 203.048 165.35 203.052 164.75C203.048 164.22 203.187 163.771 203.469 163.403C203.754 163.031 204.16 162.75 204.687 162.558C205.218 162.362 205.846 162.264 206.571 162.264C207.675 162.264 208.545 162.493 209.182 162.95C209.821 163.408 210.158 164.041 210.191 164.849ZM211.441 170V162.364H214.185V170H211.441ZM212.813 161.568C212.442 161.568 212.124 161.446 211.859 161.2C211.594 160.955 211.461 160.66 211.461 160.315C211.461 159.971 211.594 159.676 211.859 159.43C212.124 159.185 212.442 159.062 212.813 159.062C213.188 159.062 213.506 159.185 213.768 159.43C214.033 159.676 214.166 159.971 214.166 160.315C214.166 160.66 214.033 160.955 213.768 161.2C213.506 161.446 213.188 161.568 212.813 161.568ZM217.712 170.119C217.224 170.119 216.793 170.04 216.419 169.881C216.048 169.718 215.756 169.473 215.544 169.145C215.332 168.817 215.226 168.399 215.226 167.892C215.226 167.474 215.297 167.118 215.44 166.823C215.582 166.525 215.781 166.281 216.036 166.092C216.291 165.903 216.588 165.759 216.926 165.66C217.267 165.56 217.635 165.496 218.03 165.466C218.457 165.433 218.8 165.393 219.059 165.347C219.321 165.297 219.51 165.229 219.626 165.143C219.742 165.053 219.8 164.936 219.8 164.79V164.77C219.8 164.571 219.723 164.419 219.571 164.312C219.418 164.206 219.223 164.153 218.984 164.153C218.722 164.153 218.509 164.211 218.343 164.327C218.181 164.44 218.083 164.614 218.05 164.849H215.524C215.557 164.385 215.705 163.958 215.967 163.567C216.232 163.172 216.618 162.857 217.125 162.622C217.632 162.384 218.265 162.264 219.024 162.264C219.571 162.264 220.061 162.329 220.496 162.458C220.93 162.584 221.299 162.761 221.604 162.99C221.909 163.215 222.141 163.481 222.3 163.786C222.463 164.087 222.544 164.415 222.544 164.77V170H219.979V168.926H219.919C219.766 169.211 219.581 169.442 219.362 169.617C219.147 169.793 218.9 169.92 218.621 170C218.346 170.08 218.043 170.119 217.712 170.119ZM218.606 168.389C218.815 168.389 219.011 168.346 219.193 168.26C219.379 168.174 219.53 168.049 219.646 167.887C219.762 167.725 219.82 167.527 219.82 167.295V166.659C219.747 166.689 219.669 166.717 219.586 166.744C219.506 166.77 219.42 166.795 219.327 166.818C219.238 166.841 219.142 166.863 219.039 166.883C218.94 166.903 218.835 166.921 218.726 166.938C218.514 166.971 218.34 167.025 218.204 167.102C218.071 167.174 217.972 167.266 217.905 167.375C217.842 167.481 217.811 167.6 217.811 167.733C217.811 167.945 217.886 168.107 218.035 168.22C218.184 168.333 218.374 168.389 218.606 168.389ZM226.624 170V168.011L230.423 164.869C230.675 164.661 230.89 164.465 231.069 164.283C231.251 164.097 231.39 163.906 231.487 163.711C231.586 163.515 231.636 163.298 231.636 163.06C231.636 162.798 231.579 162.574 231.467 162.388C231.357 162.203 231.205 162.06 231.009 161.961C230.814 161.858 230.588 161.807 230.333 161.807C230.078 161.807 229.853 161.858 229.657 161.961C229.465 162.064 229.316 162.214 229.21 162.413C229.104 162.612 229.051 162.854 229.051 163.139H226.426C226.426 162.423 226.586 161.807 226.908 161.29C227.229 160.773 227.683 160.375 228.27 160.097C228.857 159.818 229.544 159.679 230.333 159.679C231.149 159.679 231.854 159.81 232.451 160.072C233.051 160.33 233.513 160.695 233.838 161.165C234.166 161.636 234.33 162.188 234.33 162.821C234.33 163.212 234.249 163.602 234.087 163.989C233.924 164.374 233.633 164.8 233.212 165.267C232.791 165.734 232.193 166.291 231.417 166.938L230.462 167.733V167.793H234.44V170H226.624ZM240.11 170.278C239.185 170.275 238.386 170.061 237.714 169.637C237.041 169.213 236.522 168.601 236.157 167.803C235.793 167.004 235.612 166.046 235.616 164.929C235.619 163.809 235.801 162.857 236.162 162.075C236.527 161.293 237.044 160.698 237.714 160.29C238.386 159.883 239.185 159.679 240.11 159.679C241.035 159.679 241.833 159.884 242.506 160.295C243.179 160.703 243.698 161.298 244.062 162.08C244.427 162.862 244.607 163.812 244.604 164.929C244.604 166.053 244.422 167.014 244.057 167.812C243.693 168.611 243.174 169.223 242.501 169.647C241.832 170.068 241.035 170.278 240.11 170.278ZM240.11 168.031C240.587 168.031 240.978 167.783 241.283 167.286C241.591 166.785 241.744 166 241.741 164.929C241.741 164.23 241.671 163.658 241.532 163.214C241.392 162.77 241.2 162.442 240.955 162.229C240.71 162.014 240.428 161.906 240.11 161.906C239.633 161.906 239.243 162.148 238.941 162.632C238.64 163.116 238.486 163.882 238.479 164.929C238.476 165.642 238.544 166.228 238.683 166.689C238.822 167.146 239.014 167.484 239.26 167.703C239.508 167.922 239.792 168.031 240.11 168.031ZM245.902 170V168.011L249.7 164.869C249.952 164.661 250.167 164.465 250.346 164.283C250.529 164.097 250.668 163.906 250.764 163.711C250.863 163.515 250.913 163.298 250.913 163.06C250.913 162.798 250.857 162.574 250.744 162.388C250.635 162.203 250.482 162.06 250.287 161.961C250.091 161.858 249.866 161.807 249.611 161.807C249.355 161.807 249.13 161.858 248.934 161.961C248.742 162.064 248.593 162.214 248.487 162.413C248.381 162.612 248.328 162.854 248.328 163.139H245.703C245.703 162.423 245.864 161.807 246.185 161.29C246.507 160.773 246.961 160.375 247.547 160.097C248.134 159.818 248.822 159.679 249.611 159.679C250.426 159.679 251.132 159.81 251.728 160.072C252.328 160.33 252.791 160.695 253.116 161.165C253.444 161.636 253.608 162.188 253.608 162.821C253.608 163.212 253.526 163.602 253.364 163.989C253.202 164.374 252.91 164.8 252.489 165.267C252.068 165.734 251.47 166.291 250.694 166.938L249.74 167.733V167.793H253.717V170H245.902ZM259.029 170.139C258.247 170.139 257.553 170.002 256.946 169.727C256.343 169.448 255.867 169.065 255.519 168.578C255.175 168.091 254.999 167.531 254.992 166.898H257.677C257.687 167.249 257.823 167.529 258.085 167.738C258.35 167.947 258.665 168.051 259.029 168.051C259.311 168.051 259.56 167.991 259.775 167.872C259.99 167.75 260.159 167.577 260.282 167.355C260.405 167.133 260.464 166.875 260.461 166.58C260.464 166.281 260.405 166.023 260.282 165.804C260.159 165.582 259.99 165.411 259.775 165.292C259.56 165.169 259.311 165.108 259.029 165.108C258.738 165.108 258.467 165.179 258.219 165.322C257.974 165.461 257.793 165.655 257.677 165.903L255.251 165.426L255.649 159.818H262.489V162.026H257.916L257.717 164.273H257.776C257.935 163.964 258.211 163.709 258.602 163.507C258.993 163.302 259.447 163.199 259.964 163.199C260.57 163.199 261.111 163.34 261.585 163.621C262.062 163.903 262.438 164.293 262.713 164.79C262.992 165.284 263.129 165.854 263.126 166.5C263.129 167.209 262.96 167.839 262.619 168.389C262.281 168.936 261.805 169.365 261.192 169.677C260.579 169.985 259.858 170.139 259.029 170.139Z" fill="#3B3636"/>
<rect x="86" width="217" height="40" rx="20" fill="#9A2B2B"/>
<path d="M110.938 27V12.4545H117.244C118.352 12.4545 119.283 12.6037 120.036 12.902C120.793 13.2003 121.364 13.6217 121.747 14.1662C122.135 14.7107 122.33 15.3523 122.33 16.0909C122.33 16.6259 122.211 17.1136 121.974 17.554C121.742 17.9943 121.416 18.3636 120.994 18.6619C120.573 18.9555 120.08 19.1591 119.517 19.2727V19.4148C120.142 19.4384 120.71 19.5971 121.222 19.8906C121.733 20.1795 122.14 20.5795 122.443 21.0909C122.746 21.5975 122.898 22.1941 122.898 22.8807C122.898 23.6761 122.689 24.384 122.273 25.0043C121.861 25.6245 121.274 26.1122 120.511 26.4673C119.749 26.8224 118.84 27 117.784 27H110.938ZM114.886 23.8466H116.733C117.396 23.8466 117.893 23.7235 118.224 23.4773C118.556 23.2263 118.722 22.857 118.722 22.3693C118.722 22.0284 118.643 21.7396 118.487 21.5028C118.331 21.2661 118.108 21.0862 117.82 20.9631C117.536 20.84 117.192 20.7784 116.79 20.7784H114.886V23.8466ZM114.886 18.3352H116.506C116.851 18.3352 117.157 18.2808 117.422 18.1719C117.687 18.063 117.893 17.9067 118.04 17.7031C118.191 17.4948 118.267 17.2415 118.267 16.9432C118.267 16.4934 118.106 16.1501 117.784 15.9134C117.462 15.6719 117.055 15.5511 116.562 15.5511H114.886V18.3352ZM128.075 27H123.814L128.615 12.4545H134.013L138.814 27H134.553L131.371 16.4602H131.257L128.075 27ZM127.28 21.2614H135.291V24.2159H127.28V21.2614ZM140.215 27V12.4545H144.164V23.8182H150.044V27H140.215ZM155.589 12.4545V27H151.641V12.4545H155.589ZM161.325 25.0114L161.268 25.8068C161.22 26.4886 161.107 27.142 160.927 27.767C160.752 28.392 160.565 28.946 160.366 29.429C160.172 29.9119 160.018 30.286 159.904 30.5511H157.489C157.565 30.286 157.672 29.9025 157.809 29.4006C157.951 28.9034 158.079 28.34 158.192 27.7102C158.311 27.0852 158.37 26.4508 158.37 25.8068V25.0114H161.325ZM170.629 12.4545V27H166.68V12.4545H170.629ZM185.085 12.4545V27H181.79L176.534 19.358H176.449V27H172.5V12.4545H175.852L181.023 20.0682H181.136V12.4545H185.085ZM192.55 27H186.953V12.4545H192.493C193.989 12.4545 195.282 12.7457 196.371 13.3281C197.464 13.9058 198.307 14.7391 198.899 15.8281C199.496 16.9124 199.794 18.2121 199.794 19.7273C199.794 21.2424 199.498 22.5445 198.906 23.6335C198.314 24.7178 197.476 25.5511 196.392 26.1335C195.308 26.7112 194.027 27 192.55 27ZM190.902 23.6477H192.408C193.127 23.6477 193.741 23.5317 194.247 23.2997C194.759 23.0677 195.147 22.6676 195.412 22.0994C195.682 21.5312 195.817 20.7405 195.817 19.7273C195.817 18.714 195.679 17.9233 195.405 17.3551C195.135 16.7869 194.737 16.3868 194.212 16.1548C193.691 15.9228 193.052 15.8068 192.294 15.8068H190.902V23.6477ZM215.712 19.7273C215.712 21.3466 215.397 22.7126 214.767 23.8253C214.138 24.9332 213.288 25.7737 212.218 26.3466C211.148 26.9148 209.954 27.1989 208.638 27.1989C207.312 27.1989 206.114 26.9124 205.044 26.3395C203.979 25.7618 203.132 24.919 202.502 23.8111C201.877 22.6984 201.564 21.3371 201.564 19.7273C201.564 18.108 201.877 16.7443 202.502 15.6364C203.132 14.5237 203.979 13.6832 205.044 13.1151C206.114 12.5421 207.312 12.2557 208.638 12.2557C209.954 12.2557 211.148 12.5421 212.218 13.1151C213.288 13.6832 214.138 14.5237 214.767 15.6364C215.397 16.7443 215.712 18.108 215.712 19.7273ZM211.65 19.7273C211.65 18.8561 211.533 18.1222 211.301 17.5256C211.074 16.9242 210.736 16.4697 210.286 16.1619C209.841 15.8494 209.292 15.6932 208.638 15.6932C207.985 15.6932 207.433 15.8494 206.983 16.1619C206.538 16.4697 206.2 16.9242 205.968 17.5256C205.74 18.1222 205.627 18.8561 205.627 19.7273C205.627 20.5985 205.74 21.3348 205.968 21.9361C206.2 22.5327 206.538 22.9872 206.983 23.2997C207.433 23.6075 207.985 23.7614 208.638 23.7614C209.292 23.7614 209.841 23.6075 210.286 23.2997C210.736 22.9872 211.074 22.5327 211.301 21.9361C211.533 21.3348 211.65 20.5985 211.65 19.7273ZM230.124 12.4545V27H226.829L221.573 19.358H221.488V27H217.539V12.4545H220.891L226.062 20.0682H226.175V12.4545H230.124ZM231.992 27V12.4545H242.475V15.6364H235.941V18.1364H241.935V21.3182H235.941V23.8182H242.447V27H231.992ZM252.275 17C252.237 16.5265 252.059 16.1572 251.742 15.892C251.429 15.6269 250.953 15.4943 250.314 15.4943C249.907 15.4943 249.573 15.544 249.313 15.6435C249.057 15.7382 248.868 15.8684 248.745 16.0341C248.622 16.1998 248.558 16.3892 248.553 16.6023C248.543 16.7775 248.574 16.9361 248.645 17.0781C248.721 17.2154 248.839 17.3409 249 17.4545C249.161 17.5634 249.367 17.6629 249.618 17.7528C249.869 17.8428 250.167 17.9233 250.513 17.9943L251.706 18.25C252.511 18.4205 253.2 18.6454 253.773 18.9247C254.346 19.2041 254.815 19.5331 255.179 19.9119C255.544 20.286 255.811 20.7074 255.982 21.1761C256.157 21.6449 256.247 22.1562 256.252 22.7102C256.247 23.6667 256.008 24.4763 255.534 25.1392C255.061 25.8021 254.384 26.3063 253.503 26.652C252.627 26.9976 251.574 27.1705 250.343 27.1705C249.078 27.1705 247.975 26.9834 247.033 26.6094C246.096 26.2353 245.366 25.66 244.846 24.8835C244.329 24.1023 244.069 23.1032 244.064 21.8864H247.814C247.838 22.3314 247.949 22.7055 248.148 23.0085C248.347 23.3116 248.626 23.5412 248.986 23.6974C249.351 23.8537 249.784 23.9318 250.286 23.9318C250.707 23.9318 251.06 23.8797 251.344 23.7756C251.628 23.6714 251.844 23.527 251.99 23.3423C252.137 23.1577 252.213 22.947 252.218 22.7102C252.213 22.4877 252.14 22.2936 251.998 22.1278C251.86 21.9574 251.633 21.8059 251.316 21.6733C250.998 21.536 250.57 21.4081 250.03 21.2898L248.581 20.9773C247.293 20.6979 246.278 20.2315 245.534 19.5781C244.796 18.92 244.429 18.0227 244.434 16.8864C244.429 15.9631 244.675 15.1558 245.172 14.4645C245.674 13.7685 246.368 13.2263 247.253 12.8381C248.143 12.4498 249.164 12.2557 250.314 12.2557C251.489 12.2557 252.504 12.4522 253.361 12.8452C254.218 13.2382 254.879 13.7921 255.343 14.5071C255.811 15.2173 256.048 16.0483 256.053 17H252.275ZM261.703 12.4545V27H257.754V12.4545H261.703ZM267.353 27H263.091L267.892 12.4545H273.29L278.091 27H273.83L270.648 16.4602H270.534L267.353 27ZM266.557 21.2614H274.569V24.2159H266.557V21.2614Z" fill="white"/>
</svg>
