<svg width="392" height="231" viewBox="0 0 392 231" fill="none" xmlns="http://www.w3.org/2000/svg">
<rect x="-2.5" y="2.5" width="387" height="209" rx="17.5" transform="matrix(-1 0 0 1 387 17)" fill="#EEEDE2" stroke="#FFAA09" stroke-width="5"/>
<path d="M137.695 110.5C137.664 110.121 137.522 109.826 137.268 109.614C137.018 109.402 136.638 109.295 136.126 109.295C135.801 109.295 135.534 109.335 135.325 109.415C135.121 109.491 134.969 109.595 134.871 109.727C134.772 109.86 134.721 110.011 134.717 110.182C134.71 110.322 134.734 110.449 134.791 110.562C134.852 110.672 134.946 110.773 135.075 110.864C135.204 110.951 135.369 111.03 135.57 111.102C135.77 111.174 136.009 111.239 136.286 111.295L137.24 111.5C137.884 111.636 138.435 111.816 138.893 112.04C139.352 112.263 139.727 112.527 140.018 112.83C140.31 113.129 140.524 113.466 140.661 113.841C140.801 114.216 140.873 114.625 140.876 115.068C140.873 115.833 140.681 116.481 140.303 117.011C139.924 117.542 139.382 117.945 138.678 118.222C137.977 118.498 137.134 118.636 136.149 118.636C135.138 118.636 134.255 118.487 133.501 118.188C132.751 117.888 132.168 117.428 131.751 116.807C131.339 116.182 131.13 115.383 131.126 114.409H134.126C134.145 114.765 134.234 115.064 134.393 115.307C134.553 115.549 134.776 115.733 135.064 115.858C135.356 115.983 135.702 116.045 136.104 116.045C136.441 116.045 136.723 116.004 136.95 115.92C137.178 115.837 137.35 115.722 137.467 115.574C137.585 115.426 137.645 115.258 137.649 115.068C137.645 114.89 137.587 114.735 137.473 114.602C137.363 114.466 137.181 114.345 136.928 114.239C136.674 114.129 136.331 114.027 135.899 113.932L134.74 113.682C133.71 113.458 132.897 113.085 132.303 112.562C131.712 112.036 131.418 111.318 131.422 110.409C131.418 109.67 131.615 109.025 132.013 108.472C132.414 107.915 132.969 107.481 133.678 107.17C134.39 106.86 135.206 106.705 136.126 106.705C137.066 106.705 137.878 106.862 138.564 107.176C139.25 107.491 139.778 107.934 140.149 108.506C140.524 109.074 140.714 109.739 140.717 110.5H137.695ZM142.078 118.5V106.864H150.464V109.409H145.237V111.409H150.033V113.955H145.237V115.955H150.442V118.5H142.078ZM152.031 118.5V106.864H157.054C157.918 106.864 158.673 107.034 159.321 107.375C159.969 107.716 160.473 108.195 160.832 108.812C161.192 109.43 161.372 110.152 161.372 110.977C161.372 111.811 161.187 112.532 160.815 113.142C160.448 113.752 159.931 114.222 159.264 114.551C158.601 114.881 157.827 115.045 156.94 115.045H153.94V112.591H156.304C156.675 112.591 156.991 112.527 157.253 112.398C157.518 112.265 157.721 112.078 157.861 111.835C158.005 111.593 158.077 111.307 158.077 110.977C158.077 110.644 158.005 110.36 157.861 110.125C157.721 109.886 157.518 109.705 157.253 109.58C156.991 109.451 156.675 109.386 156.304 109.386H155.19V118.5H152.031ZM165.741 118.5V116.227L170.082 112.636C170.37 112.398 170.616 112.174 170.821 111.966C171.029 111.754 171.188 111.536 171.298 111.312C171.412 111.089 171.469 110.841 171.469 110.568C171.469 110.269 171.404 110.013 171.276 109.801C171.151 109.589 170.976 109.426 170.753 109.312C170.529 109.195 170.272 109.136 169.98 109.136C169.688 109.136 169.431 109.195 169.207 109.312C168.988 109.43 168.817 109.602 168.696 109.83C168.575 110.057 168.514 110.333 168.514 110.659H165.514C165.514 109.841 165.698 109.136 166.065 108.545C166.433 107.955 166.952 107.5 167.622 107.182C168.293 106.864 169.079 106.705 169.98 106.705C170.912 106.705 171.719 106.854 172.401 107.153C173.086 107.449 173.615 107.866 173.986 108.403C174.361 108.941 174.548 109.572 174.548 110.295C174.548 110.742 174.455 111.187 174.27 111.631C174.084 112.07 173.751 112.557 173.27 113.091C172.789 113.625 172.105 114.261 171.219 115L170.128 115.909V115.977H174.673V118.5H165.741ZM176.085 118.5V116.227L180.426 112.636C180.714 112.398 180.96 112.174 181.165 111.966C181.373 111.754 181.532 111.536 181.642 111.312C181.756 111.089 181.812 110.841 181.812 110.568C181.812 110.269 181.748 110.013 181.619 109.801C181.494 109.589 181.32 109.426 181.097 109.312C180.873 109.195 180.616 109.136 180.324 109.136C180.032 109.136 179.775 109.195 179.551 109.312C179.331 109.43 179.161 109.602 179.04 109.83C178.919 110.057 178.858 110.333 178.858 110.659H175.858C175.858 109.841 176.042 109.136 176.409 108.545C176.777 107.955 177.295 107.5 177.966 107.182C178.636 106.864 179.422 106.705 180.324 106.705C181.256 106.705 182.063 106.854 182.744 107.153C183.43 107.449 183.958 107.866 184.33 108.403C184.705 108.941 184.892 109.572 184.892 110.295C184.892 110.742 184.799 111.187 184.614 111.631C184.428 112.07 184.095 112.557 183.614 113.091C183.133 113.625 182.449 114.261 181.562 115L180.472 115.909V115.977H185.017V118.5H176.085ZM196.474 106.864V118.5H193.838L189.634 112.386H189.565V118.5H186.406V106.864H189.088L193.224 112.955H193.315V106.864H196.474ZM202.446 118.5H197.969V106.864H202.401C203.598 106.864 204.632 107.097 205.503 107.562C206.378 108.025 207.052 108.691 207.526 109.562C208.003 110.43 208.241 111.47 208.241 112.682C208.241 113.894 208.005 114.936 207.531 115.807C207.058 116.674 206.387 117.341 205.52 117.807C204.652 118.269 203.628 118.5 202.446 118.5ZM201.128 115.818H202.332C202.908 115.818 203.399 115.725 203.804 115.54C204.213 115.354 204.524 115.034 204.736 114.58C204.952 114.125 205.06 113.492 205.06 112.682C205.06 111.871 204.95 111.239 204.73 110.784C204.514 110.33 204.196 110.009 203.776 109.824C203.359 109.638 202.848 109.545 202.241 109.545H201.128V115.818ZM216.953 111.5V113.864H208.953V111.5H216.953ZM217.726 118.5V116.227L222.067 112.636C222.355 112.398 222.601 112.174 222.805 111.966C223.014 111.754 223.173 111.536 223.283 111.312C223.396 111.089 223.453 110.841 223.453 110.568C223.453 110.269 223.389 110.013 223.26 109.801C223.135 109.589 222.961 109.426 222.737 109.312C222.514 109.195 222.256 109.136 221.964 109.136C221.673 109.136 221.415 109.195 221.192 109.312C220.972 109.43 220.802 109.602 220.68 109.83C220.559 110.057 220.499 110.333 220.499 110.659H217.499C217.499 109.841 217.682 109.136 218.05 108.545C218.417 107.955 218.936 107.5 219.607 107.182C220.277 106.864 221.063 106.705 221.964 106.705C222.896 106.705 223.703 106.854 224.385 107.153C225.071 107.449 225.599 107.866 225.97 108.403C226.345 108.941 226.533 109.572 226.533 110.295C226.533 110.742 226.44 111.187 226.254 111.631C226.069 112.07 225.735 112.557 225.254 113.091C224.773 113.625 224.089 114.261 223.203 115L222.112 115.909V115.977H226.658V118.5H217.726ZM232.82 118.659C231.88 118.659 231.041 118.513 230.303 118.222C229.568 117.93 228.988 117.534 228.564 117.034C228.143 116.534 227.933 115.97 227.933 115.341C227.933 114.86 228.053 114.42 228.291 114.023C228.534 113.625 228.859 113.295 229.268 113.034C229.678 112.769 230.134 112.598 230.638 112.523V112.432C229.975 112.318 229.429 112.025 229.001 111.551C228.577 111.074 228.365 110.511 228.365 109.864C228.365 109.254 228.558 108.712 228.945 108.239C229.331 107.761 229.859 107.386 230.53 107.114C231.2 106.841 231.964 106.705 232.82 106.705C233.676 106.705 234.439 106.843 235.109 107.119C235.78 107.392 236.308 107.767 236.695 108.244C237.081 108.718 237.274 109.258 237.274 109.864C237.274 110.515 237.058 111.078 236.626 111.551C236.195 112.025 235.653 112.318 235.001 112.432V112.523C235.501 112.598 235.956 112.769 236.365 113.034C236.774 113.295 237.1 113.625 237.342 114.023C237.585 114.42 237.706 114.86 237.706 115.341C237.706 115.97 237.494 116.534 237.07 117.034C236.649 117.534 236.07 117.93 235.331 118.222C234.596 118.513 233.759 118.659 232.82 118.659ZM232.82 116.477C233.119 116.477 233.384 116.417 233.615 116.295C233.846 116.174 234.028 116.008 234.161 115.795C234.297 115.58 234.365 115.337 234.365 115.068C234.365 114.799 234.297 114.561 234.161 114.352C234.028 114.144 233.846 113.981 233.615 113.864C233.384 113.742 233.119 113.682 232.82 113.682C232.524 113.682 232.259 113.742 232.024 113.864C231.793 113.981 231.609 114.144 231.473 114.352C231.34 114.561 231.274 114.799 231.274 115.068C231.274 115.337 231.34 115.578 231.473 115.79C231.609 116.002 231.793 116.17 232.024 116.295C232.259 116.417 232.524 116.477 232.82 116.477ZM232.82 111.5C233.085 111.5 233.32 111.445 233.524 111.335C233.729 111.225 233.89 111.074 234.007 110.881C234.125 110.687 234.183 110.47 234.183 110.227C234.183 109.985 234.125 109.771 234.007 109.585C233.89 109.396 233.729 109.248 233.524 109.142C233.32 109.032 233.085 108.977 232.82 108.977C232.558 108.977 232.323 109.032 232.115 109.142C231.911 109.248 231.75 109.396 231.632 109.585C231.515 109.771 231.456 109.985 231.456 110.227C231.456 110.47 231.515 110.687 231.632 110.881C231.75 111.07 231.911 111.222 232.115 111.335C232.323 111.445 232.558 111.5 232.82 111.5ZM238.776 109.409V106.864H248.889V109.409H245.389V118.5H242.276V109.409H238.776ZM250.078 118.5V106.864H253.237V111.409H257.419V106.864H260.578V118.5H257.419V113.955H253.237V118.5H250.078Z" fill="#9A2B2B"/>
<path d="M117.906 134.5C117.879 134.169 117.755 133.91 117.533 133.724C117.314 133.539 116.981 133.446 116.533 133.446C116.248 133.446 116.015 133.481 115.832 133.55C115.653 133.617 115.521 133.708 115.435 133.824C115.349 133.94 115.304 134.072 115.301 134.222C115.294 134.344 115.315 134.455 115.365 134.555C115.418 134.651 115.501 134.739 115.614 134.818C115.726 134.894 115.871 134.964 116.046 135.027C116.222 135.09 116.431 135.146 116.673 135.196L117.508 135.375C118.071 135.494 118.554 135.652 118.955 135.847C119.356 136.043 119.684 136.273 119.939 136.538C120.194 136.8 120.381 137.095 120.501 137.423C120.623 137.751 120.686 138.109 120.69 138.497C120.686 139.167 120.519 139.733 120.188 140.197C119.856 140.661 119.382 141.014 118.766 141.256C118.153 141.498 117.415 141.619 116.553 141.619C115.668 141.619 114.896 141.488 114.237 141.227C113.58 140.965 113.07 140.562 112.705 140.018C112.344 139.472 112.162 138.772 112.158 137.92H114.783C114.8 138.232 114.878 138.494 115.017 138.706C115.156 138.918 115.352 139.079 115.604 139.188C115.859 139.298 116.162 139.352 116.514 139.352C116.809 139.352 117.055 139.316 117.254 139.243C117.453 139.17 117.604 139.069 117.707 138.94C117.81 138.81 117.863 138.663 117.866 138.497C117.863 138.341 117.811 138.205 117.712 138.089C117.616 137.97 117.457 137.864 117.234 137.771C117.012 137.675 116.712 137.586 116.335 137.503L115.32 137.284C114.419 137.089 113.708 136.762 113.188 136.305C112.671 135.844 112.414 135.216 112.417 134.42C112.414 133.774 112.586 133.209 112.934 132.725C113.285 132.238 113.771 131.858 114.391 131.587C115.014 131.315 115.728 131.179 116.533 131.179C117.355 131.179 118.066 131.317 118.666 131.592C119.266 131.867 119.729 132.254 120.053 132.755C120.381 133.252 120.547 133.834 120.551 134.5H117.906ZM126.335 133.864V135.852H121.304V133.864H126.335ZM122.278 132.034H125.022V139.044C125.022 139.15 125.041 139.24 125.077 139.312C125.114 139.382 125.17 139.435 125.246 139.472C125.322 139.505 125.42 139.521 125.54 139.521C125.622 139.521 125.718 139.511 125.828 139.491C125.941 139.472 126.023 139.455 126.076 139.442L126.474 141.371C126.352 141.407 126.176 141.452 125.947 141.505C125.722 141.558 125.453 141.593 125.142 141.609C124.512 141.643 123.983 141.578 123.556 141.415C123.128 141.25 122.807 140.99 122.591 140.635C122.376 140.28 122.272 139.836 122.278 139.303V132.034ZM129.583 141.619C129.095 141.619 128.665 141.54 128.29 141.381C127.919 141.218 127.627 140.973 127.415 140.645C127.203 140.317 127.097 139.899 127.097 139.392C127.097 138.974 127.168 138.618 127.311 138.323C127.453 138.025 127.652 137.781 127.907 137.592C128.162 137.403 128.459 137.259 128.797 137.16C129.139 137.06 129.506 136.996 129.901 136.966C130.328 136.933 130.671 136.893 130.93 136.847C131.192 136.797 131.381 136.729 131.497 136.643C131.613 136.553 131.671 136.436 131.671 136.29V136.27C131.671 136.071 131.594 135.919 131.442 135.812C131.29 135.706 131.094 135.653 130.855 135.653C130.594 135.653 130.38 135.711 130.214 135.827C130.052 135.94 129.954 136.114 129.921 136.349H127.395C127.428 135.885 127.576 135.458 127.838 135.067C128.103 134.672 128.489 134.357 128.996 134.122C129.503 133.884 130.136 133.764 130.895 133.764C131.442 133.764 131.933 133.829 132.367 133.958C132.801 134.084 133.17 134.261 133.475 134.49C133.78 134.715 134.012 134.981 134.171 135.286C134.334 135.587 134.415 135.915 134.415 136.27V141.5H131.85V140.426H131.79C131.638 140.711 131.452 140.942 131.233 141.117C131.018 141.293 130.771 141.42 130.492 141.5C130.217 141.58 129.914 141.619 129.583 141.619ZM130.478 139.889C130.686 139.889 130.882 139.846 131.064 139.76C131.25 139.674 131.401 139.549 131.517 139.387C131.633 139.225 131.691 139.027 131.691 138.795V138.159C131.618 138.189 131.54 138.217 131.457 138.244C131.377 138.27 131.291 138.295 131.198 138.318C131.109 138.341 131.013 138.363 130.91 138.383C130.811 138.403 130.706 138.421 130.597 138.438C130.385 138.471 130.211 138.525 130.075 138.602C129.942 138.674 129.843 138.766 129.777 138.875C129.714 138.981 129.682 139.1 129.682 139.233C129.682 139.445 129.757 139.607 129.906 139.72C130.055 139.833 130.246 139.889 130.478 139.889ZM135.726 141.5V133.864H138.391V135.315H138.471C138.61 134.778 138.83 134.386 139.132 134.137C139.437 133.888 139.793 133.764 140.201 133.764C140.32 133.764 140.438 133.774 140.554 133.794C140.673 133.811 140.787 133.835 140.897 133.869V136.21C140.761 136.164 140.593 136.129 140.395 136.106C140.196 136.083 140.025 136.071 139.883 136.071C139.614 136.071 139.372 136.132 139.157 136.255C138.945 136.374 138.777 136.543 138.655 136.762C138.532 136.978 138.471 137.231 138.471 137.523V141.5H135.726ZM146.665 133.864V135.852H141.634V133.864H146.665ZM142.608 132.034H145.353V139.044C145.353 139.15 145.371 139.24 145.407 139.312C145.444 139.382 145.5 139.435 145.576 139.472C145.652 139.505 145.75 139.521 145.87 139.521C145.952 139.521 146.049 139.511 146.158 139.491C146.271 139.472 146.353 139.455 146.407 139.442L146.804 141.371C146.682 141.407 146.506 141.452 146.277 141.505C146.052 141.558 145.783 141.593 145.472 141.609C144.842 141.643 144.313 141.578 143.886 141.415C143.458 141.25 143.137 140.99 142.921 140.635C142.706 140.28 142.602 139.836 142.608 139.303V132.034ZM152.737 138.159V133.864H155.481V141.5H152.876V140.048H152.796C152.631 140.536 152.341 140.917 151.926 141.192C151.512 141.464 151.02 141.599 150.45 141.599C149.916 141.599 149.449 141.477 149.048 141.232C148.65 140.986 148.34 140.648 148.118 140.217C147.899 139.786 147.788 139.293 147.785 138.736V133.864H150.529V138.159C150.533 138.537 150.629 138.834 150.818 139.049C151.01 139.264 151.278 139.372 151.623 139.372C151.852 139.372 152.049 139.324 152.215 139.228C152.384 139.129 152.513 138.989 152.602 138.81C152.695 138.628 152.74 138.411 152.737 138.159ZM156.877 144.364V133.864H159.601V135.196H159.661C159.76 134.937 159.906 134.701 160.098 134.485C160.291 134.266 160.529 134.092 160.814 133.963C161.099 133.83 161.431 133.764 161.809 133.764C162.312 133.764 162.791 133.898 163.245 134.167C163.703 134.435 164.074 134.858 164.359 135.435C164.647 136.011 164.791 136.76 164.791 137.682C164.791 138.563 164.654 139.294 164.379 139.874C164.107 140.454 163.742 140.887 163.285 141.172C162.831 141.457 162.332 141.599 161.789 141.599C161.431 141.599 161.111 141.541 160.829 141.425C160.551 141.306 160.312 141.145 160.113 140.943C159.918 140.738 159.767 140.506 159.661 140.247H159.621V144.364H156.877ZM159.561 137.682C159.561 138.053 159.609 138.375 159.706 138.646C159.805 138.915 159.944 139.124 160.123 139.273C160.305 139.419 160.523 139.491 160.774 139.491C161.026 139.491 161.24 139.42 161.416 139.278C161.595 139.132 161.731 138.925 161.823 138.656C161.92 138.384 161.968 138.06 161.968 137.682C161.968 137.304 161.92 136.981 161.823 136.712C161.731 136.441 161.595 136.233 161.416 136.091C161.24 135.945 161.026 135.872 160.774 135.872C160.523 135.872 160.305 135.945 160.123 136.091C159.944 136.233 159.805 136.441 159.706 136.712C159.609 136.981 159.561 137.304 159.561 137.682ZM171.475 131.318L173.563 138.497H173.642L175.73 131.318H178.852L175.492 141.5H171.713L168.352 131.318H171.475ZM179.873 141.5V133.864H182.617V141.5H179.873ZM181.245 133.068C180.874 133.068 180.556 132.946 180.29 132.7C180.025 132.455 179.893 132.16 179.893 131.815C179.893 131.471 180.025 131.176 180.29 130.93C180.556 130.685 180.874 130.562 181.245 130.562C181.619 130.562 181.938 130.685 182.199 130.93C182.465 131.176 182.597 131.471 182.597 131.815C182.597 132.16 182.465 132.455 182.199 132.7C181.938 132.946 181.619 133.068 181.245 133.068ZM186.76 131.318V141.5H184.015V131.318H186.76ZM190.902 131.318V141.5H188.158V131.318H190.902ZM194.428 141.619C193.941 141.619 193.51 141.54 193.136 141.381C192.765 141.218 192.473 140.973 192.261 140.645C192.049 140.317 191.943 139.899 191.943 139.392C191.943 138.974 192.014 138.618 192.156 138.323C192.299 138.025 192.498 137.781 192.753 137.592C193.008 137.403 193.305 137.259 193.643 137.16C193.984 137.06 194.352 136.996 194.747 136.966C195.174 136.933 195.517 136.893 195.776 136.847C196.037 136.797 196.226 136.729 196.342 136.643C196.458 136.553 196.516 136.436 196.516 136.29V136.27C196.516 136.071 196.44 135.919 196.288 135.812C196.135 135.706 195.94 135.653 195.701 135.653C195.439 135.653 195.225 135.711 195.06 135.827C194.897 135.94 194.8 136.114 194.766 136.349H192.241C192.274 135.885 192.421 135.458 192.683 135.067C192.948 134.672 193.335 134.357 193.842 134.122C194.349 133.884 194.982 133.764 195.741 133.764C196.288 133.764 196.778 133.829 197.212 133.958C197.647 134.084 198.016 134.261 198.321 134.49C198.626 134.715 198.858 134.981 199.017 135.286C199.18 135.587 199.261 135.915 199.261 136.27V141.5H196.695V140.426H196.636C196.483 140.711 196.298 140.942 196.079 141.117C195.863 141.293 195.617 141.42 195.338 141.5C195.063 141.58 194.76 141.619 194.428 141.619ZM195.323 139.889C195.532 139.889 195.728 139.846 195.91 139.76C196.095 139.674 196.246 139.549 196.362 139.387C196.478 139.225 196.536 139.027 196.536 138.795V138.159C196.463 138.189 196.386 138.217 196.303 138.244C196.223 138.27 196.137 138.295 196.044 138.318C195.955 138.341 195.859 138.363 195.756 138.383C195.656 138.403 195.552 138.421 195.443 138.438C195.23 138.471 195.056 138.525 194.921 138.602C194.788 138.674 194.689 138.766 194.622 138.875C194.559 138.981 194.528 139.1 194.528 139.233C194.528 139.445 194.602 139.607 194.752 139.72C194.901 139.833 195.091 139.889 195.323 139.889ZM204.251 144.523C203.485 144.523 202.829 144.413 202.282 144.195C201.739 143.979 201.316 143.681 201.014 143.3C200.716 142.922 200.549 142.488 200.512 141.997H203.157C203.184 142.16 203.25 142.29 203.356 142.39C203.462 142.489 203.598 142.561 203.764 142.604C203.933 142.65 204.122 142.673 204.331 142.673C204.685 142.673 204.978 142.587 205.21 142.415C205.446 142.242 205.563 141.931 205.563 141.48V140.188H205.484C205.384 140.446 205.232 140.666 205.027 140.849C204.821 141.028 204.574 141.165 204.286 141.261C203.997 141.354 203.681 141.401 203.336 141.401C202.793 141.401 202.292 141.275 201.835 141.023C201.381 140.771 201.016 140.371 200.741 139.825C200.469 139.278 200.333 138.563 200.333 137.682C200.333 136.76 200.476 136.011 200.761 135.435C201.049 134.858 201.42 134.435 201.875 134.167C202.332 133.898 202.813 133.764 203.316 133.764C203.694 133.764 204.026 133.83 204.311 133.963C204.596 134.092 204.834 134.266 205.027 134.485C205.219 134.701 205.365 134.937 205.464 135.196H205.524V133.864H208.268V141.48C208.268 142.126 208.101 142.675 207.766 143.126C207.434 143.58 206.967 143.926 206.364 144.165C205.761 144.403 205.056 144.523 204.251 144.523ZM204.35 139.452C204.602 139.452 204.818 139.382 204.997 139.243C205.179 139.1 205.318 138.898 205.414 138.636C205.514 138.371 205.563 138.053 205.563 137.682C205.563 137.304 205.514 136.981 205.414 136.712C205.318 136.441 205.179 136.233 204.997 136.091C204.818 135.945 204.602 135.872 204.35 135.872C204.099 135.872 203.883 135.945 203.704 136.091C203.528 136.233 203.393 136.441 203.296 136.712C203.204 136.981 203.157 137.304 203.157 137.682C203.157 138.06 203.204 138.381 203.296 138.646C203.393 138.908 203.528 139.109 203.704 139.248C203.883 139.384 204.099 139.452 204.35 139.452ZM213.323 141.639C212.508 141.639 211.805 141.483 211.215 141.172C210.628 140.857 210.176 140.406 209.858 139.82C209.543 139.23 209.385 138.524 209.385 137.702C209.385 136.913 209.544 136.223 209.863 135.634C210.181 135.044 210.63 134.585 211.21 134.256C211.79 133.928 212.474 133.764 213.263 133.764C213.84 133.764 214.362 133.854 214.829 134.033C215.297 134.212 215.696 134.472 216.027 134.813C216.359 135.151 216.614 135.562 216.793 136.046C216.972 136.53 217.062 137.075 217.062 137.682V138.318H210.241V136.807H214.536C214.533 136.588 214.476 136.396 214.367 136.23C214.261 136.061 214.117 135.93 213.934 135.837C213.755 135.741 213.552 135.693 213.323 135.693C213.101 135.693 212.897 135.741 212.711 135.837C212.526 135.93 212.377 136.059 212.264 136.225C212.155 136.391 212.097 136.585 212.09 136.807V138.438C212.09 138.683 212.141 138.902 212.244 139.094C212.347 139.286 212.494 139.437 212.687 139.546C212.879 139.656 213.111 139.71 213.383 139.71C213.571 139.71 213.744 139.684 213.9 139.631C214.059 139.578 214.195 139.501 214.307 139.402C214.42 139.299 214.503 139.177 214.556 139.034H217.062C216.975 139.564 216.772 140.025 216.45 140.416C216.129 140.804 215.703 141.106 215.172 141.321C214.645 141.533 214.029 141.639 213.323 141.639ZM223.715 131.318L225.803 138.497H225.882L227.97 131.318H231.093L227.732 141.5H223.953L220.593 131.318H223.715ZM232.113 141.5V133.864H234.857V141.5H232.113ZM233.485 133.068C233.114 133.068 232.796 132.946 232.531 132.7C232.265 132.455 232.133 132.16 232.133 131.815C232.133 131.471 232.265 131.176 232.531 130.93C232.796 130.685 233.114 130.562 233.485 130.562C233.86 130.562 234.178 130.685 234.44 130.93C234.705 131.176 234.837 131.471 234.837 131.815C234.837 132.16 234.705 132.455 234.44 132.7C234.178 132.946 233.86 133.068 233.485 133.068ZM239.915 141.639C239.099 141.639 238.397 141.483 237.807 141.172C237.22 140.857 236.768 140.406 236.449 139.82C236.135 139.23 235.977 138.524 235.977 137.702C235.977 136.913 236.136 136.223 236.454 135.634C236.773 135.044 237.222 134.585 237.802 134.256C238.382 133.928 239.066 133.764 239.855 133.764C240.432 133.764 240.954 133.854 241.421 134.033C241.888 134.212 242.288 134.472 242.619 134.813C242.951 135.151 243.206 135.562 243.385 136.046C243.564 136.53 243.653 137.075 243.653 137.682V138.318H236.832V136.807H241.128C241.124 136.588 241.068 136.396 240.959 136.23C240.853 136.061 240.708 135.93 240.526 135.837C240.347 135.741 240.143 135.693 239.915 135.693C239.693 135.693 239.489 135.741 239.303 135.837C239.118 135.93 238.968 136.059 238.856 136.225C238.746 136.391 238.688 136.585 238.682 136.807V138.438C238.682 138.683 238.733 138.902 238.836 139.094C238.939 139.286 239.086 139.437 239.278 139.546C239.471 139.656 239.703 139.71 239.974 139.71C240.163 139.71 240.336 139.684 240.491 139.631C240.65 139.578 240.786 139.501 240.899 139.402C241.012 139.299 241.095 139.177 241.148 139.034H243.653C243.567 139.564 243.363 140.025 243.042 140.416C242.72 140.804 242.294 141.106 241.764 141.321C241.237 141.533 240.621 141.639 239.915 141.639ZM249.327 133.864V135.852H244.296V133.864H249.327ZM245.27 132.034H248.015V139.044C248.015 139.15 248.033 139.24 248.069 139.312C248.106 139.382 248.162 139.435 248.238 139.472C248.315 139.505 248.412 139.521 248.532 139.521C248.615 139.521 248.711 139.511 248.82 139.491C248.933 139.472 249.016 139.455 249.069 139.442L249.466 141.371C249.344 141.407 249.168 141.452 248.939 141.505C248.714 141.558 248.446 141.593 248.134 141.609C247.504 141.643 246.976 141.578 246.548 141.415C246.12 141.25 245.799 140.99 245.584 140.635C245.368 140.28 245.264 139.836 245.27 139.303V132.034ZM253.191 137.205V141.5H250.447V133.864H253.052V135.315H253.132C253.297 134.831 253.589 134.452 254.007 134.177C254.428 133.902 254.918 133.764 255.478 133.764C256.018 133.764 256.487 133.888 256.885 134.137C257.286 134.382 257.596 134.72 257.815 135.151C258.037 135.582 258.146 136.074 258.143 136.628V141.5H255.399V137.205C255.402 136.827 255.306 136.53 255.11 136.315C254.918 136.099 254.65 135.991 254.305 135.991C254.08 135.991 253.882 136.041 253.713 136.141C253.548 136.237 253.42 136.376 253.331 136.558C253.241 136.737 253.195 136.953 253.191 137.205ZM261.626 141.619C261.138 141.619 260.708 141.54 260.333 141.381C259.962 141.218 259.67 140.973 259.458 140.645C259.246 140.317 259.14 139.899 259.14 139.392C259.14 138.974 259.211 138.618 259.354 138.323C259.496 138.025 259.695 137.781 259.95 137.592C260.205 137.403 260.502 137.259 260.84 137.16C261.181 137.06 261.549 136.996 261.944 136.966C262.371 136.933 262.714 136.893 262.973 136.847C263.235 136.797 263.424 136.729 263.54 136.643C263.656 136.553 263.714 136.436 263.714 136.29V136.27C263.714 136.071 263.637 135.919 263.485 135.812C263.333 135.706 263.137 135.653 262.898 135.653C262.637 135.653 262.423 135.711 262.257 135.827C262.095 135.94 261.997 136.114 261.964 136.349H259.438C259.471 135.885 259.619 135.458 259.881 135.067C260.146 134.672 260.532 134.357 261.039 134.122C261.546 133.884 262.179 133.764 262.938 133.764C263.485 133.764 263.976 133.829 264.41 133.958C264.844 134.084 265.213 134.261 265.518 134.49C265.823 134.715 266.055 134.981 266.214 135.286C266.377 135.587 266.458 135.915 266.458 136.27V141.5H263.893V140.426H263.833C263.681 140.711 263.495 140.942 263.276 141.117C263.061 141.293 262.814 141.42 262.535 141.5C262.26 141.58 261.957 141.619 261.626 141.619ZM262.521 139.889C262.729 139.889 262.925 139.846 263.107 139.76C263.293 139.674 263.444 139.549 263.56 139.387C263.676 139.225 263.734 139.027 263.734 138.795V138.159C263.661 138.189 263.583 138.217 263.5 138.244C263.42 138.27 263.334 138.295 263.241 138.318C263.152 138.341 263.056 138.363 262.953 138.383C262.854 138.403 262.749 138.421 262.64 138.438C262.428 138.471 262.254 138.525 262.118 138.602C261.985 138.674 261.886 138.766 261.82 138.875C261.757 138.981 261.725 139.1 261.725 139.233C261.725 139.445 261.8 139.607 261.949 139.72C262.098 139.833 262.289 139.889 262.521 139.889ZM267.769 141.5V133.864H270.374V135.315H270.454C270.613 134.838 270.885 134.46 271.269 134.182C271.654 133.903 272.111 133.764 272.641 133.764C273.178 133.764 273.641 133.907 274.028 134.192C274.416 134.473 274.65 134.848 274.729 135.315H274.809C274.938 134.848 275.213 134.473 275.634 134.192C276.055 133.907 276.549 133.764 277.116 133.764C277.848 133.764 278.442 134 278.896 134.47C279.353 134.941 279.582 135.567 279.582 136.349V141.5H276.837V137.045C276.837 136.711 276.753 136.449 276.584 136.26C276.415 136.068 276.188 135.972 275.903 135.972C275.621 135.972 275.397 136.068 275.232 136.26C275.069 136.449 274.988 136.711 274.988 137.045V141.5H272.363V137.045C272.363 136.711 272.278 136.449 272.109 136.26C271.94 136.068 271.713 135.972 271.428 135.972C271.239 135.972 271.077 136.015 270.941 136.101C270.805 136.187 270.699 136.311 270.623 136.474C270.55 136.633 270.514 136.823 270.514 137.045V141.5H267.769Z" fill="#3B3636"/>
<rect x="56.5" width="276" height="40" rx="20" fill="#9A2B2B"/>
<path d="M81.4375 27V12.4545H85.3864V18.1364H90.6136V12.4545H94.5625V27H90.6136V21.3182H85.3864V27H81.4375ZM110.528 19.7273C110.528 21.3466 110.214 22.7126 109.584 23.8253C108.954 24.9332 108.104 25.7737 107.034 26.3466C105.964 26.9148 104.771 27.1989 103.455 27.1989C102.129 27.1989 100.931 26.9124 99.8608 26.3395C98.7955 25.7618 97.9479 24.919 97.3182 23.8111C96.6932 22.6984 96.3807 21.3371 96.3807 19.7273C96.3807 18.108 96.6932 16.7443 97.3182 15.6364C97.9479 14.5237 98.7955 13.6832 99.8608 13.1151C100.931 12.5421 102.129 12.2557 103.455 12.2557C104.771 12.2557 105.964 12.5421 107.034 13.1151C108.104 13.6832 108.954 14.5237 109.584 15.6364C110.214 16.7443 110.528 18.108 110.528 19.7273ZM106.466 19.7273C106.466 18.8561 106.35 18.1222 106.118 17.5256C105.891 16.9242 105.552 16.4697 105.102 16.1619C104.657 15.8494 104.108 15.6932 103.455 15.6932C102.801 15.6932 102.25 15.8494 101.8 16.1619C101.355 16.4697 101.016 16.9242 100.784 17.5256C100.557 18.1222 100.443 18.8561 100.443 19.7273C100.443 20.5985 100.557 21.3348 100.784 21.9361C101.016 22.5327 101.355 22.9872 101.8 23.2997C102.25 23.6075 102.801 23.7614 103.455 23.7614C104.108 23.7614 104.657 23.6075 105.102 23.2997C105.552 22.9872 105.891 22.5327 106.118 21.9361C106.35 21.3348 106.466 20.5985 106.466 19.7273ZM125.935 17.9091H121.929C121.901 17.5777 121.825 17.277 121.702 17.0071C121.584 16.7372 121.418 16.5052 121.205 16.3111C120.997 16.1122 120.743 15.9607 120.445 15.8565C120.147 15.7476 119.808 15.6932 119.429 15.6932C118.766 15.6932 118.205 15.8542 117.746 16.1761C117.292 16.4981 116.946 16.9598 116.709 17.5611C116.477 18.1624 116.361 18.8845 116.361 19.7273C116.361 20.6174 116.48 21.3632 116.716 21.9645C116.958 22.5611 117.306 23.0109 117.76 23.3139C118.215 23.6122 118.762 23.7614 119.401 23.7614C119.766 23.7614 120.092 23.7164 120.381 23.6264C120.67 23.5317 120.921 23.3968 121.134 23.2216C121.347 23.0464 121.52 22.8357 121.652 22.5895C121.79 22.3385 121.882 22.0568 121.929 21.7443L125.935 21.7727C125.888 22.3883 125.715 23.0156 125.417 23.6548C125.118 24.2893 124.694 24.8764 124.145 25.4162C123.601 25.9512 122.926 26.3821 122.121 26.7088C121.316 27.0355 120.381 27.1989 119.316 27.1989C117.98 27.1989 116.783 26.9124 115.722 26.3395C114.666 25.7666 113.83 24.9238 113.215 23.8111C112.604 22.6984 112.299 21.3371 112.299 19.7273C112.299 18.108 112.611 16.7443 113.236 15.6364C113.861 14.5237 114.704 13.6832 115.765 13.1151C116.825 12.5421 118.009 12.2557 119.316 12.2557C120.234 12.2557 121.079 12.3812 121.851 12.6321C122.623 12.883 123.3 13.25 123.882 13.733C124.465 14.2112 124.934 14.8007 125.289 15.5014C125.644 16.2022 125.859 17.0047 125.935 17.9091ZM127.727 27V12.4545H131.675V18.1364H136.903V12.4545H140.852V27H136.903V21.3182H131.675V27H127.727ZM146.675 12.4545V27H142.727V12.4545H146.675ZM148.547 12.4545H153.462L156.842 20.6932H157.013L160.393 12.4545H165.308V27H161.445V18.5909H161.331L158.092 26.8864H155.763L152.524 18.5341H152.411V27H148.547V12.4545ZM171.129 12.4545V27H167.18V12.4545H171.129ZM185.585 12.4545V27H182.29L177.034 19.358H176.949V27H173V12.4545H176.352L181.523 20.0682H181.636V12.4545H185.585ZM187.453 27V12.4545H191.402V18.1364H196.629V12.4545H200.578V27H196.629V21.3182H191.402V27H187.453ZM206.317 25.0114L206.26 25.8068C206.213 26.4886 206.099 27.142 205.919 27.767C205.744 28.392 205.557 28.946 205.358 29.429C205.164 29.9119 205.01 30.286 204.896 30.5511H202.482C202.557 30.286 202.664 29.9025 202.801 29.4006C202.943 28.9034 203.071 28.34 203.185 27.7102C203.303 27.0852 203.362 26.4508 203.362 25.8068V25.0114H206.317ZM215.649 12.4545L218.632 22.7102H218.746L221.729 12.4545H226.189L221.388 27H215.99L211.189 12.4545H215.649ZM231.539 12.4545V27H227.59V12.4545H231.539ZM233.41 27V12.4545H243.893V15.6364H237.359V18.1364H243.353V21.3182H237.359V23.8182H243.865V27H233.41ZM245.454 15.6364V12.4545H258.096V15.6364H253.721V27H249.829V15.6364H245.454ZM272.167 12.4545V27H268.872L263.616 19.358H263.531V27H259.582V12.4545H262.934L268.105 20.0682H268.218V12.4545H272.167ZM277.814 27H273.552L278.353 12.4545H283.751L288.552 27H284.291L281.109 16.4602H280.995L277.814 27ZM277.018 21.2614H285.029V24.2159H277.018V21.2614ZM289.953 12.4545H294.868L298.249 20.6932H298.419L301.8 12.4545H306.714V27H302.851V18.5909H302.737L299.499 26.8864H297.169L293.93 18.5341H293.817V27H289.953V12.4545Z" fill="white"/>
</svg>
