<svg width="392" height="231" viewBox="0 0 392 231" fill="none" xmlns="http://www.w3.org/2000/svg">
<rect x="-2.5" y="2.5" width="387" height="209" rx="17.5" transform="matrix(-1 0 0 1 387 17)" fill="#EEEDE2" stroke="#FFAA09" stroke-width="5"/>
<path d="M129.671 66H126.262L130.103 54.3636H134.421L138.262 66H134.853L132.308 57.5682H132.217L129.671 66ZM129.035 61.4091H135.444V63.7727H129.035V61.4091ZM146.269 54.3636H149.428V61.8182C149.428 62.7045 149.216 63.4716 148.792 64.1193C148.371 64.7633 147.784 65.2614 147.031 65.6136C146.277 65.9621 145.402 66.1364 144.406 66.1364C143.402 66.1364 142.523 65.9621 141.769 65.6136C141.015 65.2614 140.428 64.7633 140.008 64.1193C139.591 63.4716 139.383 62.7045 139.383 61.8182V54.3636H142.542V61.5455C142.542 61.9053 142.621 62.2273 142.781 62.5114C142.94 62.7917 143.159 63.0114 143.44 63.1705C143.724 63.3295 144.046 63.4091 144.406 63.4091C144.769 63.4091 145.091 63.3295 145.371 63.1705C145.652 63.0114 145.871 62.7917 146.031 62.5114C146.19 62.2273 146.269 61.9053 146.269 61.5455V54.3636ZM158.487 58.2045C158.437 58.0038 158.36 57.8277 158.254 57.6761C158.147 57.5208 158.015 57.3902 157.856 57.2841C157.701 57.1742 157.519 57.0928 157.31 57.0398C157.106 56.983 156.88 56.9545 156.634 56.9545C156.104 56.9545 155.651 57.0814 155.276 57.3352C154.905 57.589 154.621 57.9545 154.424 58.4318C154.231 58.9091 154.134 59.4848 154.134 60.1591C154.134 60.8409 154.227 61.4242 154.413 61.9091C154.598 62.3939 154.875 62.7652 155.242 63.0227C155.61 63.2803 156.066 63.4091 156.612 63.4091C157.093 63.4091 157.492 63.339 157.81 63.1989C158.132 63.0587 158.373 62.8598 158.532 62.6023C158.691 62.3447 158.771 62.0417 158.771 61.6932L159.316 61.75H156.657V59.5H161.816V61.1136C161.816 62.1742 161.591 63.0814 161.14 63.8352C160.693 64.5852 160.076 65.161 159.288 65.5625C158.504 65.9602 157.604 66.1591 156.589 66.1591C155.456 66.1591 154.462 65.9186 153.606 65.4375C152.75 64.9564 152.081 64.2708 151.6 63.3807C151.123 62.4905 150.884 61.4318 150.884 60.2045C150.884 59.2424 151.03 58.3902 151.322 57.6477C151.617 56.9053 152.026 56.2784 152.549 55.767C153.072 55.2519 153.676 54.8636 154.362 54.6023C155.047 54.3371 155.782 54.2045 156.566 54.2045C157.255 54.2045 157.896 54.303 158.487 54.5C159.081 54.6932 159.606 54.9697 160.06 55.3295C160.519 55.6856 160.888 56.108 161.168 56.5966C161.449 57.0852 161.619 57.6212 161.68 58.2045H158.487ZM172.204 54.3636V66H169.045V57.2727H168.977L166.431 58.7955V56.1136L169.295 54.3636H172.204ZM179.343 66.1591C178.404 66.1591 177.565 66.0133 176.826 65.7216C176.091 65.4299 175.512 65.0341 175.087 64.5341C174.667 64.0341 174.457 63.4697 174.457 62.8409C174.457 62.3598 174.576 61.9205 174.815 61.5227C175.057 61.125 175.383 60.7955 175.792 60.5341C176.201 60.2689 176.657 60.0985 177.161 60.0227V59.9318C176.498 59.8182 175.953 59.5246 175.525 59.0511C175.101 58.5739 174.888 58.0114 174.888 57.3636C174.888 56.7538 175.082 56.2121 175.468 55.7386C175.854 55.2614 176.383 54.8864 177.053 54.6136C177.724 54.3409 178.487 54.2045 179.343 54.2045C180.199 54.2045 180.962 54.3428 181.633 54.6193C182.303 54.892 182.832 55.267 183.218 55.7443C183.604 56.2178 183.798 56.7576 183.798 57.3636C183.798 58.0152 183.582 58.5777 183.15 59.0511C182.718 59.5246 182.176 59.8182 181.525 59.9318V60.0227C182.025 60.0985 182.479 60.2689 182.888 60.5341C183.298 60.7955 183.623 61.125 183.866 61.5227C184.108 61.9205 184.229 62.3598 184.229 62.8409C184.229 63.4697 184.017 64.0341 183.593 64.5341C183.173 65.0341 182.593 65.4299 181.854 65.7216C181.12 66.0133 180.282 66.1591 179.343 66.1591ZM179.343 63.9773C179.642 63.9773 179.907 63.9167 180.138 63.7955C180.37 63.6742 180.551 63.5076 180.684 63.2955C180.82 63.0795 180.888 62.8371 180.888 62.5682C180.888 62.2992 180.82 62.0606 180.684 61.8523C180.551 61.6439 180.37 61.4811 180.138 61.3636C179.907 61.2424 179.642 61.1818 179.343 61.1818C179.048 61.1818 178.782 61.2424 178.548 61.3636C178.317 61.4811 178.133 61.6439 177.996 61.8523C177.864 62.0606 177.798 62.2992 177.798 62.5682C177.798 62.8371 177.864 63.0777 177.996 63.2898C178.133 63.5019 178.317 63.6705 178.548 63.7955C178.782 63.9167 179.048 63.9773 179.343 63.9773ZM179.343 59C179.608 59 179.843 58.9451 180.048 58.8352C180.252 58.7254 180.413 58.5739 180.531 58.3807C180.648 58.1875 180.707 57.9697 180.707 57.7273C180.707 57.4848 180.648 57.2708 180.531 57.0852C180.413 56.8958 180.252 56.7481 180.048 56.642C179.843 56.5322 179.608 56.4773 179.343 56.4773C179.082 56.4773 178.847 56.5322 178.638 56.642C178.434 56.7481 178.273 56.8958 178.156 57.0852C178.038 57.2708 177.979 57.4848 177.979 57.7273C177.979 57.9697 178.038 58.1875 178.156 58.3807C178.273 58.5701 178.434 58.7216 178.638 58.8352C178.847 58.9451 179.082 59 179.343 59ZM185.299 56.9091V54.3636H195.413V56.9091H191.913V66H188.799V56.9091H185.299ZM196.602 66V54.3636H199.761V58.9091H203.942V54.3636H207.102V66H203.942V61.4545H199.761V66H196.602ZM217.562 59V61.3636H212.107V59H217.562ZM222.593 66V63.7273L226.934 60.1364C227.222 59.8977 227.468 59.6742 227.673 59.4659C227.881 59.2538 228.04 59.036 228.15 58.8125C228.263 58.589 228.32 58.3409 228.32 58.0682C228.32 57.7689 228.256 57.5133 228.127 57.3011C228.002 57.089 227.828 56.9261 227.604 56.8125C227.381 56.6951 227.123 56.6364 226.832 56.6364C226.54 56.6364 226.282 56.6951 226.059 56.8125C225.839 56.9299 225.669 57.1023 225.548 57.3295C225.426 57.5568 225.366 57.8333 225.366 58.1591H222.366C222.366 57.3409 222.549 56.6364 222.917 56.0455C223.284 55.4545 223.803 55 224.474 54.6818C225.144 54.3636 225.93 54.2045 226.832 54.2045C227.763 54.2045 228.57 54.3542 229.252 54.6534C229.938 54.9489 230.466 55.3655 230.837 55.9034C231.212 56.4413 231.4 57.072 231.4 57.7955C231.4 58.2424 231.307 58.6875 231.121 59.1307C230.936 59.5701 230.603 60.0568 230.121 60.5909C229.64 61.125 228.957 61.7614 228.07 62.5L226.979 63.4091V63.4773H231.525V66H222.593ZM237.482 54.2045C238.16 54.2045 238.802 54.3125 239.408 54.5284C240.014 54.7405 240.55 55.0758 241.016 55.5341C241.486 55.9924 241.853 56.5909 242.119 57.3295C242.388 58.0644 242.524 58.9545 242.528 60C242.531 60.9545 242.412 61.8125 242.17 62.5739C241.931 63.3314 241.588 63.9773 241.141 64.5114C240.698 65.0455 240.164 65.4545 239.539 65.7386C238.918 66.0189 238.225 66.1591 237.46 66.1591C236.6 66.1591 235.844 65.9943 235.192 65.6648C234.541 65.3352 234.022 64.892 233.636 64.3352C233.249 63.7784 233.024 63.1591 232.96 62.4773H236.073C236.149 62.8295 236.316 63.0852 236.573 63.2443C236.831 63.3996 237.126 63.4773 237.46 63.4773C238.126 63.4773 238.613 63.1894 238.92 62.6136C239.23 62.0341 239.388 61.2614 239.391 60.2955H239.323C239.175 60.6515 238.952 60.9564 238.653 61.2102C238.353 61.464 238.005 61.6591 237.607 61.7955C237.21 61.9318 236.789 62 236.346 62C235.645 62 235.031 61.8428 234.505 61.5284C233.978 61.2102 233.567 60.7765 233.272 60.2273C232.977 59.6742 232.827 59.0455 232.823 58.3409C232.819 57.5152 233.014 56.7917 233.408 56.1705C233.802 55.5492 234.35 55.0663 235.05 54.7216C235.751 54.3769 236.562 54.2045 237.482 54.2045ZM237.505 56.5909C237.191 56.5909 236.91 56.6629 236.664 56.8068C236.422 56.9508 236.23 57.1458 236.09 57.392C235.954 57.6383 235.888 57.9167 235.891 58.2273C235.895 58.5379 235.965 58.8163 236.102 59.0625C236.242 59.3087 236.431 59.5038 236.67 59.6477C236.912 59.7917 237.191 59.8636 237.505 59.8636C237.736 59.8636 237.95 59.8239 238.147 59.7443C238.344 59.661 238.514 59.5455 238.658 59.3977C238.806 59.2462 238.92 59.072 238.999 58.875C239.083 58.6742 239.122 58.4583 239.119 58.2273C239.115 57.9167 239.043 57.6383 238.903 57.392C238.763 57.1458 238.571 56.9508 238.329 56.8068C238.086 56.6629 237.812 56.5909 237.505 56.5909ZM243.549 56.9091V54.3636H253.663V56.9091H250.163V66H247.049V56.9091H243.549ZM254.852 66V54.3636H258.011V58.9091H262.192V54.3636H265.352V66H262.192V61.4545H258.011V66H254.852Z" fill="#9A2B2B"/>
<path d="M89.0785 82C89.052 81.6686 88.9277 81.41 88.7056 81.2244C88.4869 81.0388 88.1538 80.946 87.7063 80.946C87.4213 80.946 87.1876 80.9808 87.0053 81.0504C86.8263 81.1167 86.6938 81.2079 86.6076 81.3239C86.5214 81.4399 86.4767 81.5724 86.4734 81.7216C86.4667 81.8442 86.4883 81.9553 86.538 82.0547C86.591 82.1508 86.6739 82.2386 86.7866 82.3182C86.8993 82.3944 87.0434 82.464 87.2191 82.527C87.3948 82.59 87.6036 82.6463 87.8455 82.696L88.6808 82.875C89.2442 82.9943 89.7264 83.1518 90.1275 83.3473C90.5285 83.5429 90.8567 83.7732 91.1119 84.0384C91.3671 84.3002 91.5543 84.5952 91.6737 84.9233C91.7963 85.2514 91.8593 85.6094 91.8626 85.9972C91.8593 86.6667 91.6919 87.2334 91.3604 87.6974C91.029 88.1615 90.555 88.5144 89.9386 88.7564C89.3254 88.9983 88.5879 89.1193 87.7262 89.1193C86.8413 89.1193 86.069 88.9884 85.4094 88.7266C84.7532 88.4647 84.2428 88.062 83.8782 87.5185C83.5169 86.9716 83.3346 86.2723 83.3313 85.4205H85.9563C85.9729 85.732 86.0508 85.9938 86.19 86.206C86.3292 86.4181 86.5247 86.5788 86.7766 86.6882C87.0318 86.7976 87.3351 86.8523 87.6864 86.8523C87.9814 86.8523 88.2283 86.8158 88.4272 86.7429C88.6261 86.67 88.7769 86.5689 88.8796 86.4396C88.9824 86.3104 89.0354 86.1629 89.0387 85.9972C89.0354 85.8414 88.984 85.7055 88.8846 85.5895C88.7885 85.4702 88.6294 85.3641 88.4073 85.2713C88.1853 85.1752 87.8853 85.0857 87.5075 85.0028L86.4933 84.7841C85.5917 84.5885 84.8808 84.2621 84.3604 83.8047C83.8434 83.344 83.5865 82.7159 83.5898 81.9205C83.5865 81.2741 83.7589 80.709 84.1069 80.2251C84.4582 79.7379 84.9438 79.3584 85.5636 79.0866C86.1867 78.8149 86.9009 78.679 87.7063 78.679C88.5283 78.679 89.2392 78.8165 89.8391 79.0916C90.439 79.3667 90.9014 79.7545 91.2262 80.255C91.5543 80.7521 91.7201 81.3338 91.7234 82H89.0785ZM97.9055 85.6591V81.3636H100.65V89H98.0447V87.5483H97.9652C97.7995 88.0355 97.5095 88.4167 97.0952 88.6918C96.6809 88.9635 96.1887 89.0994 95.6186 89.0994C95.085 89.0994 94.6177 88.9768 94.2166 88.7315C93.8189 88.4863 93.509 88.1482 93.2869 87.7173C93.0682 87.2865 92.9571 86.7926 92.9538 86.2358V81.3636H95.6982V85.6591C95.7015 86.0369 95.7976 86.3336 95.9865 86.549C96.1787 86.7644 96.4472 86.8722 96.7919 86.8722C97.0206 86.8722 97.2178 86.8241 97.3835 86.728C97.5526 86.6286 97.6818 86.4893 97.7713 86.3104C97.8641 86.1281 97.9089 85.911 97.9055 85.6591ZM102.046 91.8636V81.3636H104.77V82.696H104.83C104.929 82.4375 105.075 82.2005 105.267 81.9851C105.459 81.7663 105.698 81.5923 105.983 81.4631C106.268 81.3305 106.6 81.2642 106.977 81.2642C107.481 81.2642 107.96 81.3984 108.414 81.6669C108.872 81.9354 109.243 82.358 109.528 82.9347C109.816 83.5114 109.96 84.2604 109.96 85.1818C109.96 86.0634 109.823 86.7943 109.548 87.3743C109.276 87.9543 108.911 88.3868 108.454 88.6719C108 88.9569 107.501 89.0994 106.958 89.0994C106.6 89.0994 106.28 89.0414 105.998 88.9254C105.72 88.8061 105.481 88.6454 105.282 88.4432C105.087 88.2377 104.936 88.0057 104.83 87.7472H104.79V91.8636H102.046ZM104.73 85.1818C104.73 85.553 104.778 85.8745 104.874 86.1463C104.974 86.4148 105.113 86.6236 105.292 86.7727C105.474 86.9186 105.691 86.9915 105.943 86.9915C106.195 86.9915 106.409 86.9202 106.585 86.7777C106.764 86.6319 106.9 86.4247 106.992 86.1562C107.088 85.8845 107.137 85.5597 107.137 85.1818C107.137 84.804 107.088 84.4808 106.992 84.2124C106.9 83.9406 106.764 83.7334 106.585 83.5909C106.409 83.4451 106.195 83.3722 105.943 83.3722C105.691 83.3722 105.474 83.4451 105.292 83.5909C105.113 83.7334 104.974 83.9406 104.874 84.2124C104.778 84.4808 104.73 84.804 104.73 85.1818ZM114.769 89.1392C113.954 89.1392 113.251 88.9834 112.661 88.6719C112.075 88.357 111.622 87.9062 111.304 87.3196C110.989 86.7296 110.832 86.0237 110.832 85.2017C110.832 84.4129 110.991 83.7235 111.309 83.1335C111.627 82.5436 112.076 82.0845 112.656 81.7564C113.236 81.4283 113.921 81.2642 114.71 81.2642C115.286 81.2642 115.808 81.3537 116.276 81.5327C116.743 81.7116 117.142 81.9718 117.474 82.3132C117.805 82.6513 118.06 83.0623 118.239 83.5462C118.418 84.0301 118.508 84.5753 118.508 85.1818V85.8182H111.687V84.3068H115.982C115.979 84.0881 115.923 83.8958 115.813 83.7301C115.707 83.5611 115.563 83.4302 115.381 83.3374C115.202 83.2412 114.998 83.1932 114.769 83.1932C114.547 83.1932 114.343 83.2412 114.158 83.3374C113.972 83.4302 113.823 83.5594 113.71 83.7251C113.601 83.8909 113.543 84.0848 113.536 84.3068V85.9375C113.536 86.1828 113.588 86.4015 113.69 86.5938C113.793 86.786 113.941 86.9368 114.133 87.0462C114.325 87.1555 114.557 87.2102 114.829 87.2102C115.018 87.2102 115.19 87.1837 115.346 87.1307C115.505 87.0777 115.641 87.0014 115.754 86.902C115.866 86.7992 115.949 86.6766 116.002 86.5341H118.508C118.422 87.0644 118.218 87.5251 117.896 87.9162C117.575 88.304 117.149 88.6056 116.619 88.821C116.092 89.0331 115.475 89.1392 114.769 89.1392ZM119.628 89V81.3636H122.292V82.8153H122.372C122.511 82.2784 122.732 81.8857 123.033 81.6371C123.338 81.3885 123.694 81.2642 124.102 81.2642C124.221 81.2642 124.339 81.2741 124.455 81.294C124.574 81.3106 124.689 81.3355 124.798 81.3686V83.7102C124.662 83.6638 124.495 83.629 124.296 83.6058C124.097 83.5826 123.926 83.571 123.784 83.571C123.515 83.571 123.273 83.6323 123.058 83.755C122.846 83.8743 122.679 84.0433 122.556 84.2621C122.433 84.4775 122.372 84.7311 122.372 85.0227V89H119.628ZM130.566 81.3636V83.3523H125.535V81.3636H130.566ZM126.51 79.5341H129.254V86.544C129.254 86.6501 129.272 86.7396 129.309 86.8125C129.345 86.8821 129.401 86.9351 129.478 86.9716C129.554 87.0047 129.652 87.0213 129.771 87.0213C129.854 87.0213 129.95 87.0114 130.059 86.9915C130.172 86.9716 130.255 86.955 130.308 86.9418L130.706 88.8707C130.583 88.9072 130.407 88.9519 130.179 89.005C129.953 89.058 129.685 89.0928 129.373 89.1094C128.743 89.1425 128.215 89.0779 127.787 88.9155C127.36 88.7498 127.038 88.4896 126.823 88.1349C126.607 87.7803 126.503 87.3362 126.51 86.8026V79.5341ZM135.263 89.1392C134.448 89.1392 133.745 88.9834 133.155 88.6719C132.569 88.357 132.116 87.9062 131.798 87.3196C131.483 86.7296 131.326 86.0237 131.326 85.2017C131.326 84.4129 131.485 83.7235 131.803 83.1335C132.121 82.5436 132.57 82.0845 133.15 81.7564C133.73 81.4283 134.415 81.2642 135.204 81.2642C135.78 81.2642 136.302 81.3537 136.77 81.5327C137.237 81.7116 137.636 81.9718 137.968 82.3132C138.299 82.6513 138.555 83.0623 138.733 83.5462C138.912 84.0301 139.002 84.5753 139.002 85.1818V85.8182H132.181V84.3068H136.476C136.473 84.0881 136.417 83.8958 136.307 83.7301C136.201 83.5611 136.057 83.4302 135.875 83.3374C135.696 83.2412 135.492 83.1932 135.263 83.1932C135.041 83.1932 134.837 83.2412 134.652 83.3374C134.466 83.4302 134.317 83.5594 134.204 83.7251C134.095 83.8909 134.037 84.0848 134.03 84.3068V85.9375C134.03 86.1828 134.082 86.4015 134.184 86.5938C134.287 86.786 134.435 86.9368 134.627 87.0462C134.819 87.1555 135.051 87.2102 135.323 87.2102C135.512 87.2102 135.684 87.1837 135.84 87.1307C135.999 87.0777 136.135 87.0014 136.248 86.902C136.36 86.7992 136.443 86.6766 136.496 86.5341H139.002C138.916 87.0644 138.712 87.5251 138.39 87.9162C138.069 88.304 137.643 88.6056 137.113 88.821C136.586 89.0331 135.969 89.1392 135.263 89.1392ZM142.25 89.1193C141.762 89.1193 141.332 89.0398 140.957 88.8807C140.586 88.7183 140.294 88.473 140.082 88.1449C139.87 87.8168 139.764 87.3991 139.764 86.892C139.764 86.4744 139.835 86.1181 139.978 85.8232C140.12 85.5249 140.319 85.2812 140.574 85.0923C140.829 84.9034 141.126 84.7592 141.464 84.6598C141.806 84.5604 142.173 84.4957 142.568 84.4659C142.995 84.4328 143.338 84.393 143.597 84.3466C143.859 84.2969 144.048 84.2289 144.164 84.1428C144.28 84.0533 144.338 83.9356 144.338 83.7898V83.7699C144.338 83.571 144.261 83.4186 144.109 83.3125C143.957 83.2064 143.761 83.1534 143.522 83.1534C143.261 83.1534 143.047 83.2114 142.881 83.3274C142.719 83.4401 142.621 83.6141 142.588 83.8494H140.062C140.095 83.3854 140.243 82.9579 140.505 82.5668C140.77 82.1723 141.156 81.8575 141.663 81.6222C142.17 81.3835 142.803 81.2642 143.562 81.2642C144.109 81.2642 144.6 81.3288 145.034 81.4581C145.468 81.584 145.837 81.7614 146.142 81.9901C146.447 82.2154 146.679 82.4806 146.838 82.7855C147.001 83.0871 147.082 83.4152 147.082 83.7699V89H144.517V87.9261H144.457C144.305 88.2112 144.119 88.4415 143.9 88.6172C143.685 88.7929 143.438 88.9205 143.159 89C142.884 89.0795 142.581 89.1193 142.25 89.1193ZM143.145 87.3892C143.353 87.3892 143.549 87.3461 143.731 87.2599C143.917 87.1738 144.068 87.0495 144.184 86.8871C144.3 86.7247 144.358 86.5275 144.358 86.2955V85.6591C144.285 85.6889 144.207 85.7171 144.124 85.7436C144.044 85.7701 143.958 85.795 143.865 85.8182C143.776 85.8414 143.68 85.8629 143.577 85.8828C143.478 85.9027 143.373 85.9209 143.264 85.9375C143.052 85.9706 142.878 86.0253 142.742 86.1016C142.609 86.1745 142.51 86.2656 142.444 86.375C142.381 86.4811 142.349 86.6004 142.349 86.733C142.349 86.9451 142.424 87.1075 142.573 87.2202C142.722 87.3329 142.913 87.3892 143.145 87.3892ZM148.393 89V81.3636H150.998V82.8153H151.078C151.237 82.3381 151.509 81.9602 151.893 81.6818C152.278 81.4034 152.735 81.2642 153.265 81.2642C153.802 81.2642 154.265 81.4067 154.653 81.6918C155.04 81.9735 155.274 82.348 155.354 82.8153H155.433C155.562 82.348 155.837 81.9735 156.258 81.6918C156.679 81.4067 157.173 81.2642 157.74 81.2642C158.472 81.2642 159.066 81.4995 159.52 81.9702C159.977 82.4408 160.206 83.0672 160.206 83.8494V89H157.461V84.5455C157.461 84.2107 157.377 83.9489 157.208 83.7599C157.039 83.5677 156.812 83.4716 156.527 83.4716C156.245 83.4716 156.021 83.5677 155.856 83.7599C155.693 83.9489 155.612 84.2107 155.612 84.5455V89H152.987V84.5455C152.987 84.2107 152.903 83.9489 152.733 83.7599C152.564 83.5677 152.337 83.4716 152.052 83.4716C151.863 83.4716 151.701 83.5147 151.565 83.6009C151.429 83.687 151.323 83.8113 151.247 83.9737C151.174 84.1328 151.138 84.3234 151.138 84.5455V89H148.393ZM168.505 78.8182H171.229V85.7983C171.226 86.4612 171.058 87.0445 170.727 87.5483C170.399 88.0488 169.945 88.4399 169.365 88.7216C168.788 89 168.123 89.1392 167.371 89.1392C166.718 89.1392 166.122 89.0265 165.581 88.8011C165.041 88.5724 164.61 88.2145 164.289 87.7273C163.967 87.2367 163.808 86.6004 163.811 85.8182H166.576C166.586 86.0734 166.629 86.2888 166.705 86.4645C166.784 86.6402 166.894 86.7727 167.033 86.8622C167.176 86.9484 167.348 86.9915 167.55 86.9915C167.756 86.9915 167.928 86.9467 168.067 86.8572C168.21 86.7678 168.317 86.6352 168.39 86.4595C168.463 86.2805 168.501 86.0601 168.505 85.7983V78.8182ZM174.707 89.1193C174.219 89.1193 173.789 89.0398 173.414 88.8807C173.043 88.7183 172.751 88.473 172.539 88.1449C172.327 87.8168 172.221 87.3991 172.221 86.892C172.221 86.4744 172.292 86.1181 172.435 85.8232C172.577 85.5249 172.776 85.2812 173.031 85.0923C173.286 84.9034 173.583 84.7592 173.921 84.6598C174.263 84.5604 174.63 84.4957 175.025 84.4659C175.452 84.4328 175.795 84.393 176.054 84.3466C176.316 84.2969 176.505 84.2289 176.621 84.1428C176.737 84.0533 176.795 83.9356 176.795 83.7898V83.7699C176.795 83.571 176.719 83.4186 176.566 83.3125C176.414 83.2064 176.218 83.1534 175.979 83.1534C175.718 83.1534 175.504 83.2114 175.338 83.3274C175.176 83.4401 175.078 83.6141 175.045 83.8494H172.519C172.552 83.3854 172.7 82.9579 172.962 82.5668C173.227 82.1723 173.613 81.8575 174.12 81.6222C174.627 81.3835 175.26 81.2642 176.019 81.2642C176.566 81.2642 177.057 81.3288 177.491 81.4581C177.925 81.584 178.295 81.7614 178.599 81.9901C178.904 82.2154 179.136 82.4806 179.295 82.7855C179.458 83.0871 179.539 83.4152 179.539 83.7699V89H176.974V87.9261H176.914C176.762 88.2112 176.576 88.4415 176.357 88.6172C176.142 88.7929 175.895 88.9205 175.616 89C175.341 89.0795 175.038 89.1193 174.707 89.1193ZM175.602 87.3892C175.81 87.3892 176.006 87.3461 176.188 87.2599C176.374 87.1738 176.525 87.0495 176.641 86.8871C176.757 86.7247 176.815 86.5275 176.815 86.2955V85.6591C176.742 85.6889 176.664 85.7171 176.581 85.7436C176.501 85.7701 176.415 85.795 176.322 85.8182C176.233 85.8414 176.137 85.8629 176.034 85.8828C175.935 85.9027 175.83 85.9209 175.721 85.9375C175.509 85.9706 175.335 86.0253 175.199 86.1016C175.066 86.1745 174.967 86.2656 174.901 86.375C174.838 86.4811 174.806 86.6004 174.806 86.733C174.806 86.9451 174.881 87.1075 175.03 87.2202C175.179 87.3329 175.37 87.3892 175.602 87.3892ZM180.85 91.8636V81.3636H183.575V82.696H183.634C183.734 82.4375 183.88 82.2005 184.072 81.9851C184.264 81.7663 184.503 81.5923 184.788 81.4631C185.073 81.3305 185.404 81.2642 185.782 81.2642C186.286 81.2642 186.765 81.3984 187.219 81.6669C187.676 81.9354 188.048 82.358 188.333 82.9347C188.621 83.5114 188.765 84.2604 188.765 85.1818C188.765 86.0634 188.628 86.7943 188.352 87.3743C188.081 87.9543 187.716 88.3868 187.259 88.6719C186.805 88.9569 186.306 89.0994 185.762 89.0994C185.404 89.0994 185.084 89.0414 184.803 88.9254C184.524 88.8061 184.286 88.6454 184.087 88.4432C183.891 88.2377 183.74 88.0057 183.634 87.7472H183.595V91.8636H180.85ZM183.535 85.1818C183.535 85.553 183.583 85.8745 183.679 86.1463C183.779 86.4148 183.918 86.6236 184.097 86.7727C184.279 86.9186 184.496 86.9915 184.748 86.9915C185 86.9915 185.214 86.9202 185.389 86.7777C185.568 86.6319 185.704 86.4247 185.797 86.1562C185.893 85.8845 185.941 85.5597 185.941 85.1818C185.941 84.804 185.893 84.4808 185.797 84.2124C185.704 83.9406 185.568 83.7334 185.389 83.5909C185.214 83.4451 185 83.3722 184.748 83.3722C184.496 83.3722 184.279 83.4451 184.097 83.5909C183.918 83.7334 183.779 83.9406 183.679 84.2124C183.583 84.4808 183.535 84.804 183.535 85.1818ZM192.043 89.1193C191.555 89.1193 191.125 89.0398 190.75 88.8807C190.379 88.7183 190.087 88.473 189.875 88.1449C189.663 87.8168 189.557 87.3991 189.557 86.892C189.557 86.4744 189.628 86.1181 189.771 85.8232C189.913 85.5249 190.112 85.2812 190.367 85.0923C190.622 84.9034 190.919 84.7592 191.257 84.6598C191.598 84.5604 191.966 84.4957 192.361 84.4659C192.788 84.4328 193.131 84.393 193.39 84.3466C193.652 84.2969 193.841 84.2289 193.957 84.1428C194.073 84.0533 194.131 83.9356 194.131 83.7898V83.7699C194.131 83.571 194.054 83.4186 193.902 83.3125C193.75 83.2064 193.554 83.1534 193.315 83.1534C193.054 83.1534 192.84 83.2114 192.674 83.3274C192.512 83.4401 192.414 83.6141 192.381 83.8494H189.855C189.888 83.3854 190.036 82.9579 190.298 82.5668C190.563 82.1723 190.949 81.8575 191.456 81.6222C191.963 81.3835 192.596 81.2642 193.355 81.2642C193.902 81.2642 194.393 81.3288 194.827 81.4581C195.261 81.584 195.63 81.7614 195.935 81.9901C196.24 82.2154 196.472 82.4806 196.631 82.7855C196.794 83.0871 196.875 83.4152 196.875 83.7699V89H194.31V87.9261H194.25C194.098 88.2112 193.912 88.4415 193.693 88.6172C193.478 88.7929 193.231 88.9205 192.952 89C192.677 89.0795 192.374 89.1193 192.043 89.1193ZM192.938 87.3892C193.146 87.3892 193.342 87.3461 193.524 87.2599C193.71 87.1738 193.861 87.0495 193.977 86.8871C194.093 86.7247 194.151 86.5275 194.151 86.2955V85.6591C194.078 85.6889 194 85.7171 193.917 85.7436C193.837 85.7701 193.751 85.795 193.658 85.8182C193.569 85.8414 193.473 85.8629 193.37 85.8828C193.271 85.9027 193.166 85.9209 193.057 85.9375C192.845 85.9706 192.671 86.0253 192.535 86.1016C192.402 86.1745 192.303 86.2656 192.237 86.375C192.174 86.4811 192.142 86.6004 192.142 86.733C192.142 86.9451 192.217 87.1075 192.366 87.2202C192.515 87.3329 192.705 87.3892 192.938 87.3892ZM200.931 84.7045V89H198.186V81.3636H200.791V82.8153H200.871C201.037 82.3314 201.328 81.9519 201.746 81.6768C202.167 81.4018 202.657 81.2642 203.218 81.2642C203.758 81.2642 204.227 81.3885 204.624 81.6371C205.026 81.8823 205.335 82.2204 205.554 82.6513C205.776 83.0821 205.886 83.5743 205.882 84.1278V89H203.138V84.7045C203.141 84.3267 203.045 84.0301 202.85 83.8146C202.657 83.5992 202.389 83.4915 202.044 83.4915C201.819 83.4915 201.622 83.5412 201.453 83.6406C201.287 83.7367 201.159 83.8759 201.07 84.0582C200.98 84.2372 200.934 84.4527 200.931 84.7045ZM215.475 82C215.448 81.6686 215.324 81.41 215.102 81.2244C214.883 81.0388 214.55 80.946 214.103 80.946C213.818 80.946 213.584 80.9808 213.402 81.0504C213.223 81.1167 213.09 81.2079 213.004 81.3239C212.918 81.4399 212.873 81.5724 212.87 81.7216C212.863 81.8442 212.885 81.9553 212.934 82.0547C212.988 82.1508 213.07 82.2386 213.183 82.3182C213.296 82.3944 213.44 82.464 213.616 82.527C213.791 82.59 214 82.6463 214.242 82.696L215.077 82.875C215.641 82.9943 216.123 83.1518 216.524 83.3473C216.925 83.5429 217.253 83.7732 217.508 84.0384C217.764 84.3002 217.951 84.5952 218.07 84.9233C218.193 85.2514 218.256 85.6094 218.259 85.9972C218.256 86.6667 218.088 87.2334 217.757 87.6974C217.425 88.1615 216.952 88.5144 216.335 88.7564C215.722 88.9983 214.984 89.1193 214.123 89.1193C213.238 89.1193 212.465 88.9884 211.806 88.7266C211.15 88.4647 210.639 88.062 210.275 87.5185C209.913 86.9716 209.731 86.2723 209.728 85.4205H212.353C212.369 85.732 212.447 85.9938 212.586 86.206C212.726 86.4181 212.921 86.5788 213.173 86.6882C213.428 86.7976 213.732 86.8523 214.083 86.8523C214.378 86.8523 214.625 86.8158 214.824 86.7429C215.023 86.67 215.173 86.5689 215.276 86.4396C215.379 86.3104 215.432 86.1629 215.435 85.9972C215.432 85.8414 215.381 85.7055 215.281 85.5895C215.185 85.4702 215.026 85.3641 214.804 85.2713C214.582 85.1752 214.282 85.0857 213.904 85.0028L212.89 84.7841C211.988 84.5885 211.277 84.2621 210.757 83.8047C210.24 83.344 209.983 82.7159 209.986 81.9205C209.983 81.2741 210.155 80.709 210.503 80.2251C210.855 79.7379 211.34 79.3584 211.96 79.0866C212.583 78.8149 213.297 78.679 214.103 78.679C214.925 78.679 215.636 78.8165 216.236 79.0916C216.836 79.3667 217.298 79.7545 217.623 80.255C217.951 80.7521 218.117 81.3338 218.12 82H215.475ZM223.904 81.3636V83.3523H218.873V81.3636H223.904ZM219.847 79.5341H222.592V86.544C222.592 86.6501 222.61 86.7396 222.646 86.8125C222.683 86.8821 222.739 86.9351 222.816 86.9716C222.892 87.0047 222.99 87.0213 223.109 87.0213C223.192 87.0213 223.288 87.0114 223.397 86.9915C223.51 86.9716 223.593 86.955 223.646 86.9418L224.044 88.8707C223.921 88.9072 223.745 88.9519 223.517 89.005C223.291 89.058 223.023 89.0928 222.711 89.1094C222.081 89.1425 221.553 89.0779 221.125 88.9155C220.698 88.7498 220.376 88.4896 220.161 88.1349C219.945 87.7803 219.841 87.3362 219.847 86.8026V79.5341ZM227.152 89.1193C226.665 89.1193 226.234 89.0398 225.859 88.8807C225.488 88.7183 225.196 88.473 224.984 88.1449C224.772 87.8168 224.666 87.3991 224.666 86.892C224.666 86.4744 224.737 86.1181 224.88 85.8232C225.022 85.5249 225.221 85.2812 225.477 85.0923C225.732 84.9034 226.028 84.7592 226.366 84.6598C226.708 84.5604 227.076 84.4957 227.47 84.4659C227.898 84.4328 228.241 84.393 228.499 84.3466C228.761 84.2969 228.95 84.2289 229.066 84.1428C229.182 84.0533 229.24 83.9356 229.24 83.7898V83.7699C229.24 83.571 229.164 83.4186 229.011 83.3125C228.859 83.2064 228.663 83.1534 228.425 83.1534C228.163 83.1534 227.949 83.2114 227.783 83.3274C227.621 83.4401 227.523 83.6141 227.49 83.8494H224.964C224.998 83.3854 225.145 82.9579 225.407 82.5668C225.672 82.1723 226.058 81.8575 226.565 81.6222C227.072 81.3835 227.705 81.2642 228.464 81.2642C229.011 81.2642 229.502 81.3288 229.936 81.4581C230.37 81.584 230.74 81.7614 231.045 81.9901C231.35 82.2154 231.582 82.4806 231.741 82.7855C231.903 83.0871 231.984 83.4152 231.984 83.7699V89H229.419V87.9261H229.359C229.207 88.2112 229.021 88.4415 228.803 88.6172C228.587 88.7929 228.34 88.9205 228.062 89C227.787 89.0795 227.483 89.1193 227.152 89.1193ZM228.047 87.3892C228.256 87.3892 228.451 87.3461 228.634 87.2599C228.819 87.1738 228.97 87.0495 229.086 86.8871C229.202 86.7247 229.26 86.5275 229.26 86.2955V85.6591C229.187 85.6889 229.109 85.7171 229.026 85.7436C228.947 85.7701 228.861 85.795 228.768 85.8182C228.678 85.8414 228.582 85.8629 228.479 85.8828C228.38 85.9027 228.276 85.9209 228.166 85.9375C227.954 85.9706 227.78 86.0253 227.644 86.1016C227.512 86.1745 227.412 86.2656 227.346 86.375C227.283 86.4811 227.251 86.6004 227.251 86.733C227.251 86.9451 227.326 87.1075 227.475 87.2202C227.624 87.3329 227.815 87.3892 228.047 87.3892ZM233.296 89V81.3636H235.96V82.8153H236.04C236.179 82.2784 236.4 81.8857 236.701 81.6371C237.006 81.3885 237.362 81.2642 237.77 81.2642C237.889 81.2642 238.007 81.2741 238.123 81.294C238.242 81.3106 238.357 81.3355 238.466 81.3686V83.7102C238.33 83.6638 238.163 83.629 237.964 83.6058C237.765 83.5826 237.594 83.571 237.452 83.571C237.183 83.571 236.941 83.6323 236.726 83.755C236.514 83.8743 236.347 84.0433 236.224 84.2621C236.101 84.4775 236.04 84.7311 236.04 85.0227V89H233.296ZM244.318 85.6591V81.3636H247.062V89H244.457V87.5483H244.377C244.212 88.0355 243.922 88.4167 243.507 88.6918C243.093 88.9635 242.601 89.0994 242.031 89.0994C241.497 89.0994 241.03 88.9768 240.629 88.7315C240.231 88.4863 239.921 88.1482 239.699 87.7173C239.48 87.2865 239.369 86.7926 239.366 86.2358V81.3636H242.11V85.6591C242.114 86.0369 242.21 86.3336 242.399 86.549C242.591 86.7644 242.859 86.8722 243.204 86.8722C243.433 86.8722 243.63 86.8241 243.796 86.728C243.965 86.6286 244.094 86.4893 244.183 86.3104C244.276 86.1281 244.321 85.911 244.318 85.6591ZM248.458 91.8636V81.3636H251.182V82.696H251.242C251.341 82.4375 251.487 82.2005 251.679 81.9851C251.872 81.7663 252.11 81.5923 252.395 81.4631C252.68 81.3305 253.012 81.2642 253.39 81.2642C253.893 81.2642 254.372 81.3984 254.826 81.6669C255.284 81.9354 255.655 82.358 255.94 82.9347C256.228 83.5114 256.373 84.2604 256.373 85.1818C256.373 86.0634 256.235 86.7943 255.96 87.3743C255.688 87.9543 255.324 88.3868 254.866 88.6719C254.412 88.9569 253.913 89.0994 253.37 89.0994C253.012 89.0994 252.692 89.0414 252.41 88.9254C252.132 88.8061 251.893 88.6454 251.694 88.4432C251.499 88.2377 251.348 88.0057 251.242 87.7472H251.202V91.8636H248.458ZM251.142 85.1818C251.142 85.553 251.19 85.8745 251.287 86.1463C251.386 86.4148 251.525 86.6236 251.704 86.7727C251.886 86.9186 252.104 86.9915 252.355 86.9915C252.607 86.9915 252.821 86.9202 252.997 86.7777C253.176 86.6319 253.312 86.4247 253.404 86.1562C253.501 85.8845 253.549 85.5597 253.549 85.1818C253.549 84.804 253.501 84.4808 253.404 84.2124C253.312 83.9406 253.176 83.7334 252.997 83.5909C252.821 83.4451 252.607 83.3722 252.355 83.3722C252.104 83.3722 251.886 83.4451 251.704 83.5909C251.525 83.7334 251.386 83.9406 251.287 84.2124C251.19 84.4808 251.142 84.804 251.142 85.1818ZM263.056 78.8182L265.144 85.9972H265.223L267.311 78.8182H270.433L267.073 89H263.294L259.933 78.8182H263.056ZM271.454 89V81.3636H274.198V89H271.454ZM272.826 80.5682C272.455 80.5682 272.137 80.4455 271.871 80.2003C271.606 79.955 271.474 79.66 271.474 79.3153C271.474 78.9706 271.606 78.6757 271.871 78.4304C272.137 78.1851 272.455 78.0625 272.826 78.0625C273.201 78.0625 273.519 78.1851 273.781 78.4304C274.046 78.6757 274.178 78.9706 274.178 79.3153C274.178 79.66 274.046 79.955 273.781 80.2003C273.519 80.4455 273.201 80.5682 272.826 80.5682ZM278.341 78.8182V89H275.596V78.8182H278.341ZM282.483 78.8182V89H279.739V78.8182H282.483ZM286.009 89.1193C285.522 89.1193 285.091 89.0398 284.717 88.8807C284.346 88.7183 284.054 88.473 283.842 88.1449C283.63 87.8168 283.524 87.3991 283.524 86.892C283.524 86.4744 283.595 86.1181 283.737 85.8232C283.88 85.5249 284.079 85.2812 284.334 85.0923C284.589 84.9034 284.886 84.7592 285.224 84.6598C285.565 84.5604 285.933 84.4957 286.328 84.4659C286.755 84.4328 287.098 84.393 287.357 84.3466C287.619 84.2969 287.807 84.2289 287.923 84.1428C288.039 84.0533 288.097 83.9356 288.097 83.7898V83.7699C288.097 83.571 288.021 83.4186 287.869 83.3125C287.716 83.2064 287.521 83.1534 287.282 83.1534C287.02 83.1534 286.807 83.2114 286.641 83.3274C286.478 83.4401 286.381 83.6141 286.347 83.8494H283.822C283.855 83.3854 284.003 82.9579 284.264 82.5668C284.53 82.1723 284.916 81.8575 285.423 81.6222C285.93 81.3835 286.563 81.2642 287.322 81.2642C287.869 81.2642 288.359 81.3288 288.794 81.4581C289.228 81.584 289.597 81.7614 289.902 81.9901C290.207 82.2154 290.439 82.4806 290.598 82.7855C290.761 83.0871 290.842 83.4152 290.842 83.7699V89H288.276V87.9261H288.217C288.064 88.2112 287.879 88.4415 287.66 88.6172C287.445 88.7929 287.198 88.9205 286.919 89C286.644 89.0795 286.341 89.1193 286.009 89.1193ZM286.904 87.3892C287.113 87.3892 287.309 87.3461 287.491 87.2599C287.677 87.1738 287.827 87.0495 287.943 86.8871C288.059 86.7247 288.117 86.5275 288.117 86.2955V85.6591C288.044 85.6889 287.967 85.7171 287.884 85.7436C287.804 85.7701 287.718 85.795 287.625 85.8182C287.536 85.8414 287.44 85.8629 287.337 85.8828C287.237 85.9027 287.133 85.9209 287.024 85.9375C286.811 85.9706 286.637 86.0253 286.502 86.1016C286.369 86.1745 286.27 86.2656 286.203 86.375C286.14 86.4811 286.109 86.6004 286.109 86.733C286.109 86.9451 286.183 87.1075 286.333 87.2202C286.482 87.3329 286.672 87.3892 286.904 87.3892ZM295.832 92.0227C295.066 92.0227 294.41 91.9134 293.863 91.6946C293.32 91.4792 292.897 91.1809 292.596 90.7997C292.297 90.4219 292.13 89.9877 292.093 89.4972H294.738C294.765 89.6596 294.831 89.7905 294.937 89.8899C295.043 89.9893 295.179 90.0606 295.345 90.1037C295.514 90.1501 295.703 90.1733 295.912 90.1733C296.266 90.1733 296.56 90.0871 296.792 89.9148C297.027 89.7424 297.145 89.4309 297.145 88.9801V87.6875H297.065C296.966 87.946 296.813 88.1664 296.608 88.3487C296.402 88.5277 296.155 88.6652 295.867 88.7614C295.578 88.8542 295.262 88.9006 294.917 88.9006C294.374 88.9006 293.873 88.7746 293.416 88.5227C292.962 88.2708 292.597 87.8714 292.322 87.3246C292.05 86.7777 291.914 86.0634 291.914 85.1818C291.914 84.2604 292.057 83.5114 292.342 82.9347C292.63 82.358 293.002 81.9354 293.456 81.6669C293.913 81.3984 294.394 81.2642 294.897 81.2642C295.275 81.2642 295.607 81.3305 295.892 81.4631C296.177 81.5923 296.415 81.7663 296.608 81.9851C296.8 82.2005 296.946 82.4375 297.045 82.696H297.105V81.3636H299.849V88.9801C299.849 89.6264 299.682 90.175 299.347 90.6257C299.016 91.0798 298.548 91.4261 297.945 91.6648C297.342 91.9034 296.637 92.0227 295.832 92.0227ZM295.931 86.9517C296.183 86.9517 296.399 86.8821 296.578 86.7429C296.76 86.6004 296.899 86.3982 296.995 86.1364C297.095 85.8712 297.145 85.553 297.145 85.1818C297.145 84.804 297.095 84.4808 296.995 84.2124C296.899 83.9406 296.76 83.7334 296.578 83.5909C296.399 83.4451 296.183 83.3722 295.931 83.3722C295.68 83.3722 295.464 83.4451 295.285 83.5909C295.109 83.7334 294.974 83.9406 294.877 84.2124C294.785 84.4808 294.738 84.804 294.738 85.1818C294.738 85.5597 294.785 85.8812 294.877 86.1463C294.974 86.4081 295.109 86.6087 295.285 86.7479C295.464 86.8838 295.68 86.9517 295.931 86.9517ZM304.904 89.1392C304.089 89.1392 303.386 88.9834 302.796 88.6719C302.209 88.357 301.757 87.9062 301.439 87.3196C301.124 86.7296 300.966 86.0237 300.966 85.2017C300.966 84.4129 301.126 83.7235 301.444 83.1335C301.762 82.5436 302.211 82.0845 302.791 81.7564C303.371 81.4283 304.055 81.2642 304.844 81.2642C305.421 81.2642 305.943 81.3537 306.41 81.5327C306.878 81.7116 307.277 81.9718 307.608 82.3132C307.94 82.6513 308.195 83.0623 308.374 83.5462C308.553 84.0301 308.643 84.5753 308.643 85.1818V85.8182H301.822V84.3068H306.117C306.114 84.0881 306.057 83.8958 305.948 83.7301C305.842 83.5611 305.698 83.4302 305.515 83.3374C305.336 83.2412 305.133 83.1932 304.904 83.1932C304.682 83.1932 304.478 83.2412 304.292 83.3374C304.107 83.4302 303.958 83.5594 303.845 83.7251C303.736 83.8909 303.678 84.0848 303.671 84.3068V85.9375C303.671 86.1828 303.722 86.4015 303.825 86.5938C303.928 86.786 304.075 86.9368 304.268 87.0462C304.46 87.1555 304.692 87.2102 304.964 87.2102C305.153 87.2102 305.325 87.1837 305.481 87.1307C305.64 87.0777 305.776 87.0014 305.888 86.902C306.001 86.7992 306.084 86.6766 306.137 86.5341H308.643C308.556 87.0644 308.353 87.5251 308.031 87.9162C307.71 88.304 307.284 88.6056 306.753 88.821C306.226 89.0331 305.61 89.1392 304.904 89.1392Z" fill="#3B3636"/>
<path d="M157.702 123H154.293L158.134 111.364H162.452L166.293 123H162.884L160.339 114.568H160.248L157.702 123ZM157.066 118.409H163.475V120.773H157.066V118.409ZM174.3 111.364H177.46V118.818C177.46 119.705 177.247 120.472 176.823 121.119C176.403 121.763 175.816 122.261 175.062 122.614C174.308 122.962 173.433 123.136 172.437 123.136C171.433 123.136 170.554 122.962 169.8 122.614C169.047 122.261 168.46 121.763 168.039 121.119C167.622 120.472 167.414 119.705 167.414 118.818V111.364H170.573V118.545C170.573 118.905 170.653 119.227 170.812 119.511C170.971 119.792 171.191 120.011 171.471 120.17C171.755 120.33 172.077 120.409 172.437 120.409C172.8 120.409 173.122 120.33 173.403 120.17C173.683 120.011 173.903 119.792 174.062 119.511C174.221 119.227 174.3 118.905 174.3 118.545V111.364ZM186.518 115.205C186.469 115.004 186.391 114.828 186.285 114.676C186.179 114.521 186.046 114.39 185.887 114.284C185.732 114.174 185.55 114.093 185.342 114.04C185.137 113.983 184.912 113.955 184.665 113.955C184.135 113.955 183.683 114.081 183.308 114.335C182.936 114.589 182.652 114.955 182.455 115.432C182.262 115.909 182.165 116.485 182.165 117.159C182.165 117.841 182.258 118.424 182.444 118.909C182.629 119.394 182.906 119.765 183.273 120.023C183.641 120.28 184.097 120.409 184.643 120.409C185.124 120.409 185.523 120.339 185.842 120.199C186.164 120.059 186.404 119.86 186.563 119.602C186.722 119.345 186.802 119.042 186.802 118.693L187.347 118.75H184.688V116.5H189.847V118.114C189.847 119.174 189.622 120.081 189.171 120.835C188.724 121.585 188.107 122.161 187.319 122.562C186.535 122.96 185.635 123.159 184.62 123.159C183.487 123.159 182.493 122.919 181.637 122.438C180.781 121.956 180.112 121.271 179.631 120.381C179.154 119.491 178.915 118.432 178.915 117.205C178.915 116.242 179.061 115.39 179.353 114.648C179.648 113.905 180.058 113.278 180.58 112.767C181.103 112.252 181.707 111.864 182.393 111.602C183.078 111.337 183.813 111.205 184.597 111.205C185.287 111.205 185.927 111.303 186.518 111.5C187.112 111.693 187.637 111.97 188.092 112.33C188.55 112.686 188.919 113.108 189.2 113.597C189.48 114.085 189.65 114.621 189.711 115.205H186.518ZM194.531 123V120.727L198.871 117.136C199.159 116.898 199.406 116.674 199.61 116.466C199.818 116.254 199.978 116.036 200.087 115.812C200.201 115.589 200.258 115.341 200.258 115.068C200.258 114.769 200.193 114.513 200.065 114.301C199.94 114.089 199.765 113.926 199.542 113.812C199.318 113.695 199.061 113.636 198.769 113.636C198.478 113.636 198.22 113.695 197.996 113.812C197.777 113.93 197.606 114.102 197.485 114.33C197.364 114.557 197.303 114.833 197.303 115.159H194.303C194.303 114.341 194.487 113.636 194.854 113.045C195.222 112.455 195.741 112 196.411 111.682C197.082 111.364 197.868 111.205 198.769 111.205C199.701 111.205 200.508 111.354 201.19 111.653C201.875 111.949 202.404 112.366 202.775 112.903C203.15 113.441 203.337 114.072 203.337 114.795C203.337 115.242 203.245 115.687 203.059 116.131C202.873 116.57 202.54 117.057 202.059 117.591C201.578 118.125 200.894 118.761 200.008 119.5L198.917 120.409V120.477H203.462V123H194.531ZM204.511 121.182V118.727L209.192 111.364H211.42V114.636H210.147L207.624 118.636V118.727H214.533V121.182H204.511ZM210.17 123V120.432L210.238 119.364V111.364H213.192V123H210.17ZM215.518 113.909V111.364H225.631V113.909H222.131V123H219.018V113.909H215.518ZM226.82 123V111.364H229.979V115.909H234.161V111.364H237.32V123H234.161V118.455H229.979V123H226.82Z" fill="#9A2B2B"/>
<path d="M158.244 139C158.218 138.669 158.094 138.41 157.872 138.224C157.653 138.039 157.32 137.946 156.872 137.946C156.587 137.946 156.354 137.981 156.171 138.05C155.992 138.117 155.86 138.208 155.774 138.324C155.687 138.44 155.643 138.572 155.639 138.722C155.633 138.844 155.654 138.955 155.704 139.055C155.757 139.151 155.84 139.239 155.953 139.318C156.065 139.394 156.209 139.464 156.385 139.527C156.561 139.59 156.77 139.646 157.012 139.696L157.847 139.875C158.41 139.994 158.892 140.152 159.294 140.347C159.695 140.543 160.023 140.773 160.278 141.038C160.533 141.3 160.72 141.595 160.84 141.923C160.962 142.251 161.025 142.609 161.029 142.997C161.025 143.667 160.858 144.233 160.526 144.697C160.195 145.161 159.721 145.514 159.105 145.756C158.491 145.998 157.754 146.119 156.892 146.119C156.007 146.119 155.235 145.988 154.575 145.727C153.919 145.465 153.409 145.062 153.044 144.518C152.683 143.972 152.501 143.272 152.497 142.42H155.122C155.139 142.732 155.217 142.994 155.356 143.206C155.495 143.418 155.691 143.579 155.943 143.688C156.198 143.798 156.501 143.852 156.852 143.852C157.147 143.852 157.394 143.816 157.593 143.743C157.792 143.67 157.943 143.569 158.046 143.44C158.148 143.31 158.201 143.163 158.205 142.997C158.201 142.841 158.15 142.705 158.051 142.589C157.954 142.47 157.795 142.364 157.573 142.271C157.351 142.175 157.051 142.086 156.673 142.003L155.659 141.784C154.758 141.589 154.047 141.262 153.526 140.805C153.009 140.344 152.753 139.716 152.756 138.92C152.753 138.274 152.925 137.709 153.273 137.225C153.624 136.738 154.11 136.358 154.73 136.087C155.353 135.815 156.067 135.679 156.872 135.679C157.694 135.679 158.405 135.817 159.005 136.092C159.605 136.367 160.067 136.754 160.392 137.255C160.72 137.752 160.886 138.334 160.889 139H158.244ZM167.072 142.659V138.364H169.816V146H167.211V144.548H167.131C166.965 145.036 166.675 145.417 166.261 145.692C165.847 145.964 165.355 146.099 164.785 146.099C164.251 146.099 163.784 145.977 163.383 145.732C162.985 145.486 162.675 145.148 162.453 144.717C162.234 144.286 162.123 143.793 162.12 143.236V138.364H164.864V142.659C164.867 143.037 164.964 143.334 165.153 143.549C165.345 143.764 165.613 143.872 165.958 143.872C166.187 143.872 166.384 143.824 166.55 143.728C166.719 143.629 166.848 143.489 166.937 143.31C167.03 143.128 167.075 142.911 167.072 142.659ZM171.212 148.864V138.364H173.936V139.696H173.996C174.095 139.437 174.241 139.201 174.433 138.985C174.625 138.766 174.864 138.592 175.149 138.463C175.434 138.33 175.766 138.264 176.143 138.264C176.647 138.264 177.126 138.398 177.58 138.667C178.038 138.935 178.409 139.358 178.694 139.935C178.982 140.511 179.126 141.26 179.126 142.182C179.126 143.063 178.989 143.794 178.714 144.374C178.442 144.954 178.077 145.387 177.62 145.672C177.166 145.957 176.667 146.099 176.124 146.099C175.766 146.099 175.446 146.041 175.164 145.925C174.886 145.806 174.647 145.645 174.448 145.443C174.253 145.238 174.102 145.006 173.996 144.747H173.956V148.864H171.212ZM173.896 142.182C173.896 142.553 173.944 142.875 174.04 143.146C174.14 143.415 174.279 143.624 174.458 143.773C174.64 143.919 174.857 143.991 175.109 143.991C175.361 143.991 175.575 143.92 175.751 143.778C175.93 143.632 176.066 143.425 176.158 143.156C176.254 142.884 176.303 142.56 176.303 142.182C176.303 141.804 176.254 141.481 176.158 141.212C176.066 140.941 175.93 140.733 175.751 140.591C175.575 140.445 175.361 140.372 175.109 140.372C174.857 140.372 174.64 140.445 174.458 140.591C174.279 140.733 174.14 140.941 174.04 141.212C173.944 141.481 173.896 141.804 173.896 142.182ZM183.935 146.139C183.12 146.139 182.417 145.983 181.827 145.672C181.241 145.357 180.788 144.906 180.47 144.32C180.155 143.73 179.998 143.024 179.998 142.202C179.998 141.413 180.157 140.723 180.475 140.134C180.793 139.544 181.242 139.085 181.822 138.756C182.402 138.428 183.087 138.264 183.876 138.264C184.452 138.264 184.974 138.354 185.442 138.533C185.909 138.712 186.308 138.972 186.64 139.313C186.971 139.651 187.226 140.062 187.405 140.546C187.584 141.03 187.674 141.575 187.674 142.182V142.818H180.853V141.307H185.148C185.145 141.088 185.089 140.896 184.979 140.73C184.873 140.561 184.729 140.43 184.547 140.337C184.368 140.241 184.164 140.193 183.935 140.193C183.713 140.193 183.509 140.241 183.324 140.337C183.138 140.43 182.989 140.559 182.876 140.725C182.767 140.891 182.709 141.085 182.702 141.307V142.938C182.702 143.183 182.754 143.402 182.856 143.594C182.959 143.786 183.107 143.937 183.299 144.046C183.491 144.156 183.723 144.21 183.995 144.21C184.184 144.21 184.356 144.184 184.512 144.131C184.671 144.078 184.807 144.001 184.92 143.902C185.032 143.799 185.115 143.677 185.168 143.534H187.674C187.588 144.064 187.384 144.525 187.062 144.916C186.741 145.304 186.315 145.606 185.785 145.821C185.258 146.033 184.641 146.139 183.935 146.139ZM188.794 146V138.364H191.458V139.815H191.538C191.677 139.278 191.898 138.886 192.199 138.637C192.504 138.388 192.86 138.264 193.268 138.264C193.387 138.264 193.505 138.274 193.621 138.294C193.74 138.311 193.855 138.335 193.964 138.369V140.71C193.828 140.664 193.661 140.629 193.462 140.606C193.263 140.583 193.092 140.571 192.95 140.571C192.681 140.571 192.44 140.632 192.224 140.755C192.012 140.874 191.845 141.043 191.722 141.262C191.599 141.478 191.538 141.731 191.538 142.023V146H188.794ZM197.335 138.045V135.818H206.184V138.045H203.122V146H200.397V138.045H197.335ZM209.836 146.139C209.007 146.139 208.298 145.975 207.708 145.647C207.118 145.316 206.666 144.855 206.351 144.265C206.036 143.672 205.879 142.984 205.879 142.202C205.879 141.42 206.036 140.733 206.351 140.143C206.666 139.55 207.118 139.089 207.708 138.761C208.298 138.43 209.007 138.264 209.836 138.264C210.665 138.264 211.374 138.43 211.964 138.761C212.554 139.089 213.006 139.55 213.321 140.143C213.636 140.733 213.793 141.42 213.793 142.202C213.793 142.984 213.636 143.672 213.321 144.265C213.006 144.855 212.554 145.316 211.964 145.647C211.374 145.975 210.665 146.139 209.836 146.139ZM209.856 144.111C210.088 144.111 210.288 144.033 210.457 143.877C210.626 143.721 210.757 143.499 210.85 143.211C210.943 142.923 210.989 142.58 210.989 142.182C210.989 141.781 210.943 141.438 210.85 141.153C210.757 140.864 210.626 140.642 210.457 140.487C210.288 140.331 210.088 140.253 209.856 140.253C209.611 140.253 209.4 140.331 209.224 140.487C209.049 140.642 208.915 140.864 208.822 141.153C208.729 141.438 208.683 141.781 208.683 142.182C208.683 142.58 208.729 142.923 208.822 143.211C208.915 143.499 209.049 143.721 209.224 143.877C209.4 144.033 209.611 144.111 209.856 144.111ZM217.373 144.19L217.393 140.929H217.751L219.6 138.364H222.683L219.58 142.361H218.805L217.373 144.19ZM214.907 146V135.818H217.651V146H214.907ZM219.62 146L217.87 142.977L219.66 141.028L222.762 146H219.62ZM225.273 148.864C224.958 148.864 224.658 148.839 224.373 148.789C224.088 148.743 223.838 148.678 223.622 148.595L224.219 146.646C224.444 146.726 224.65 146.777 224.835 146.8C225.024 146.824 225.185 146.81 225.317 146.761C225.453 146.711 225.551 146.616 225.611 146.477L225.67 146.338L222.986 138.364H225.849L227.082 143.653H227.162L228.415 138.364H231.298L228.514 146.636C228.375 147.057 228.173 147.435 227.908 147.77C227.646 148.108 227.301 148.375 226.874 148.57C226.446 148.766 225.912 148.864 225.273 148.864ZM235.525 146.139C234.697 146.139 233.988 145.975 233.398 145.647C232.808 145.316 232.355 144.855 232.04 144.265C231.725 143.672 231.568 142.984 231.568 142.202C231.568 141.42 231.725 140.733 232.04 140.143C232.355 139.55 232.808 139.089 233.398 138.761C233.988 138.43 234.697 138.264 235.525 138.264C236.354 138.264 237.063 138.43 237.653 138.761C238.243 139.089 238.696 139.55 239.01 140.143C239.325 140.733 239.483 141.42 239.483 142.202C239.483 142.984 239.325 143.672 239.01 144.265C238.696 144.855 238.243 145.316 237.653 145.647C237.063 145.975 236.354 146.139 235.525 146.139ZM235.545 144.111C235.777 144.111 235.978 144.033 236.147 143.877C236.316 143.721 236.447 143.499 236.54 143.211C236.632 142.923 236.679 142.58 236.679 142.182C236.679 141.781 236.632 141.438 236.54 141.153C236.447 140.864 236.316 140.642 236.147 140.487C235.978 140.331 235.777 140.253 235.545 140.253C235.3 140.253 235.09 140.331 234.914 140.487C234.738 140.642 234.604 140.864 234.511 141.153C234.418 141.438 234.372 141.781 234.372 142.182C234.372 142.58 234.418 142.923 234.511 143.211C234.604 143.499 234.738 143.721 234.914 143.877C235.09 144.033 235.3 144.111 235.545 144.111Z" fill="#3B3636"/>
<path d="M134.734 172C134.703 171.621 134.561 171.326 134.308 171.114C134.058 170.902 133.677 170.795 133.165 170.795C132.84 170.795 132.573 170.835 132.364 170.915C132.16 170.991 132.008 171.095 131.91 171.227C131.811 171.36 131.76 171.511 131.756 171.682C131.749 171.822 131.773 171.949 131.83 172.062C131.891 172.172 131.986 172.273 132.114 172.364C132.243 172.451 132.408 172.53 132.609 172.602C132.809 172.674 133.048 172.739 133.325 172.795L134.279 173C134.923 173.136 135.474 173.316 135.933 173.54C136.391 173.763 136.766 174.027 137.058 174.33C137.349 174.629 137.563 174.966 137.7 175.341C137.84 175.716 137.912 176.125 137.915 176.568C137.912 177.333 137.72 177.981 137.342 178.511C136.963 179.042 136.421 179.445 135.717 179.722C135.016 179.998 134.173 180.136 133.188 180.136C132.177 180.136 131.294 179.987 130.54 179.688C129.79 179.388 129.207 178.928 128.79 178.307C128.378 177.682 128.169 176.883 128.165 175.909H131.165C131.184 176.265 131.273 176.564 131.433 176.807C131.592 177.049 131.815 177.233 132.103 177.358C132.395 177.483 132.741 177.545 133.143 177.545C133.48 177.545 133.762 177.504 133.989 177.42C134.217 177.337 134.389 177.222 134.506 177.074C134.624 176.926 134.684 176.758 134.688 176.568C134.684 176.39 134.626 176.235 134.512 176.102C134.402 175.966 134.22 175.845 133.967 175.739C133.713 175.629 133.37 175.527 132.938 175.432L131.779 175.182C130.749 174.958 129.936 174.585 129.342 174.062C128.751 173.536 128.457 172.818 128.461 171.909C128.457 171.17 128.654 170.525 129.052 169.972C129.453 169.415 130.008 168.981 130.717 168.67C131.429 168.36 132.245 168.205 133.165 168.205C134.105 168.205 134.917 168.362 135.603 168.676C136.289 168.991 136.817 169.434 137.188 170.006C137.563 170.574 137.753 171.239 137.756 172H134.734ZM139.117 180V168.364H147.504V170.909H142.276V172.909H147.072V175.455H142.276V177.455H147.481V180H139.117ZM149.07 180V168.364H154.093C154.957 168.364 155.712 168.534 156.36 168.875C157.008 169.216 157.512 169.695 157.871 170.312C158.231 170.93 158.411 171.652 158.411 172.477C158.411 173.311 158.226 174.032 157.854 174.642C157.487 175.252 156.97 175.722 156.303 176.051C155.64 176.381 154.866 176.545 153.979 176.545H150.979V174.091H153.343C153.714 174.091 154.031 174.027 154.292 173.898C154.557 173.765 154.76 173.578 154.9 173.335C155.044 173.093 155.116 172.807 155.116 172.477C155.116 172.144 155.044 171.86 154.9 171.625C154.76 171.386 154.557 171.205 154.292 171.08C154.031 170.951 153.714 170.886 153.343 170.886H152.229V180H149.07ZM162.781 180V177.727L167.121 174.136C167.409 173.898 167.656 173.674 167.86 173.466C168.068 173.254 168.228 173.036 168.337 172.812C168.451 172.589 168.508 172.341 168.508 172.068C168.508 171.769 168.443 171.513 168.315 171.301C168.19 171.089 168.015 170.926 167.792 170.812C167.568 170.695 167.311 170.636 167.019 170.636C166.728 170.636 166.47 170.695 166.246 170.812C166.027 170.93 165.856 171.102 165.735 171.33C165.614 171.557 165.553 171.833 165.553 172.159H162.553C162.553 171.341 162.737 170.636 163.104 170.045C163.472 169.455 163.991 169 164.661 168.682C165.332 168.364 166.118 168.205 167.019 168.205C167.951 168.205 168.758 168.354 169.44 168.653C170.125 168.949 170.654 169.366 171.025 169.903C171.4 170.441 171.587 171.072 171.587 171.795C171.587 172.242 171.495 172.687 171.309 173.131C171.123 173.57 170.79 174.057 170.309 174.591C169.828 175.125 169.144 175.761 168.258 176.5L167.167 177.409V177.477H171.712V180H162.781ZM177.783 180.159C176.889 180.159 176.096 180.002 175.403 179.688C174.713 179.369 174.17 178.932 173.772 178.375C173.378 177.818 173.177 177.178 173.17 176.455H176.238C176.249 176.856 176.405 177.176 176.704 177.415C177.007 177.653 177.367 177.773 177.783 177.773C178.105 177.773 178.389 177.705 178.636 177.568C178.882 177.428 179.075 177.231 179.215 176.977C179.355 176.723 179.424 176.428 179.42 176.091C179.424 175.75 179.355 175.455 179.215 175.205C179.075 174.951 178.882 174.756 178.636 174.619C178.389 174.479 178.105 174.409 177.783 174.409C177.45 174.409 177.141 174.491 176.857 174.653C176.577 174.812 176.371 175.034 176.238 175.318L173.465 174.773L173.92 168.364H181.738V170.886H176.511L176.283 173.455H176.352C176.533 173.102 176.848 172.811 177.295 172.58C177.742 172.345 178.261 172.227 178.852 172.227C179.545 172.227 180.162 172.388 180.704 172.71C181.249 173.032 181.679 173.477 181.994 174.045C182.312 174.61 182.469 175.261 182.465 176C182.469 176.811 182.276 177.53 181.886 178.159C181.499 178.784 180.956 179.275 180.255 179.631C179.554 179.983 178.73 180.159 177.783 180.159ZM183.487 170.909V168.364H193.6V170.909H190.1V180H186.987V170.909H183.487ZM194.789 180V168.364H197.948V172.909H202.13V168.364H205.289V180H202.13V175.455H197.948V180H194.789ZM215.749 173V175.364H210.295V173H215.749ZM220.781 180V177.727L225.121 174.136C225.409 173.898 225.656 173.674 225.86 173.466C226.068 173.254 226.228 173.036 226.337 172.812C226.451 172.589 226.508 172.341 226.508 172.068C226.508 171.769 226.443 171.513 226.315 171.301C226.19 171.089 226.015 170.926 225.792 170.812C225.568 170.695 225.311 170.636 225.019 170.636C224.728 170.636 224.47 170.695 224.246 170.812C224.027 170.93 223.856 171.102 223.735 171.33C223.614 171.557 223.553 171.833 223.553 172.159H220.553C220.553 171.341 220.737 170.636 221.104 170.045C221.472 169.455 221.991 169 222.661 168.682C223.332 168.364 224.118 168.205 225.019 168.205C225.951 168.205 226.758 168.354 227.44 168.653C228.125 168.949 228.654 169.366 229.025 169.903C229.4 170.441 229.587 171.072 229.587 171.795C229.587 172.242 229.495 172.687 229.309 173.131C229.123 173.57 228.79 174.057 228.309 174.591C227.828 175.125 227.144 175.761 226.258 176.5L225.167 177.409V177.477H229.712V180H220.781ZM235.988 180.159C235.31 180.159 234.666 180.053 234.056 179.841C233.45 179.625 232.912 179.286 232.442 178.824C231.973 178.362 231.603 177.759 231.335 177.017C231.069 176.275 230.939 175.375 230.942 174.318C230.946 173.375 231.067 172.527 231.306 171.773C231.549 171.019 231.891 170.377 232.335 169.847C232.781 169.316 233.316 168.911 233.937 168.631C234.558 168.347 235.249 168.205 236.011 168.205C236.867 168.205 237.621 168.369 238.272 168.699C238.924 169.028 239.442 169.47 239.829 170.023C240.219 170.572 240.446 171.178 240.511 171.841H237.397C237.325 171.511 237.158 171.271 236.897 171.119C236.639 170.964 236.344 170.886 236.011 170.886C235.348 170.886 234.861 171.174 234.55 171.75C234.244 172.326 234.086 173.083 234.079 174.023H234.147C234.295 173.667 234.518 173.362 234.817 173.108C235.117 172.854 235.465 172.659 235.863 172.523C236.261 172.386 236.681 172.318 237.124 172.318C237.829 172.318 238.444 172.477 238.971 172.795C239.501 173.114 239.914 173.549 240.21 174.102C240.505 174.655 240.651 175.288 240.647 176C240.651 176.833 240.454 177.562 240.056 178.188C239.662 178.812 239.115 179.297 238.414 179.642C237.713 179.987 236.905 180.159 235.988 180.159ZM235.965 177.773C236.28 177.773 236.558 177.701 236.8 177.557C237.047 177.413 237.238 177.216 237.374 176.966C237.514 176.716 237.583 176.432 237.579 176.114C237.583 175.792 237.514 175.508 237.374 175.261C237.238 175.011 237.047 174.814 236.8 174.67C236.558 174.527 236.28 174.455 235.965 174.455C235.734 174.455 235.52 174.496 235.323 174.58C235.13 174.659 234.961 174.775 234.817 174.926C234.674 175.074 234.56 175.25 234.477 175.455C234.397 175.655 234.355 175.875 234.352 176.114C234.355 176.432 234.427 176.716 234.567 176.966C234.708 177.216 234.899 177.413 235.141 177.557C235.384 177.701 235.658 177.773 235.965 177.773ZM241.737 170.909V168.364H251.85V170.909H248.35V180H245.237V170.909H241.737ZM253.039 180V168.364H256.198V172.909H260.38V168.364H263.539V180H260.38V175.455H256.198V180H253.039Z" fill="#9A2B2B"/>
<path d="M178.118 203L175.116 192.818H178.198L179.59 199.082H179.67L181.32 192.818H183.746L185.397 199.102H185.476L186.868 192.818H189.951L186.948 203H184.303L182.573 197.312H182.493L180.763 203H178.118ZM193.656 203.139C192.841 203.139 192.138 202.983 191.548 202.672C190.961 202.357 190.509 201.906 190.191 201.32C189.876 200.73 189.718 200.024 189.718 199.202C189.718 198.413 189.877 197.723 190.196 197.134C190.514 196.544 190.963 196.085 191.543 195.756C192.123 195.428 192.807 195.264 193.596 195.264C194.173 195.264 194.695 195.354 195.162 195.533C195.63 195.712 196.029 195.972 196.36 196.313C196.692 196.651 196.947 197.062 197.126 197.546C197.305 198.03 197.395 198.575 197.395 199.182V199.818H190.574V198.307H194.869C194.866 198.088 194.809 197.896 194.7 197.73C194.594 197.561 194.45 197.43 194.267 197.337C194.088 197.241 193.885 197.193 193.656 197.193C193.434 197.193 193.23 197.241 193.044 197.337C192.859 197.43 192.71 197.559 192.597 197.725C192.488 197.891 192.43 198.085 192.423 198.307V199.938C192.423 200.183 192.474 200.402 192.577 200.594C192.68 200.786 192.827 200.937 193.02 201.046C193.212 201.156 193.444 201.21 193.716 201.21C193.904 201.21 194.077 201.184 194.233 201.131C194.392 201.078 194.528 201.001 194.64 200.902C194.753 200.799 194.836 200.677 194.889 200.534H197.395C197.308 201.064 197.105 201.525 196.783 201.916C196.462 202.304 196.036 202.606 195.505 202.821C194.978 203.033 194.362 203.139 193.656 203.139ZM198.475 203V192.818H201.219V196.696H201.259C201.358 196.437 201.504 196.201 201.696 195.985C201.888 195.766 202.127 195.592 202.412 195.463C202.697 195.33 203.029 195.264 203.406 195.264C203.91 195.264 204.389 195.398 204.843 195.667C205.301 195.935 205.672 196.358 205.957 196.935C206.245 197.511 206.389 198.26 206.389 199.182C206.389 200.063 206.252 200.794 205.977 201.374C205.705 201.954 205.34 202.387 204.883 202.672C204.429 202.957 203.93 203.099 203.387 203.099C203.029 203.099 202.709 203.041 202.427 202.925C202.149 202.806 201.91 202.645 201.711 202.443C201.516 202.238 201.365 202.006 201.259 201.747H201.199V203H198.475ZM201.159 199.182C201.159 199.553 201.207 199.875 201.303 200.146C201.403 200.415 201.542 200.624 201.721 200.773C201.903 200.919 202.12 200.991 202.372 200.991C202.624 200.991 202.838 200.92 203.014 200.778C203.193 200.632 203.329 200.425 203.421 200.156C203.517 199.884 203.566 199.56 203.566 199.182C203.566 198.804 203.517 198.481 203.421 198.212C203.329 197.941 203.193 197.733 203.014 197.591C202.838 197.445 202.624 197.372 202.372 197.372C202.12 197.372 201.903 197.445 201.721 197.591C201.542 197.733 201.403 197.941 201.303 198.212C201.207 198.481 201.159 198.804 201.159 199.182ZM210.065 192.818L211.735 195.781H211.815L213.505 192.818H216.587L213.545 197.909L216.707 203H213.545L211.815 199.977H211.735L210.005 203H206.863L209.985 197.909L206.962 192.818H210.065Z" fill="#3B3636"/>
<rect x="96" width="200" height="40" rx="20" fill="#9A2B2B"/>
<path d="M120.54 15.6364V12.4545H133.182V15.6364H128.807V27H124.915V15.6364H120.54ZM148.075 19.7273C148.075 21.3466 147.76 22.7126 147.131 23.8253C146.501 24.9332 145.651 25.7737 144.581 26.3466C143.511 26.9148 142.318 27.1989 141.001 27.1989C139.676 27.1989 138.478 26.9124 137.408 26.3395C136.342 25.7618 135.495 24.919 134.865 23.8111C134.24 22.6984 133.928 21.3371 133.928 19.7273C133.928 18.108 134.24 16.7443 134.865 15.6364C135.495 14.5237 136.342 13.6832 137.408 13.1151C138.478 12.5421 139.676 12.2557 141.001 12.2557C142.318 12.2557 143.511 12.5421 144.581 13.1151C145.651 13.6832 146.501 14.5237 147.131 15.6364C147.76 16.7443 148.075 18.108 148.075 19.7273ZM144.013 19.7273C144.013 18.8561 143.897 18.1222 143.665 17.5256C143.438 16.9242 143.099 16.4697 142.649 16.1619C142.204 15.8494 141.655 15.6932 141.001 15.6932C140.348 15.6932 139.796 15.8494 139.347 16.1619C138.902 16.4697 138.563 16.9242 138.331 17.5256C138.104 18.1222 137.99 18.8561 137.99 19.7273C137.99 20.5985 138.104 21.3348 138.331 21.9361C138.563 22.5327 138.902 22.9872 139.347 23.2997C139.796 23.6075 140.348 23.7614 141.001 23.7614C141.655 23.7614 142.204 23.6075 142.649 23.2997C143.099 22.9872 143.438 22.5327 143.665 21.9361C143.897 21.3348 144.013 20.5985 144.013 19.7273ZM149.902 27V12.4545H153.851V18.3352H154.05L158.425 12.4545H163.027L158.113 18.9318L163.141 27H158.425L155.158 21.5455L153.851 23.25V27H149.902ZM163.603 12.4545H168.006L170.847 18.3636H170.961L173.801 12.4545H178.205L172.864 22.4261V27H168.944V22.4261L163.603 12.4545ZM192.567 19.7273C192.567 21.3466 192.253 22.7126 191.623 23.8253C190.993 24.9332 190.143 25.7737 189.073 26.3466C188.003 26.9148 186.81 27.1989 185.494 27.1989C184.168 27.1989 182.97 26.9124 181.9 26.3395C180.835 25.7618 179.987 24.919 179.357 23.8111C178.732 22.6984 178.42 21.3371 178.42 19.7273C178.42 18.108 178.732 16.7443 179.357 15.6364C179.987 14.5237 180.835 13.6832 181.9 13.1151C182.97 12.5421 184.168 12.2557 185.494 12.2557C186.81 12.2557 188.003 12.5421 189.073 13.1151C190.143 13.6832 190.993 14.5237 191.623 15.6364C192.253 16.7443 192.567 18.108 192.567 19.7273ZM188.505 19.7273C188.505 18.8561 188.389 18.1222 188.157 17.5256C187.93 16.9242 187.591 16.4697 187.141 16.1619C186.696 15.8494 186.147 15.6932 185.494 15.6932C184.84 15.6932 184.289 15.8494 183.839 16.1619C183.394 16.4697 183.055 16.9242 182.823 17.5256C182.596 18.1222 182.482 18.8561 182.482 19.7273C182.482 20.5985 182.596 21.3348 182.823 21.9361C183.055 22.5327 183.394 22.9872 183.839 23.2997C184.289 23.6075 184.84 23.7614 185.494 23.7614C186.147 23.7614 186.696 23.6075 187.141 23.2997C187.591 22.9872 187.93 22.5327 188.157 21.9361C188.389 21.3348 188.505 20.5985 188.505 19.7273ZM197.34 25.0114L197.283 25.8068C197.236 26.4886 197.122 27.142 196.942 27.767C196.767 28.392 196.58 28.946 196.381 29.429C196.187 29.9119 196.033 30.286 195.92 30.5511H193.505C193.581 30.286 193.687 29.9025 193.825 29.4006C193.967 28.9034 194.094 28.34 194.208 27.7102C194.326 27.0852 194.386 26.4508 194.386 25.8068V25.0114H197.34ZM208.69 12.4545H212.582V22.4261C212.577 23.3731 212.338 24.2064 211.864 24.9261C211.396 25.6411 210.747 26.1998 209.918 26.6023C209.094 27 208.145 27.1989 207.07 27.1989C206.138 27.1989 205.285 27.0379 204.513 26.7159C203.742 26.3892 203.126 25.8778 202.667 25.1818C202.208 24.4811 201.98 23.572 201.985 22.4545H205.934C205.948 22.8191 206.01 23.1269 206.119 23.3778C206.232 23.6288 206.388 23.8182 206.587 23.946C206.791 24.0691 207.037 24.1307 207.326 24.1307C207.62 24.1307 207.866 24.0668 208.065 23.9389C208.268 23.8111 208.422 23.6217 208.526 23.3707C208.63 23.1151 208.685 22.8002 208.69 22.4261V12.4545ZM218.232 27H213.97L218.771 12.4545H224.169L228.97 27H224.709L221.527 16.4602H221.413L218.232 27ZM217.436 21.2614H225.447V24.2159H217.436V21.2614ZM230.371 27V12.4545H236.65C237.729 12.4545 238.674 12.6676 239.483 13.0938C240.293 13.5199 240.923 14.1188 241.373 14.8906C241.822 15.6624 242.047 16.5644 242.047 17.5966C242.047 18.6383 241.815 19.5402 241.351 20.3026C240.892 21.0649 240.246 21.652 239.412 22.0639C238.584 22.4759 237.615 22.6818 236.507 22.6818H232.757V19.6136H235.712C236.176 19.6136 236.571 19.5331 236.898 19.3722C237.23 19.2064 237.483 18.9721 237.658 18.669C237.838 18.366 237.928 18.0085 237.928 17.5966C237.928 17.1799 237.838 16.8248 237.658 16.5312C237.483 16.233 237.23 16.0057 236.898 15.8494C236.571 15.6884 236.176 15.608 235.712 15.608H234.32V27H230.371ZM245.458 27H241.197L245.998 12.4545H251.396L256.197 27H251.935L248.754 16.4602H248.64L245.458 27ZM244.663 21.2614H252.674V24.2159H244.663V21.2614ZM270.183 12.4545V27H266.887L261.632 19.358H261.547V27H257.598V12.4545H260.95L266.12 20.0682H266.234V12.4545H270.183Z" fill="white"/>
</svg>
