<svg width="392" height="231" viewBox="0 0 392 231" fill="none" xmlns="http://www.w3.org/2000/svg">
<rect x="-2.5" y="2.5" width="387" height="209" rx="17.5" transform="matrix(-1 0 0 1 387 17)" fill="#EEEDE2" stroke="#FFAA09" stroke-width="5"/>
<path d="M135.226 82C135.196 81.6212 135.054 81.3258 134.8 81.1136C134.55 80.9015 134.169 80.7955 133.658 80.7955C133.332 80.7955 133.065 80.8352 132.857 80.9148C132.652 80.9905 132.5 81.0947 132.402 81.2273C132.304 81.3598 132.252 81.5114 132.249 81.6818C132.241 81.822 132.266 81.9489 132.322 82.0625C132.383 82.1723 132.478 82.2727 132.607 82.3636C132.735 82.4508 132.9 82.5303 133.101 82.6023C133.302 82.6742 133.54 82.7386 133.817 82.7955L134.771 83C135.415 83.1364 135.966 83.3163 136.425 83.5398C136.883 83.7633 137.258 84.0265 137.55 84.3295C137.841 84.6288 138.055 84.9659 138.192 85.3409C138.332 85.7159 138.404 86.125 138.408 86.5682C138.404 87.3333 138.213 87.9811 137.834 88.5114C137.455 89.0417 136.913 89.4451 136.209 89.7216C135.508 89.9981 134.665 90.1364 133.68 90.1364C132.669 90.1364 131.786 89.9867 131.033 89.6875C130.283 89.3883 129.699 88.928 129.283 88.3068C128.87 87.6818 128.661 86.8826 128.658 85.9091H131.658C131.677 86.2652 131.766 86.5644 131.925 86.8068C132.084 87.0492 132.307 87.233 132.595 87.358C132.887 87.483 133.233 87.5455 133.635 87.5455C133.972 87.5455 134.254 87.5038 134.482 87.4205C134.709 87.3371 134.881 87.2216 134.999 87.0739C135.116 86.9261 135.177 86.7576 135.18 86.5682C135.177 86.3902 135.118 86.2348 135.004 86.1023C134.894 85.9659 134.713 85.8447 134.459 85.7386C134.205 85.6288 133.862 85.5265 133.43 85.4318L132.271 85.1818C131.241 84.9583 130.429 84.5852 129.834 84.0625C129.243 83.536 128.949 82.8182 128.953 81.9091C128.949 81.1705 129.146 80.5246 129.544 79.9716C129.946 79.4148 130.5 78.9811 131.209 78.6705C131.921 78.3598 132.737 78.2045 133.658 78.2045C134.597 78.2045 135.41 78.3617 136.095 78.6761C136.781 78.9905 137.309 79.4337 137.68 80.0057C138.055 80.5739 138.245 81.2386 138.249 82H135.226ZM139.609 90V78.3636H147.996V80.9091H142.768V82.9091H147.564V85.4545H142.768V87.4545H147.973V90H139.609ZM149.562 90V78.3636H154.585C155.449 78.3636 156.205 78.5341 156.852 78.875C157.5 79.2159 158.004 79.6951 158.364 80.3125C158.723 80.9299 158.903 81.6515 158.903 82.4773C158.903 83.3106 158.718 84.0322 158.347 84.642C157.979 85.2519 157.462 85.7216 156.795 86.0511C156.133 86.3807 155.358 86.5455 154.472 86.5455H151.472V84.0909H153.835C154.206 84.0909 154.523 84.0265 154.784 83.8977C155.049 83.7652 155.252 83.5777 155.392 83.3352C155.536 83.0928 155.608 82.8068 155.608 82.4773C155.608 82.1439 155.536 81.8598 155.392 81.625C155.252 81.3864 155.049 81.2045 154.784 81.0795C154.523 80.9508 154.206 80.8864 153.835 80.8864H152.722V90H149.562ZM168.977 78.3636V90H165.818V81.2727H165.75L163.205 82.7955V80.1136L166.068 78.3636H168.977ZM171.253 88.1818V85.7273L175.935 78.3636H178.162V81.6364H176.889L174.366 85.6364V85.7273H181.276V88.1818H171.253ZM176.912 90V87.4318L176.98 86.3636V78.3636H179.935V90H176.912ZM182.26 80.9091V78.3636H192.374V80.9091H188.874V90H185.76V80.9091H182.26ZM193.562 90V78.3636H196.722V82.9091H200.903V78.3636H204.062V90H200.903V85.4545H196.722V90H193.562ZM214.523 83V85.3636H209.068V83H214.523ZM219.554 90V87.7273L223.895 84.1364C224.183 83.8977 224.429 83.6742 224.634 83.4659C224.842 83.2538 225.001 83.036 225.111 82.8125C225.224 82.589 225.281 82.3409 225.281 82.0682C225.281 81.7689 225.217 81.5133 225.088 81.3011C224.963 81.089 224.789 80.9261 224.565 80.8125C224.342 80.6951 224.084 80.6364 223.793 80.6364C223.501 80.6364 223.243 80.6951 223.02 80.8125C222.8 80.9299 222.63 81.1023 222.509 81.3295C222.387 81.5568 222.327 81.8333 222.327 82.1591H219.327C219.327 81.3409 219.51 80.6364 219.878 80.0455C220.245 79.4545 220.764 79 221.435 78.6818C222.105 78.3636 222.891 78.2045 223.793 78.2045C224.724 78.2045 225.531 78.3542 226.213 78.6534C226.899 78.9489 227.427 79.3655 227.798 79.9034C228.173 80.4413 228.361 81.072 228.361 81.7955C228.361 82.2424 228.268 82.6875 228.082 83.1307C227.897 83.5701 227.563 84.0568 227.082 84.5909C226.601 85.125 225.918 85.7614 225.031 86.5L223.94 87.4091V87.4773H228.486V90H219.554ZM234.966 90.3182C233.909 90.3144 232.996 90.0701 232.227 89.5852C231.458 89.1004 230.866 88.4015 230.449 87.4886C230.032 86.5758 229.826 85.4811 229.83 84.2045C229.833 82.9242 230.042 81.8371 230.455 80.9432C230.871 80.0492 231.462 79.3693 232.227 78.9034C232.996 78.4375 233.909 78.2045 234.966 78.2045C236.023 78.2045 236.936 78.4394 237.705 78.9091C238.473 79.375 239.066 80.0549 239.483 80.9489C239.9 81.8428 240.106 82.928 240.102 84.2045C240.102 85.4886 239.894 86.5871 239.477 87.5C239.061 88.4129 238.468 89.1117 237.699 89.5966C236.934 90.0777 236.023 90.3182 234.966 90.3182ZM234.966 87.75C235.511 87.75 235.958 87.4659 236.307 86.8977C236.659 86.3258 236.833 85.428 236.83 84.2045C236.83 83.4053 236.75 82.7519 236.591 82.2443C236.432 81.7367 236.212 81.3617 235.932 81.1193C235.652 80.8731 235.33 80.75 234.966 80.75C234.42 80.75 233.975 81.0265 233.631 81.5795C233.286 82.1326 233.11 83.0076 233.102 84.2045C233.098 85.0189 233.176 85.6894 233.335 86.2159C233.494 86.7386 233.714 87.125 233.994 87.375C234.278 87.625 234.602 87.75 234.966 87.75ZM241.244 80.9091V78.3636H251.358V80.9091H247.858V90H244.744V80.9091H241.244ZM252.547 90V78.3636H255.706V82.9091H259.888V78.3636H263.047V90H259.888V85.4545H255.706V90H252.547Z" fill="#9A2B2B"/>
<path d="M87.2191 106C87.1926 105.669 87.0683 105.41 86.8462 105.224C86.6275 105.039 86.2944 104.946 85.8469 104.946C85.5619 104.946 85.3282 104.981 85.146 105.05C84.967 105.117 84.8344 105.208 84.7482 105.324C84.6621 105.44 84.6173 105.572 84.614 105.722C84.6074 105.844 84.6289 105.955 84.6786 106.055C84.7317 106.151 84.8145 106.239 84.9272 106.318C85.0399 106.394 85.1841 106.464 85.3597 106.527C85.5354 106.59 85.7442 106.646 85.9862 106.696L86.8214 106.875C87.3848 106.994 87.8671 107.152 88.2681 107.347C88.6692 107.543 88.9973 107.773 89.2525 108.038C89.5077 108.3 89.695 108.595 89.8143 108.923C89.9369 109.251 89.9999 109.609 90.0032 109.997C89.9999 110.667 89.8325 111.233 89.5011 111.697C89.1696 112.161 88.6957 112.514 88.0792 112.756C87.466 112.998 86.7286 113.119 85.8668 113.119C84.9819 113.119 84.2096 112.988 83.5501 112.727C82.8938 112.465 82.3834 112.062 82.0188 111.518C81.6576 110.972 81.4753 110.272 81.4719 109.42H84.0969C84.1135 109.732 84.1914 109.994 84.3306 110.206C84.4698 110.418 84.6654 110.579 84.9173 110.688C85.1725 110.798 85.4757 110.852 85.8271 110.852C86.122 110.852 86.369 110.816 86.5678 110.743C86.7667 110.67 86.9175 110.569 87.0202 110.44C87.123 110.31 87.176 110.163 87.1793 109.997C87.176 109.841 87.1246 109.705 87.0252 109.589C86.9291 109.47 86.77 109.364 86.5479 109.271C86.3259 109.175 86.0259 109.086 85.6481 109.003L84.6339 108.784C83.7324 108.589 83.0214 108.262 82.5011 107.805C81.984 107.344 81.7272 106.716 81.7305 105.92C81.7272 105.274 81.8995 104.709 82.2475 104.225C82.5988 103.738 83.0844 103.358 83.7042 103.087C84.3273 102.815 85.0415 102.679 85.8469 102.679C86.6689 102.679 87.3799 102.817 87.9798 103.092C88.5797 103.367 89.042 103.754 89.3668 104.255C89.695 104.752 89.8607 105.334 89.864 106H87.2191ZM96.0462 109.659V105.364H98.7905V113H96.1854V111.548H96.1058C95.9401 112.036 95.6501 112.417 95.2358 112.692C94.8215 112.964 94.3293 113.099 93.7592 113.099C93.2256 113.099 92.7583 112.977 92.3572 112.732C91.9595 112.486 91.6496 112.148 91.4276 111.717C91.2088 111.286 91.0978 110.793 91.0945 110.236V105.364H93.8388V109.659C93.8421 110.037 93.9382 110.334 94.1271 110.549C94.3194 110.764 94.5878 110.872 94.9325 110.872C95.1612 110.872 95.3584 110.824 95.5241 110.728C95.6932 110.629 95.8224 110.489 95.9119 110.31C96.0047 110.128 96.0495 109.911 96.0462 109.659ZM100.186 115.864V105.364H102.911V106.696H102.97C103.07 106.437 103.216 106.201 103.408 105.985C103.6 105.766 103.839 105.592 104.124 105.463C104.409 105.33 104.74 105.264 105.118 105.264C105.622 105.264 106.101 105.398 106.555 105.667C107.012 105.935 107.383 106.358 107.669 106.935C107.957 107.511 108.101 108.26 108.101 109.182C108.101 110.063 107.963 110.794 107.688 111.374C107.417 111.954 107.052 112.387 106.595 112.672C106.141 112.957 105.642 113.099 105.098 113.099C104.74 113.099 104.42 113.041 104.139 112.925C103.86 112.806 103.622 112.645 103.423 112.443C103.227 112.238 103.076 112.006 102.97 111.747H102.931V115.864H100.186ZM102.871 109.182C102.871 109.553 102.919 109.875 103.015 110.146C103.115 110.415 103.254 110.624 103.433 110.773C103.615 110.919 103.832 110.991 104.084 110.991C104.336 110.991 104.55 110.92 104.725 110.778C104.904 110.632 105.04 110.425 105.133 110.156C105.229 109.884 105.277 109.56 105.277 109.182C105.277 108.804 105.229 108.481 105.133 108.212C105.04 107.941 104.904 107.733 104.725 107.591C104.55 107.445 104.336 107.372 104.084 107.372C103.832 107.372 103.615 107.445 103.433 107.591C103.254 107.733 103.115 107.941 103.015 108.212C102.919 108.481 102.871 108.804 102.871 109.182ZM112.91 113.139C112.094 113.139 111.392 112.983 110.802 112.672C110.215 112.357 109.763 111.906 109.445 111.32C109.13 110.73 108.972 110.024 108.972 109.202C108.972 108.413 109.131 107.723 109.45 107.134C109.768 106.544 110.217 106.085 110.797 105.756C111.377 105.428 112.061 105.264 112.85 105.264C113.427 105.264 113.949 105.354 114.416 105.533C114.884 105.712 115.283 105.972 115.614 106.313C115.946 106.651 116.201 107.062 116.38 107.546C116.559 108.03 116.648 108.575 116.648 109.182V109.818H109.827V108.307H114.123C114.12 108.088 114.063 107.896 113.954 107.73C113.848 107.561 113.704 107.43 113.521 107.337C113.342 107.241 113.138 107.193 112.91 107.193C112.688 107.193 112.484 107.241 112.298 107.337C112.113 107.43 111.964 107.559 111.851 107.725C111.741 107.891 111.683 108.085 111.677 108.307V109.938C111.677 110.183 111.728 110.402 111.831 110.594C111.934 110.786 112.081 110.937 112.273 111.046C112.466 111.156 112.698 111.21 112.969 111.21C113.158 111.21 113.331 111.184 113.487 111.131C113.646 111.078 113.781 111.001 113.894 110.902C114.007 110.799 114.09 110.677 114.143 110.534H116.648C116.562 111.064 116.358 111.525 116.037 111.916C115.715 112.304 115.29 112.606 114.759 112.821C114.232 113.033 113.616 113.139 112.91 113.139ZM117.768 113V105.364H120.433V106.815H120.513C120.652 106.278 120.872 105.886 121.174 105.637C121.479 105.388 121.835 105.264 122.243 105.264C122.362 105.264 122.48 105.274 122.596 105.294C122.715 105.311 122.829 105.335 122.939 105.369V107.71C122.803 107.664 122.635 107.629 122.437 107.606C122.238 107.583 122.067 107.571 121.925 107.571C121.656 107.571 121.414 107.632 121.199 107.755C120.987 107.874 120.819 108.043 120.697 108.262C120.574 108.478 120.513 108.731 120.513 109.023V113H117.768ZM128.707 105.364V107.352H123.676V105.364H128.707ZM124.65 103.534H127.395V110.544C127.395 110.65 127.413 110.74 127.449 110.812C127.486 110.882 127.542 110.935 127.618 110.972C127.694 111.005 127.792 111.021 127.912 111.021C127.994 111.021 128.091 111.011 128.2 110.991C128.313 110.972 128.395 110.955 128.449 110.942L128.846 112.871C128.724 112.907 128.548 112.952 128.319 113.005C128.094 113.058 127.825 113.093 127.514 113.109C126.884 113.143 126.355 113.078 125.928 112.915C125.5 112.75 125.179 112.49 124.963 112.135C124.748 111.78 124.644 111.336 124.65 110.803V103.534ZM133.404 113.139C132.589 113.139 131.886 112.983 131.296 112.672C130.709 112.357 130.257 111.906 129.939 111.32C129.624 110.73 129.466 110.024 129.466 109.202C129.466 108.413 129.626 107.723 129.944 107.134C130.262 106.544 130.711 106.085 131.291 105.756C131.871 105.428 132.555 105.264 133.344 105.264C133.921 105.264 134.443 105.354 134.91 105.533C135.378 105.712 135.777 105.972 136.108 106.313C136.44 106.651 136.695 107.062 136.874 107.546C137.053 108.03 137.143 108.575 137.143 109.182V109.818H130.322V108.307H134.617C134.614 108.088 134.557 107.896 134.448 107.73C134.342 107.561 134.198 107.43 134.015 107.337C133.836 107.241 133.633 107.193 133.404 107.193C133.182 107.193 132.978 107.241 132.792 107.337C132.607 107.43 132.458 107.559 132.345 107.725C132.236 107.891 132.178 108.085 132.171 108.307V109.938C132.171 110.183 132.222 110.402 132.325 110.594C132.428 110.786 132.575 110.937 132.768 111.046C132.96 111.156 133.192 111.21 133.464 111.21C133.653 111.21 133.825 111.184 133.981 111.131C134.14 111.078 134.276 111.001 134.388 110.902C134.501 110.799 134.584 110.677 134.637 110.534H137.143C137.056 111.064 136.853 111.525 136.531 111.916C136.21 112.304 135.784 112.606 135.253 112.821C134.726 113.033 134.11 113.139 133.404 113.139ZM140.39 113.119C139.903 113.119 139.472 113.04 139.098 112.881C138.726 112.718 138.435 112.473 138.223 112.145C138.011 111.817 137.904 111.399 137.904 110.892C137.904 110.474 137.976 110.118 138.118 109.823C138.261 109.525 138.46 109.281 138.715 109.092C138.97 108.903 139.267 108.759 139.605 108.66C139.946 108.56 140.314 108.496 140.708 108.466C141.136 108.433 141.479 108.393 141.738 108.347C141.999 108.297 142.188 108.229 142.304 108.143C142.42 108.053 142.478 107.936 142.478 107.79V107.77C142.478 107.571 142.402 107.419 142.25 107.312C142.097 107.206 141.902 107.153 141.663 107.153C141.401 107.153 141.187 107.211 141.022 107.327C140.859 107.44 140.761 107.614 140.728 107.849H138.203C138.236 107.385 138.383 106.958 138.645 106.567C138.91 106.172 139.297 105.857 139.804 105.622C140.311 105.384 140.944 105.264 141.703 105.264C142.25 105.264 142.74 105.329 143.174 105.458C143.609 105.584 143.978 105.761 144.283 105.99C144.588 106.215 144.82 106.481 144.979 106.786C145.141 107.087 145.223 107.415 145.223 107.77V113H142.657V111.926H142.598C142.445 112.211 142.26 112.442 142.041 112.617C141.825 112.793 141.578 112.92 141.3 113C141.025 113.08 140.722 113.119 140.39 113.119ZM141.285 111.389C141.494 111.389 141.69 111.346 141.872 111.26C142.057 111.174 142.208 111.049 142.324 110.887C142.44 110.725 142.498 110.527 142.498 110.295V109.659C142.425 109.689 142.347 109.717 142.265 109.744C142.185 109.77 142.099 109.795 142.006 109.818C141.917 109.841 141.82 109.863 141.718 109.883C141.618 109.903 141.514 109.921 141.404 109.938C141.192 109.971 141.018 110.025 140.882 110.102C140.75 110.174 140.65 110.266 140.584 110.375C140.521 110.481 140.49 110.6 140.49 110.733C140.49 110.945 140.564 111.107 140.713 111.22C140.863 111.333 141.053 111.389 141.285 111.389ZM146.534 113V105.364H149.139V106.815H149.219C149.378 106.338 149.649 105.96 150.034 105.682C150.418 105.403 150.876 105.264 151.406 105.264C151.943 105.264 152.405 105.407 152.793 105.692C153.181 105.973 153.415 106.348 153.494 106.815H153.574C153.703 106.348 153.978 105.973 154.399 105.692C154.82 105.407 155.314 105.264 155.881 105.264C156.613 105.264 157.206 105.5 157.66 105.97C158.118 106.441 158.346 107.067 158.346 107.849V113H155.602V108.545C155.602 108.211 155.518 107.949 155.349 107.76C155.18 107.568 154.952 107.472 154.667 107.472C154.386 107.472 154.162 107.568 153.996 107.76C153.834 107.949 153.753 108.211 153.753 108.545V113H151.128V108.545C151.128 108.211 151.043 107.949 150.874 107.76C150.705 107.568 150.478 107.472 150.193 107.472C150.004 107.472 149.842 107.515 149.706 107.601C149.57 107.687 149.464 107.811 149.388 107.974C149.315 108.133 149.278 108.323 149.278 108.545V113H146.534ZM162.449 113V102.818H165.213V106.935H165.353L168.415 102.818H171.637L168.196 107.352L171.716 113H168.415L166.128 109.182L165.213 110.375V113H162.449ZM175.615 113.139C174.787 113.139 174.077 112.975 173.487 112.647C172.897 112.316 172.445 111.855 172.13 111.265C171.815 110.672 171.658 109.984 171.658 109.202C171.658 108.42 171.815 107.733 172.13 107.143C172.445 106.55 172.897 106.089 173.487 105.761C174.077 105.43 174.787 105.264 175.615 105.264C176.444 105.264 177.153 105.43 177.743 105.761C178.333 106.089 178.785 106.55 179.1 107.143C179.415 107.733 179.573 108.42 179.573 109.202C179.573 109.984 179.415 110.672 179.1 111.265C178.785 111.855 178.333 112.316 177.743 112.647C177.153 112.975 176.444 113.139 175.615 113.139ZM175.635 111.111C175.867 111.111 176.068 111.033 176.237 110.877C176.406 110.721 176.537 110.499 176.629 110.211C176.722 109.923 176.769 109.58 176.769 109.182C176.769 108.781 176.722 108.438 176.629 108.153C176.537 107.864 176.406 107.642 176.237 107.487C176.068 107.331 175.867 107.253 175.635 107.253C175.39 107.253 175.179 107.331 175.004 107.487C174.828 107.642 174.694 107.864 174.601 108.153C174.508 108.438 174.462 108.781 174.462 109.182C174.462 109.58 174.508 109.923 174.601 110.211C174.694 110.499 174.828 110.721 175.004 110.877C175.179 111.033 175.39 111.111 175.635 111.111ZM180.686 113V105.364H183.351V106.815H183.431C183.57 106.278 183.79 105.886 184.092 105.637C184.397 105.388 184.753 105.264 185.161 105.264C185.28 105.264 185.398 105.274 185.514 105.294C185.633 105.311 185.747 105.335 185.857 105.369V107.71C185.721 107.664 185.553 107.629 185.355 107.606C185.156 107.583 184.985 107.571 184.843 107.571C184.574 107.571 184.332 107.632 184.117 107.755C183.905 107.874 183.737 108.043 183.615 108.262C183.492 108.478 183.431 108.731 183.431 109.023V113H180.686ZM189.978 113.139C189.163 113.139 188.46 112.983 187.87 112.672C187.284 112.357 186.831 111.906 186.513 111.32C186.198 110.73 186.041 110.024 186.041 109.202C186.041 108.413 186.2 107.723 186.518 107.134C186.836 106.544 187.285 106.085 187.865 105.756C188.445 105.428 189.13 105.264 189.919 105.264C190.495 105.264 191.017 105.354 191.485 105.533C191.952 105.712 192.351 105.972 192.683 106.313C193.014 106.651 193.269 107.062 193.448 107.546C193.627 108.03 193.717 108.575 193.717 109.182V109.818H186.896V108.307H191.191C191.188 108.088 191.132 107.896 191.022 107.73C190.916 107.561 190.772 107.43 190.59 107.337C190.411 107.241 190.207 107.193 189.978 107.193C189.756 107.193 189.552 107.241 189.367 107.337C189.181 107.43 189.032 107.559 188.919 107.725C188.81 107.891 188.752 108.085 188.745 108.307V109.938C188.745 110.183 188.797 110.402 188.899 110.594C189.002 110.786 189.15 110.937 189.342 111.046C189.534 111.156 189.766 111.21 190.038 111.21C190.227 111.21 190.399 111.184 190.555 111.131C190.714 111.078 190.85 111.001 190.963 110.902C191.075 110.799 191.158 110.677 191.211 110.534H193.717C193.631 111.064 193.427 111.525 193.105 111.916C192.784 112.304 192.358 112.606 191.828 112.821C191.301 113.033 190.684 113.139 189.978 113.139ZM196.964 113.119C196.477 113.119 196.046 113.04 195.672 112.881C195.301 112.718 195.009 112.473 194.797 112.145C194.585 111.817 194.479 111.399 194.479 110.892C194.479 110.474 194.55 110.118 194.692 109.823C194.835 109.525 195.034 109.281 195.289 109.092C195.544 108.903 195.841 108.759 196.179 108.66C196.52 108.56 196.888 108.496 197.283 108.466C197.71 108.433 198.053 108.393 198.312 108.347C198.574 108.297 198.763 108.229 198.879 108.143C198.995 108.053 199.053 107.936 199.053 107.79V107.77C199.053 107.571 198.976 107.419 198.824 107.312C198.671 107.206 198.476 107.153 198.237 107.153C197.975 107.153 197.762 107.211 197.596 107.327C197.433 107.44 197.336 107.614 197.303 107.849H194.777C194.81 107.385 194.958 106.958 195.219 106.567C195.485 106.172 195.871 105.857 196.378 105.622C196.885 105.384 197.518 105.264 198.277 105.264C198.824 105.264 199.314 105.329 199.749 105.458C200.183 105.584 200.552 105.761 200.857 105.99C201.162 106.215 201.394 106.481 201.553 106.786C201.716 107.087 201.797 107.415 201.797 107.77V113H199.232V111.926H199.172C199.019 112.211 198.834 112.442 198.615 112.617C198.4 112.793 198.153 112.92 197.874 113C197.599 113.08 197.296 113.119 196.964 113.119ZM197.859 111.389C198.068 111.389 198.264 111.346 198.446 111.26C198.632 111.174 198.782 111.049 198.898 110.887C199.014 110.725 199.072 110.527 199.072 110.295V109.659C199 109.689 198.922 109.717 198.839 109.744C198.759 109.77 198.673 109.795 198.58 109.818C198.491 109.841 198.395 109.863 198.292 109.883C198.192 109.903 198.088 109.921 197.979 109.938C197.767 109.971 197.593 110.025 197.457 110.102C197.324 110.174 197.225 110.266 197.158 110.375C197.095 110.481 197.064 110.6 197.064 110.733C197.064 110.945 197.138 111.107 197.288 111.22C197.437 111.333 197.627 111.389 197.859 111.389ZM211.346 106C211.32 105.669 211.195 105.41 210.973 105.224C210.754 105.039 210.421 104.946 209.974 104.946C209.689 104.946 209.455 104.981 209.273 105.05C209.094 105.117 208.961 105.208 208.875 105.324C208.789 105.44 208.744 105.572 208.741 105.722C208.734 105.844 208.756 105.955 208.806 106.055C208.859 106.151 208.941 106.239 209.054 106.318C209.167 106.394 209.311 106.464 209.487 106.527C209.662 106.59 209.871 106.646 210.113 106.696L210.948 106.875C211.512 106.994 211.994 107.152 212.395 107.347C212.796 107.543 213.124 107.773 213.379 108.038C213.635 108.3 213.822 108.595 213.941 108.923C214.064 109.251 214.127 109.609 214.13 109.997C214.127 110.667 213.959 111.233 213.628 111.697C213.297 112.161 212.823 112.514 212.206 112.756C211.593 112.998 210.856 113.119 209.994 113.119C209.109 113.119 208.337 112.988 207.677 112.727C207.021 112.465 206.51 112.062 206.146 111.518C205.785 110.972 205.602 110.272 205.599 109.42H208.224C208.24 109.732 208.318 109.994 208.458 110.206C208.597 110.418 208.792 110.579 209.044 110.688C209.299 110.798 209.603 110.852 209.954 110.852C210.249 110.852 210.496 110.816 210.695 110.743C210.894 110.67 211.044 110.569 211.147 110.44C211.25 110.31 211.303 110.163 211.306 109.997C211.303 109.841 211.252 109.705 211.152 109.589C211.056 109.47 210.897 109.364 210.675 109.271C210.453 109.175 210.153 109.086 209.775 109.003L208.761 108.784C207.859 108.589 207.148 108.262 206.628 107.805C206.111 107.344 205.854 106.716 205.857 105.92C205.854 105.274 206.026 104.709 206.374 104.225C206.726 103.738 207.211 103.358 207.831 103.087C208.454 102.815 209.169 102.679 209.974 102.679C210.796 102.679 211.507 102.817 212.107 103.092C212.707 103.367 213.169 103.754 213.494 104.255C213.822 104.752 213.988 105.334 213.991 106H211.346ZM219.775 105.364V107.352H214.744V105.364H219.775ZM215.719 103.534H218.463V110.544C218.463 110.65 218.481 110.74 218.518 110.812C218.554 110.882 218.61 110.935 218.687 110.972C218.763 111.005 218.861 111.021 218.98 111.021C219.063 111.021 219.159 111.011 219.268 110.991C219.381 110.972 219.464 110.955 219.517 110.942L219.915 112.871C219.792 112.907 219.616 112.952 219.388 113.005C219.162 113.058 218.894 113.093 218.582 113.109C217.952 113.143 217.424 113.078 216.996 112.915C216.569 112.75 216.247 112.49 216.032 112.135C215.816 111.78 215.712 111.336 215.719 110.803V103.534ZM223.023 113.119C222.536 113.119 222.105 113.04 221.73 112.881C221.359 112.718 221.068 112.473 220.855 112.145C220.643 111.817 220.537 111.399 220.537 110.892C220.537 110.474 220.609 110.118 220.751 109.823C220.894 109.525 221.092 109.281 221.348 109.092C221.603 108.903 221.9 108.759 222.238 108.66C222.579 108.56 222.947 108.496 223.341 108.466C223.769 108.433 224.112 108.393 224.37 108.347C224.632 108.297 224.821 108.229 224.937 108.143C225.053 108.053 225.111 107.936 225.111 107.79V107.77C225.111 107.571 225.035 107.419 224.882 107.312C224.73 107.206 224.534 107.153 224.296 107.153C224.034 107.153 223.82 107.211 223.654 107.327C223.492 107.44 223.394 107.614 223.361 107.849H220.836C220.869 107.385 221.016 106.958 221.278 106.567C221.543 106.172 221.929 105.857 222.436 105.622C222.944 105.384 223.577 105.264 224.336 105.264C224.882 105.264 225.373 105.329 225.807 105.458C226.241 105.584 226.611 105.761 226.916 105.99C227.221 106.215 227.453 106.481 227.612 106.786C227.774 107.087 227.855 107.415 227.855 107.77V113H225.29V111.926H225.23C225.078 112.211 224.892 112.442 224.674 112.617C224.458 112.793 224.211 112.92 223.933 113C223.658 113.08 223.355 113.119 223.023 113.119ZM223.918 111.389C224.127 111.389 224.322 111.346 224.505 111.26C224.69 111.174 224.841 111.049 224.957 110.887C225.073 110.725 225.131 110.527 225.131 110.295V109.659C225.058 109.689 224.98 109.717 224.897 109.744C224.818 109.77 224.732 109.795 224.639 109.818C224.549 109.841 224.453 109.863 224.35 109.883C224.251 109.903 224.147 109.921 224.037 109.938C223.825 109.971 223.651 110.025 223.515 110.102C223.383 110.174 223.283 110.266 223.217 110.375C223.154 110.481 223.123 110.6 223.123 110.733C223.123 110.945 223.197 111.107 223.346 111.22C223.495 111.333 223.686 111.389 223.918 111.389ZM229.167 113V105.364H231.831V106.815H231.911C232.05 106.278 232.271 105.886 232.572 105.637C232.877 105.388 233.233 105.264 233.641 105.264C233.76 105.264 233.878 105.274 233.994 105.294C234.113 105.311 234.228 105.335 234.337 105.369V107.71C234.201 107.664 234.034 107.629 233.835 107.606C233.636 107.583 233.465 107.571 233.323 107.571C233.055 107.571 232.813 107.632 232.597 107.755C232.385 107.874 232.218 108.043 232.095 108.262C231.972 108.478 231.911 108.731 231.911 109.023V113H229.167ZM240.105 105.364V107.352H235.074V105.364H240.105ZM236.049 103.534H238.793V110.544C238.793 110.65 238.811 110.74 238.848 110.812C238.884 110.882 238.94 110.935 239.017 110.972C239.093 111.005 239.191 111.021 239.31 111.021C239.393 111.021 239.489 111.011 239.598 110.991C239.711 110.972 239.794 110.955 239.847 110.942L240.245 112.871C240.122 112.907 239.946 112.952 239.718 113.005C239.492 113.058 239.224 113.093 238.912 113.109C238.283 113.143 237.754 113.078 237.326 112.915C236.899 112.75 236.577 112.49 236.362 112.135C236.146 111.78 236.042 111.336 236.049 110.803V103.534ZM246.177 109.659V105.364H248.921V113H246.316V111.548H246.237C246.071 112.036 245.781 112.417 245.367 112.692C244.952 112.964 244.46 113.099 243.89 113.099C243.356 113.099 242.889 112.977 242.488 112.732C242.09 112.486 241.78 112.148 241.558 111.717C241.34 111.286 241.229 110.793 241.225 110.236V105.364H243.97V109.659C243.973 110.037 244.069 110.334 244.258 110.549C244.45 110.764 244.719 110.872 245.063 110.872C245.292 110.872 245.489 110.824 245.655 110.728C245.824 110.629 245.953 110.489 246.043 110.31C246.136 110.128 246.18 109.911 246.177 109.659ZM250.317 115.864V105.364H253.042V106.696H253.101C253.201 106.437 253.346 106.201 253.539 105.985C253.731 105.766 253.97 105.592 254.255 105.463C254.54 105.33 254.871 105.264 255.249 105.264C255.753 105.264 256.232 105.398 256.686 105.667C257.143 105.935 257.514 106.358 257.799 106.935C258.088 107.511 258.232 108.26 258.232 109.182C258.232 110.063 258.094 110.794 257.819 111.374C257.547 111.954 257.183 112.387 256.725 112.672C256.271 112.957 255.773 113.099 255.229 113.099C254.871 113.099 254.551 113.041 254.27 112.925C253.991 112.806 253.752 112.645 253.554 112.443C253.358 112.238 253.207 112.006 253.101 111.747H253.061V115.864H250.317ZM253.002 109.182C253.002 109.553 253.05 109.875 253.146 110.146C253.245 110.415 253.385 110.624 253.564 110.773C253.746 110.919 253.963 110.991 254.215 110.991C254.467 110.991 254.681 110.92 254.856 110.778C255.035 110.632 255.171 110.425 255.264 110.156C255.36 109.884 255.408 109.56 255.408 109.182C255.408 108.804 255.36 108.481 255.264 108.212C255.171 107.941 255.035 107.733 254.856 107.591C254.681 107.445 254.467 107.372 254.215 107.372C253.963 107.372 253.746 107.445 253.564 107.591C253.385 107.733 253.245 107.941 253.146 108.212C253.05 108.481 253.002 108.804 253.002 109.182ZM264.915 102.818L267.003 109.997H267.083L269.171 102.818H272.293L268.932 113H265.154L261.793 102.818H264.915ZM273.313 113V105.364H276.058V113H273.313ZM274.685 104.568C274.314 104.568 273.996 104.446 273.731 104.2C273.466 103.955 273.333 103.66 273.333 103.315C273.333 102.971 273.466 102.676 273.731 102.43C273.996 102.185 274.314 102.062 274.685 102.062C275.06 102.062 275.378 102.185 275.64 102.43C275.905 102.676 276.038 102.971 276.038 103.315C276.038 103.66 275.905 103.955 275.64 104.2C275.378 104.446 275.06 104.568 274.685 104.568ZM280.2 102.818V113H277.456V102.818H280.2ZM284.343 102.818V113H281.598V102.818H284.343ZM287.869 113.119C287.382 113.119 286.951 113.04 286.576 112.881C286.205 112.718 285.913 112.473 285.701 112.145C285.489 111.817 285.383 111.399 285.383 110.892C285.383 110.474 285.454 110.118 285.597 109.823C285.739 109.525 285.938 109.281 286.193 109.092C286.449 108.903 286.745 108.759 287.083 108.66C287.425 108.56 287.793 108.496 288.187 108.466C288.615 108.433 288.958 108.393 289.216 108.347C289.478 108.297 289.667 108.229 289.783 108.143C289.899 108.053 289.957 107.936 289.957 107.79V107.77C289.957 107.571 289.881 107.419 289.728 107.312C289.576 107.206 289.38 107.153 289.142 107.153C288.88 107.153 288.666 107.211 288.5 107.327C288.338 107.44 288.24 107.614 288.207 107.849H285.681C285.714 107.385 285.862 106.958 286.124 106.567C286.389 106.172 286.775 105.857 287.282 105.622C287.789 105.384 288.422 105.264 289.181 105.264C289.728 105.264 290.219 105.329 290.653 105.458C291.087 105.584 291.457 105.761 291.762 105.99C292.066 106.215 292.298 106.481 292.458 106.786C292.62 107.087 292.701 107.415 292.701 107.77V113H290.136V111.926H290.076C289.924 112.211 289.738 112.442 289.519 112.617C289.304 112.793 289.057 112.92 288.779 113C288.503 113.08 288.2 113.119 287.869 113.119ZM288.764 111.389C288.972 111.389 289.168 111.346 289.35 111.26C289.536 111.174 289.687 111.049 289.803 110.887C289.919 110.725 289.977 110.527 289.977 110.295V109.659C289.904 109.689 289.826 109.717 289.743 109.744C289.664 109.77 289.577 109.795 289.485 109.818C289.395 109.841 289.299 109.863 289.196 109.883C289.097 109.903 288.992 109.921 288.883 109.938C288.671 109.971 288.497 110.025 288.361 110.102C288.228 110.174 288.129 110.266 288.063 110.375C288 110.481 287.968 110.6 287.968 110.733C287.968 110.945 288.043 111.107 288.192 111.22C288.341 111.333 288.532 111.389 288.764 111.389ZM297.691 116.023C296.926 116.023 296.27 115.913 295.723 115.695C295.179 115.479 294.757 115.181 294.455 114.8C294.157 114.422 293.989 113.988 293.953 113.497H296.598C296.624 113.66 296.69 113.79 296.797 113.89C296.903 113.989 297.038 114.061 297.204 114.104C297.373 114.15 297.562 114.173 297.771 114.173C298.126 114.173 298.419 114.087 298.651 113.915C298.886 113.742 299.004 113.431 299.004 112.98V111.688H298.924C298.825 111.946 298.672 112.166 298.467 112.349C298.261 112.528 298.015 112.665 297.726 112.761C297.438 112.854 297.121 112.901 296.777 112.901C296.233 112.901 295.733 112.775 295.275 112.523C294.821 112.271 294.457 111.871 294.181 111.325C293.91 110.778 293.774 110.063 293.774 109.182C293.774 108.26 293.916 107.511 294.201 106.935C294.49 106.358 294.861 105.935 295.315 105.667C295.772 105.398 296.253 105.264 296.757 105.264C297.135 105.264 297.466 105.33 297.751 105.463C298.036 105.592 298.275 105.766 298.467 105.985C298.659 106.201 298.805 106.437 298.904 106.696H298.964V105.364H301.708V112.98C301.708 113.626 301.541 114.175 301.206 114.626C300.875 115.08 300.408 115.426 299.804 115.665C299.201 115.903 298.497 116.023 297.691 116.023ZM297.791 110.952C298.043 110.952 298.258 110.882 298.437 110.743C298.619 110.6 298.759 110.398 298.855 110.136C298.954 109.871 299.004 109.553 299.004 109.182C299.004 108.804 298.954 108.481 298.855 108.212C298.759 107.941 298.619 107.733 298.437 107.591C298.258 107.445 298.043 107.372 297.791 107.372C297.539 107.372 297.324 107.445 297.145 107.591C296.969 107.733 296.833 107.941 296.737 108.212C296.644 108.481 296.598 108.804 296.598 109.182C296.598 109.56 296.644 109.881 296.737 110.146C296.833 110.408 296.969 110.609 297.145 110.748C297.324 110.884 297.539 110.952 297.791 110.952ZM306.763 113.139C305.948 113.139 305.245 112.983 304.655 112.672C304.069 112.357 303.616 111.906 303.298 111.32C302.983 110.73 302.826 110.024 302.826 109.202C302.826 108.413 302.985 107.723 303.303 107.134C303.621 106.544 304.07 106.085 304.65 105.756C305.23 105.428 305.915 105.264 306.704 105.264C307.28 105.264 307.802 105.354 308.27 105.533C308.737 105.712 309.136 105.972 309.468 106.313C309.799 106.651 310.055 107.062 310.233 107.546C310.412 108.03 310.502 108.575 310.502 109.182V109.818H303.681V108.307H307.976C307.973 108.088 307.917 107.896 307.807 107.73C307.701 107.561 307.557 107.43 307.375 107.337C307.196 107.241 306.992 107.193 306.763 107.193C306.541 107.193 306.337 107.241 306.152 107.337C305.966 107.43 305.817 107.559 305.704 107.725C305.595 107.891 305.537 108.085 305.53 108.307V109.938C305.53 110.183 305.582 110.402 305.684 110.594C305.787 110.786 305.935 110.937 306.127 111.046C306.319 111.156 306.551 111.21 306.823 111.21C307.012 111.21 307.184 111.184 307.34 111.131C307.499 111.078 307.635 111.001 307.748 110.902C307.86 110.799 307.943 110.677 307.996 110.534H310.502C310.416 111.064 310.212 111.525 309.89 111.916C309.569 112.304 309.143 112.606 308.613 112.821C308.086 113.033 307.469 113.139 306.763 113.139Z" fill="#3B3636"/>
<path d="M134.952 139C134.922 138.621 134.78 138.326 134.526 138.114C134.276 137.902 133.896 137.795 133.384 137.795C133.058 137.795 132.791 137.835 132.583 137.915C132.379 137.991 132.227 138.095 132.129 138.227C132.03 138.36 131.979 138.511 131.975 138.682C131.968 138.822 131.992 138.949 132.049 139.062C132.11 139.172 132.204 139.273 132.333 139.364C132.462 139.451 132.627 139.53 132.827 139.602C133.028 139.674 133.267 139.739 133.543 139.795L134.498 140C135.142 140.136 135.693 140.316 136.151 140.54C136.61 140.763 136.985 141.027 137.276 141.33C137.568 141.629 137.782 141.966 137.918 142.341C138.058 142.716 138.13 143.125 138.134 143.568C138.13 144.333 137.939 144.981 137.56 145.511C137.182 146.042 136.64 146.445 135.935 146.722C135.235 146.998 134.392 147.136 133.407 147.136C132.396 147.136 131.513 146.987 130.759 146.688C130.009 146.388 129.426 145.928 129.009 145.307C128.596 144.682 128.388 143.883 128.384 142.909H131.384C131.403 143.265 131.492 143.564 131.651 143.807C131.81 144.049 132.034 144.233 132.322 144.358C132.613 144.483 132.96 144.545 133.362 144.545C133.699 144.545 133.981 144.504 134.208 144.42C134.435 144.337 134.608 144.222 134.725 144.074C134.843 143.926 134.903 143.758 134.907 143.568C134.903 143.39 134.844 143.235 134.731 143.102C134.621 142.966 134.439 142.845 134.185 142.739C133.932 142.629 133.589 142.527 133.157 142.432L131.998 142.182C130.968 141.958 130.155 141.585 129.56 141.062C128.969 140.536 128.676 139.818 128.68 138.909C128.676 138.17 128.873 137.525 129.271 136.972C129.672 136.415 130.227 135.981 130.935 135.67C131.647 135.36 132.464 135.205 133.384 135.205C134.324 135.205 135.136 135.362 135.822 135.676C136.507 135.991 137.036 136.434 137.407 137.006C137.782 137.574 137.971 138.239 137.975 139H134.952ZM139.336 147V135.364H147.722V137.909H142.495V139.909H147.29V142.455H142.495V144.455H147.7V147H139.336ZM149.289 147V135.364H154.312C155.175 135.364 155.931 135.534 156.579 135.875C157.227 136.216 157.73 136.695 158.09 137.312C158.45 137.93 158.63 138.652 158.63 139.477C158.63 140.311 158.444 141.032 158.073 141.642C157.706 142.252 157.189 142.722 156.522 143.051C155.859 143.381 155.085 143.545 154.198 143.545H151.198V141.091H153.562C153.933 141.091 154.249 141.027 154.511 140.898C154.776 140.765 154.978 140.578 155.119 140.335C155.263 140.093 155.335 139.807 155.335 139.477C155.335 139.144 155.263 138.86 155.119 138.625C154.978 138.386 154.776 138.205 154.511 138.08C154.249 137.951 153.933 137.886 153.562 137.886H152.448V147H149.289ZM162.999 147V144.727L167.34 141.136C167.628 140.898 167.874 140.674 168.079 140.466C168.287 140.254 168.446 140.036 168.556 139.812C168.67 139.589 168.727 139.341 168.727 139.068C168.727 138.769 168.662 138.513 168.533 138.301C168.408 138.089 168.234 137.926 168.011 137.812C167.787 137.695 167.53 137.636 167.238 137.636C166.946 137.636 166.689 137.695 166.465 137.812C166.246 137.93 166.075 138.102 165.954 138.33C165.833 138.557 165.772 138.833 165.772 139.159H162.772C162.772 138.341 162.956 137.636 163.323 137.045C163.691 136.455 164.21 136 164.88 135.682C165.55 135.364 166.336 135.205 167.238 135.205C168.17 135.205 168.977 135.354 169.658 135.653C170.344 135.949 170.872 136.366 171.244 136.903C171.619 137.441 171.806 138.072 171.806 138.795C171.806 139.242 171.713 139.687 171.528 140.131C171.342 140.57 171.009 141.057 170.528 141.591C170.047 142.125 169.363 142.761 168.477 143.5L167.386 144.409V144.477H171.931V147H162.999ZM177.888 147.159C176.972 147.159 176.157 147.002 175.445 146.688C174.737 146.369 174.18 145.932 173.775 145.375C173.37 144.818 173.165 144.178 173.161 143.455H176.343C176.347 143.678 176.415 143.879 176.548 144.057C176.684 144.231 176.87 144.367 177.104 144.466C177.339 144.564 177.608 144.614 177.911 144.614C178.203 144.614 178.46 144.562 178.684 144.46C178.907 144.354 179.082 144.208 179.207 144.023C179.332 143.837 179.392 143.625 179.388 143.386C179.392 143.152 179.32 142.943 179.173 142.761C179.029 142.58 178.826 142.437 178.565 142.335C178.303 142.233 178.002 142.182 177.661 142.182H176.479V140H177.661C177.976 140 178.252 139.949 178.491 139.847C178.733 139.744 178.921 139.602 179.053 139.42C179.19 139.239 179.256 139.03 179.252 138.795C179.256 138.568 179.201 138.367 179.087 138.193C178.974 138.019 178.815 137.883 178.61 137.784C178.409 137.686 178.176 137.636 177.911 137.636C177.623 137.636 177.366 137.687 177.138 137.79C176.915 137.892 176.739 138.034 176.61 138.216C176.481 138.398 176.415 138.606 176.411 138.841H173.388C173.392 138.129 173.587 137.5 173.974 136.955C174.364 136.409 174.898 135.981 175.576 135.67C176.254 135.36 177.032 135.205 177.911 135.205C178.771 135.205 179.531 135.35 180.19 135.642C180.853 135.934 181.37 136.335 181.741 136.847C182.116 137.354 182.301 137.936 182.298 138.591C182.305 139.242 182.082 139.777 181.627 140.193C181.176 140.61 180.604 140.856 179.911 140.932V141.023C180.851 141.125 181.557 141.413 182.031 141.886C182.504 142.356 182.737 142.947 182.729 143.659C182.733 144.341 182.529 144.945 182.116 145.472C181.707 145.998 181.137 146.411 180.406 146.71C179.678 147.009 178.839 147.159 177.888 147.159ZM184.117 147V135.364H189.14C190.004 135.364 190.759 135.521 191.407 135.835C192.055 136.15 192.558 136.602 192.918 137.193C193.278 137.784 193.458 138.492 193.458 139.318C193.458 140.152 193.272 140.854 192.901 141.426C192.534 141.998 192.017 142.43 191.35 142.722C190.687 143.013 189.913 143.159 189.026 143.159H186.026V140.705H188.39C188.761 140.705 189.077 140.659 189.339 140.568C189.604 140.473 189.807 140.324 189.947 140.119C190.091 139.915 190.163 139.648 190.163 139.318C190.163 138.985 190.091 138.714 189.947 138.506C189.807 138.294 189.604 138.138 189.339 138.04C189.077 137.937 188.761 137.886 188.39 137.886H187.276V147H184.117ZM190.935 141.659L193.844 147H190.413L187.572 141.659H190.935ZM199.282 147H194.805V135.364H199.237C200.433 135.364 201.468 135.597 202.339 136.062C203.214 136.525 203.888 137.191 204.362 138.062C204.839 138.93 205.077 139.97 205.077 141.182C205.077 142.394 204.841 143.436 204.367 144.307C203.894 145.174 203.223 145.841 202.356 146.307C201.488 146.769 200.464 147 199.282 147ZM197.964 144.318H199.168C199.744 144.318 200.235 144.225 200.64 144.04C201.049 143.854 201.36 143.534 201.572 143.08C201.788 142.625 201.896 141.992 201.896 141.182C201.896 140.371 201.786 139.739 201.566 139.284C201.35 138.83 201.032 138.509 200.612 138.324C200.195 138.138 199.683 138.045 199.077 138.045H197.964V144.318ZM215.499 140V142.364H210.045V140H215.499ZM220.531 147V144.727L224.871 141.136C225.159 140.898 225.406 140.674 225.61 140.466C225.818 140.254 225.978 140.036 226.087 139.812C226.201 139.589 226.258 139.341 226.258 139.068C226.258 138.769 226.193 138.513 226.065 138.301C225.94 138.089 225.765 137.926 225.542 137.812C225.318 137.695 225.061 137.636 224.769 137.636C224.478 137.636 224.22 137.695 223.996 137.812C223.777 137.93 223.606 138.102 223.485 138.33C223.364 138.557 223.303 138.833 223.303 139.159H220.303C220.303 138.341 220.487 137.636 220.854 137.045C221.222 136.455 221.741 136 222.411 135.682C223.082 135.364 223.868 135.205 224.769 135.205C225.701 135.205 226.508 135.354 227.19 135.653C227.875 135.949 228.404 136.366 228.775 136.903C229.15 137.441 229.337 138.072 229.337 138.795C229.337 139.242 229.245 139.687 229.059 140.131C228.873 140.57 228.54 141.057 228.059 141.591C227.578 142.125 226.894 142.761 226.008 143.5L224.917 144.409V144.477H229.462V147H220.531ZM230.511 145.182V142.727L235.192 135.364H237.42V138.636H236.147L233.624 142.636V142.727H240.533V145.182H230.511ZM236.17 147V144.432L236.238 143.364V135.364H239.192V147H236.17ZM241.518 137.909V135.364H251.631V137.909H248.131V147H245.018V137.909H241.518ZM252.82 147V135.364H255.979V139.909H260.161V135.364H263.32V147H260.161V142.455H255.979V147H252.82Z" fill="#9A2B2B"/>
<path d="M114.625 170V159.818H117.389V163.935H117.528L120.591 159.818H123.812L120.372 164.352L123.892 170H120.591L118.304 166.182L117.389 167.375V170H114.625ZM127.791 170.139C126.962 170.139 126.253 169.975 125.663 169.647C125.073 169.316 124.621 168.855 124.306 168.265C123.991 167.672 123.834 166.984 123.834 166.202C123.834 165.42 123.991 164.733 124.306 164.143C124.621 163.55 125.073 163.089 125.663 162.761C126.253 162.43 126.962 162.264 127.791 162.264C128.62 162.264 129.329 162.43 129.919 162.761C130.509 163.089 130.961 163.55 131.276 164.143C131.591 164.733 131.748 165.42 131.748 166.202C131.748 166.984 131.591 167.672 131.276 168.265C130.961 168.855 130.509 169.316 129.919 169.647C129.329 169.975 128.62 170.139 127.791 170.139ZM127.811 168.111C128.043 168.111 128.243 168.033 128.412 167.877C128.581 167.721 128.712 167.499 128.805 167.211C128.898 166.923 128.944 166.58 128.944 166.182C128.944 165.781 128.898 165.438 128.805 165.153C128.712 164.864 128.581 164.642 128.412 164.487C128.243 164.331 128.043 164.253 127.811 164.253C127.566 164.253 127.355 164.331 127.18 164.487C127.004 164.642 126.87 164.864 126.777 165.153C126.684 165.438 126.638 165.781 126.638 166.182C126.638 166.58 126.684 166.923 126.777 167.211C126.87 167.499 127.004 167.721 127.18 167.877C127.355 168.033 127.566 168.111 127.811 168.111ZM132.862 170V162.364H135.527V163.815H135.606C135.746 163.278 135.966 162.886 136.268 162.637C136.573 162.388 136.929 162.264 137.336 162.264C137.456 162.264 137.573 162.274 137.689 162.294C137.809 162.311 137.923 162.335 138.032 162.369V164.71C137.897 164.664 137.729 164.629 137.53 164.606C137.331 164.583 137.161 164.571 137.018 164.571C136.75 164.571 136.508 164.632 136.292 164.755C136.08 164.874 135.913 165.043 135.79 165.262C135.668 165.478 135.606 165.731 135.606 166.023V170H132.862ZM142.154 170.139C141.339 170.139 140.636 169.983 140.046 169.672C139.459 169.357 139.007 168.906 138.689 168.32C138.374 167.73 138.216 167.024 138.216 166.202C138.216 165.413 138.376 164.723 138.694 164.134C139.012 163.544 139.461 163.085 140.041 162.756C140.621 162.428 141.305 162.264 142.094 162.264C142.671 162.264 143.193 162.354 143.66 162.533C144.128 162.712 144.527 162.972 144.858 163.313C145.19 163.651 145.445 164.062 145.624 164.546C145.803 165.03 145.893 165.575 145.893 166.182V166.818H139.072V165.307H143.367C143.364 165.088 143.307 164.896 143.198 164.73C143.092 164.561 142.948 164.43 142.765 164.337C142.586 164.241 142.383 164.193 142.154 164.193C141.932 164.193 141.728 164.241 141.542 164.337C141.357 164.43 141.208 164.559 141.095 164.725C140.986 164.891 140.928 165.085 140.921 165.307V166.938C140.921 167.183 140.972 167.402 141.075 167.594C141.178 167.786 141.325 167.937 141.518 168.046C141.71 168.156 141.942 168.21 142.214 168.21C142.403 168.21 142.575 168.184 142.731 168.131C142.89 168.078 143.026 168.001 143.138 167.902C143.251 167.799 143.334 167.677 143.387 167.534H145.893C145.806 168.064 145.603 168.525 145.281 168.916C144.96 169.304 144.534 169.606 144.003 169.821C143.476 170.033 142.86 170.139 142.154 170.139ZM149.14 170.119C148.653 170.119 148.222 170.04 147.848 169.881C147.476 169.718 147.185 169.473 146.973 169.145C146.761 168.817 146.654 168.399 146.654 167.892C146.654 167.474 146.726 167.118 146.868 166.823C147.011 166.525 147.21 166.281 147.465 166.092C147.72 165.903 148.017 165.759 148.355 165.66C148.696 165.56 149.064 165.496 149.458 165.466C149.886 165.433 150.229 165.393 150.488 165.347C150.749 165.297 150.938 165.229 151.054 165.143C151.17 165.053 151.228 164.936 151.228 164.79V164.77C151.228 164.571 151.152 164.419 151 164.312C150.847 164.206 150.652 164.153 150.413 164.153C150.151 164.153 149.937 164.211 149.772 164.327C149.609 164.44 149.511 164.614 149.478 164.849H146.953C146.986 164.385 147.133 163.958 147.395 163.567C147.66 163.172 148.047 162.857 148.554 162.622C149.061 162.384 149.694 162.264 150.453 162.264C151 162.264 151.49 162.329 151.924 162.458C152.359 162.584 152.728 162.761 153.033 162.99C153.338 163.215 153.57 163.481 153.729 163.786C153.891 164.087 153.973 164.415 153.973 164.77V170H151.407V168.926H151.348C151.195 169.211 151.01 169.442 150.791 169.617C150.575 169.793 150.328 169.92 150.05 170C149.775 170.08 149.472 170.119 149.14 170.119ZM150.035 168.389C150.244 168.389 150.44 168.346 150.622 168.26C150.807 168.174 150.958 168.049 151.074 167.887C151.19 167.725 151.248 167.527 151.248 167.295V166.659C151.175 166.689 151.097 166.717 151.015 166.744C150.935 166.77 150.849 166.795 150.756 166.818C150.667 166.841 150.57 166.863 150.468 166.883C150.368 166.903 150.264 166.921 150.154 166.938C149.942 166.971 149.768 167.025 149.632 167.102C149.5 167.174 149.4 167.266 149.334 167.375C149.271 167.481 149.24 167.6 149.24 167.733C149.24 167.945 149.314 168.107 149.463 168.22C149.613 168.333 149.803 168.389 150.035 168.389ZM158.033 170V159.818H162.448C163.224 159.818 163.875 159.923 164.402 160.131C164.932 160.34 165.331 160.635 165.6 161.016C165.872 161.397 166.008 161.847 166.008 162.364C166.008 162.738 165.925 163.08 165.759 163.388C165.597 163.696 165.368 163.955 165.073 164.163C164.778 164.369 164.433 164.511 164.039 164.591V164.69C164.476 164.707 164.874 164.818 165.232 165.023C165.59 165.226 165.875 165.506 166.087 165.864C166.299 166.218 166.405 166.636 166.405 167.116C166.405 167.673 166.26 168.169 165.968 168.603C165.68 169.037 165.269 169.379 164.735 169.627C164.201 169.876 163.565 170 162.826 170H158.033ZM160.797 167.793H162.09C162.554 167.793 162.902 167.706 163.134 167.534C163.366 167.358 163.482 167.1 163.482 166.759C163.482 166.52 163.427 166.318 163.318 166.152C163.209 165.986 163.053 165.86 162.851 165.774C162.652 165.688 162.412 165.645 162.13 165.645H160.797V167.793ZM160.797 163.935H161.931C162.173 163.935 162.387 163.897 162.572 163.82C162.758 163.744 162.902 163.635 163.005 163.492C163.111 163.346 163.164 163.169 163.164 162.96C163.164 162.645 163.051 162.405 162.826 162.239C162.6 162.07 162.315 161.986 161.971 161.986H160.797V163.935ZM170.169 159.818V170H167.425V159.818H170.169ZM175.246 170.139C174.417 170.139 173.708 169.975 173.118 169.647C172.528 169.316 172.076 168.855 171.761 168.265C171.446 167.672 171.289 166.984 171.289 166.202C171.289 165.42 171.446 164.733 171.761 164.143C172.076 163.55 172.528 163.089 173.118 162.761C173.708 162.43 174.417 162.264 175.246 162.264C176.075 162.264 176.784 162.43 177.374 162.761C177.964 163.089 178.416 163.55 178.731 164.143C179.046 164.733 179.203 165.42 179.203 166.202C179.203 166.984 179.046 167.672 178.731 168.265C178.416 168.855 177.964 169.316 177.374 169.647C176.784 169.975 176.075 170.139 175.246 170.139ZM175.266 168.111C175.498 168.111 175.699 168.033 175.868 167.877C176.037 167.721 176.167 167.499 176.26 167.211C176.353 166.923 176.4 166.58 176.4 166.182C176.4 165.781 176.353 165.438 176.26 165.153C176.167 164.864 176.037 164.642 175.868 164.487C175.699 164.331 175.498 164.253 175.266 164.253C175.021 164.253 174.81 164.331 174.635 164.487C174.459 164.642 174.325 164.864 174.232 165.153C174.139 165.438 174.093 165.781 174.093 166.182C174.093 166.58 174.139 166.923 174.232 167.211C174.325 167.499 174.459 167.721 174.635 167.877C174.81 168.033 175.021 168.111 175.266 168.111ZM183.996 170.139C183.167 170.139 182.458 169.975 181.868 169.647C181.278 169.316 180.826 168.855 180.511 168.265C180.196 167.672 180.039 166.984 180.039 166.202C180.039 165.42 180.196 164.733 180.511 164.143C180.826 163.55 181.278 163.089 181.868 162.761C182.458 162.43 183.167 162.264 183.996 162.264C184.745 162.264 185.393 162.4 185.94 162.672C186.49 162.94 186.916 163.321 187.218 163.815C187.519 164.306 187.672 164.883 187.675 165.545H185.13C185.093 165.144 184.977 164.839 184.782 164.631C184.589 164.419 184.341 164.312 184.036 164.312C183.797 164.312 183.588 164.382 183.409 164.521C183.23 164.657 183.091 164.864 182.992 165.143C182.892 165.418 182.843 165.764 182.843 166.182C182.843 166.599 182.892 166.947 182.992 167.226C183.091 167.501 183.23 167.708 183.409 167.847C183.588 167.983 183.797 168.051 184.036 168.051C184.238 168.051 184.417 168.005 184.573 167.912C184.729 167.816 184.855 167.677 184.951 167.494C185.05 167.309 185.11 167.083 185.13 166.818H187.675C187.665 167.491 187.511 168.078 187.213 168.578C186.914 169.075 186.492 169.46 185.945 169.732C185.401 170.003 184.752 170.139 183.996 170.139ZM191.273 168.19L191.293 164.929H191.651L193.501 162.364H196.583L193.481 166.361H192.705L191.273 168.19ZM188.807 170V159.818H191.552V170H188.807ZM193.52 170L191.77 166.977L193.56 165.028L196.662 170H193.52ZM200.662 170.139C199.834 170.139 199.124 169.975 198.534 169.647C197.944 169.316 197.492 168.855 197.177 168.265C196.862 167.672 196.705 166.984 196.705 166.202C196.705 165.42 196.862 164.733 197.177 164.143C197.492 163.55 197.944 163.089 198.534 162.761C199.124 162.43 199.834 162.264 200.662 162.264C201.411 162.264 202.059 162.4 202.606 162.672C203.156 162.94 203.582 163.321 203.884 163.815C204.185 164.306 204.338 164.883 204.341 165.545H201.796C201.759 165.144 201.643 164.839 201.448 164.631C201.255 164.419 201.007 164.312 200.702 164.312C200.463 164.312 200.254 164.382 200.075 164.521C199.896 164.657 199.757 164.864 199.658 165.143C199.558 165.418 199.509 165.764 199.509 166.182C199.509 166.599 199.558 166.947 199.658 167.226C199.757 167.501 199.896 167.708 200.075 167.847C200.254 167.983 200.463 168.051 200.702 168.051C200.904 168.051 201.083 168.005 201.239 167.912C201.395 167.816 201.521 167.677 201.617 167.494C201.716 167.309 201.776 167.083 201.796 166.818H204.341C204.331 167.491 204.177 168.078 203.879 168.578C203.58 169.075 203.158 169.46 202.611 169.732C202.067 170.003 201.418 170.139 200.662 170.139ZM208.218 165.705V170H205.473V159.818H208.118V163.815H208.198C208.37 163.328 208.657 162.949 209.058 162.677C209.459 162.402 209.941 162.264 210.505 162.264C211.045 162.264 211.514 162.387 211.912 162.632C212.313 162.877 212.623 163.215 212.841 163.646C213.063 164.077 213.173 164.571 213.169 165.128V170H210.425V165.705C210.428 165.327 210.334 165.03 210.142 164.815C209.953 164.599 209.683 164.491 209.331 164.491C209.109 164.491 208.914 164.541 208.745 164.641C208.579 164.737 208.45 164.876 208.357 165.058C208.267 165.237 208.221 165.453 208.218 165.705ZM216.652 170.119C216.165 170.119 215.734 170.04 215.359 169.881C214.988 169.718 214.696 169.473 214.484 169.145C214.272 168.817 214.166 168.399 214.166 167.892C214.166 167.474 214.237 167.118 214.38 166.823C214.522 166.525 214.721 166.281 214.977 166.092C215.232 165.903 215.528 165.759 215.866 165.66C216.208 165.56 216.576 165.496 216.97 165.466C217.398 165.433 217.741 165.393 217.999 165.347C218.261 165.297 218.45 165.229 218.566 165.143C218.682 165.053 218.74 164.936 218.74 164.79V164.77C218.74 164.571 218.664 164.419 218.511 164.312C218.359 164.206 218.163 164.153 217.925 164.153C217.663 164.153 217.449 164.211 217.283 164.327C217.121 164.44 217.023 164.614 216.99 164.849H214.464C214.498 164.385 214.645 163.958 214.907 163.567C215.172 163.172 215.558 162.857 216.065 162.622C216.572 162.384 217.205 162.264 217.964 162.264C218.511 162.264 219.002 162.329 219.436 162.458C219.87 162.584 220.24 162.761 220.545 162.99C220.85 163.215 221.082 163.481 221.241 163.786C221.403 164.087 221.484 164.415 221.484 164.77V170H218.919V168.926H218.859C218.707 169.211 218.521 169.442 218.303 169.617C218.087 169.793 217.84 169.92 217.562 170C217.287 170.08 216.983 170.119 216.652 170.119ZM217.547 168.389C217.756 168.389 217.951 168.346 218.134 168.26C218.319 168.174 218.47 168.049 218.586 167.887C218.702 167.725 218.76 167.527 218.76 167.295V166.659C218.687 166.689 218.609 166.717 218.526 166.744C218.447 166.77 218.361 166.795 218.268 166.818C218.178 166.841 218.082 166.863 217.979 166.883C217.88 166.903 217.776 166.921 217.666 166.938C217.454 166.971 217.28 167.025 217.144 167.102C217.012 167.174 216.912 167.266 216.846 167.375C216.783 167.481 216.751 167.6 216.751 167.733C216.751 167.945 216.826 168.107 216.975 168.22C217.124 168.333 217.315 168.389 217.547 168.389ZM222.796 170V162.364H225.54V170H222.796ZM224.168 161.568C223.797 161.568 223.478 161.446 223.213 161.2C222.948 160.955 222.816 160.66 222.816 160.315C222.816 159.971 222.948 159.676 223.213 159.43C223.478 159.185 223.797 159.062 224.168 159.062C224.542 159.062 224.86 159.185 225.122 159.43C225.387 159.676 225.52 159.971 225.52 160.315C225.52 160.66 225.387 160.955 225.122 161.2C224.86 161.446 224.542 161.568 224.168 161.568ZM229.683 165.705V170H226.938V162.364H229.543V163.815H229.623C229.789 163.331 230.08 162.952 230.498 162.677C230.919 162.402 231.409 162.264 231.969 162.264C232.51 162.264 232.979 162.388 233.376 162.637C233.777 162.882 234.087 163.22 234.306 163.651C234.528 164.082 234.638 164.574 234.634 165.128V170H231.89V165.705C231.893 165.327 231.797 165.03 231.602 164.815C231.409 164.599 231.141 164.491 230.796 164.491C230.571 164.491 230.374 164.541 230.205 164.641C230.039 164.737 229.911 164.876 229.822 165.058C229.732 165.237 229.686 165.453 229.683 165.705ZM241.324 170L238.321 159.818H241.403L242.795 166.082H242.875L244.525 159.818H246.951L248.602 166.102H248.681L250.074 159.818H253.156L250.153 170H247.508L245.778 164.312H245.699L243.968 170H241.324ZM256.861 170.139C256.046 170.139 255.343 169.983 254.753 169.672C254.166 169.357 253.714 168.906 253.396 168.32C253.081 167.73 252.923 167.024 252.923 166.202C252.923 165.413 253.083 164.723 253.401 164.134C253.719 163.544 254.168 163.085 254.748 162.756C255.328 162.428 256.012 162.264 256.801 162.264C257.378 162.264 257.9 162.354 258.367 162.533C258.835 162.712 259.234 162.972 259.566 163.313C259.897 163.651 260.152 164.062 260.331 164.546C260.51 165.03 260.6 165.575 260.6 166.182V166.818H253.779V165.307H258.074C258.071 165.088 258.014 164.896 257.905 164.73C257.799 164.561 257.655 164.43 257.472 164.337C257.294 164.241 257.09 164.193 256.861 164.193C256.639 164.193 256.435 164.241 256.249 164.337C256.064 164.43 255.915 164.559 255.802 164.725C255.693 164.891 255.635 165.085 255.628 165.307V166.938C255.628 167.183 255.679 167.402 255.782 167.594C255.885 167.786 256.032 167.937 256.225 168.046C256.417 168.156 256.649 168.21 256.921 168.21C257.11 168.21 257.282 168.184 257.438 168.131C257.597 168.078 257.733 168.001 257.845 167.902C257.958 167.799 258.041 167.677 258.094 167.534H260.6C260.513 168.064 260.31 168.525 259.988 168.916C259.667 169.304 259.241 169.606 258.71 169.821C258.183 170.033 257.567 170.139 256.861 170.139ZM265.379 170.139C264.563 170.139 263.861 169.983 263.271 169.672C262.684 169.357 262.232 168.906 261.913 168.32C261.598 167.73 261.441 167.024 261.441 166.202C261.441 165.413 261.6 164.723 261.918 164.134C262.237 163.544 262.686 163.085 263.266 162.756C263.846 162.428 264.53 162.264 265.319 162.264C265.896 162.264 266.418 162.354 266.885 162.533C267.352 162.712 267.752 162.972 268.083 163.313C268.415 163.651 268.67 164.062 268.849 164.546C269.028 165.03 269.117 165.575 269.117 166.182V166.818H262.296V165.307H266.592C266.588 165.088 266.532 164.896 266.423 164.73C266.317 164.561 266.172 164.43 265.99 164.337C265.811 164.241 265.607 164.193 265.379 164.193C265.156 164.193 264.953 164.241 264.767 164.337C264.581 164.43 264.432 164.559 264.32 164.725C264.21 164.891 264.152 165.085 264.146 165.307V166.938C264.146 167.183 264.197 167.402 264.3 167.594C264.402 167.786 264.55 167.937 264.742 168.046C264.934 168.156 265.166 168.21 265.438 168.21C265.627 168.21 265.799 168.184 265.955 168.131C266.114 168.078 266.25 168.001 266.363 167.902C266.476 167.799 266.558 167.677 266.612 167.534H269.117C269.031 168.064 268.827 168.525 268.506 168.916C268.184 169.304 267.758 169.606 267.228 169.821C266.701 170.033 266.085 170.139 265.379 170.139ZM272.703 168.19L272.723 164.929H273.081L274.93 162.364H278.013L274.91 166.361H274.135L272.703 168.19ZM270.237 170V159.818H272.981V170H270.237ZM274.95 170L273.2 166.977L274.99 165.028L278.092 170H274.95Z" fill="#3B3636"/>
<rect x="94" width="196" height="40" rx="20" fill="#9A2B2B"/>
<path d="M126.778 17C126.741 16.5265 126.563 16.1572 126.246 15.892C125.933 15.6269 125.457 15.4943 124.818 15.4943C124.411 15.4943 124.077 15.544 123.817 15.6435C123.561 15.7382 123.372 15.8684 123.249 16.0341C123.125 16.1998 123.062 16.3892 123.057 16.6023C123.047 16.7775 123.078 16.9361 123.149 17.0781C123.225 17.2154 123.343 17.3409 123.504 17.4545C123.665 17.5634 123.871 17.6629 124.122 17.7528C124.373 17.8428 124.671 17.9233 125.017 17.9943L126.21 18.25C127.015 18.4205 127.704 18.6454 128.277 18.9247C128.85 19.2041 129.319 19.5331 129.683 19.9119C130.048 20.286 130.315 20.7074 130.486 21.1761C130.661 21.6449 130.751 22.1562 130.756 22.7102C130.751 23.6667 130.512 24.4763 130.038 25.1392C129.565 25.8021 128.888 26.3063 128.007 26.652C127.131 26.9976 126.078 27.1705 124.847 27.1705C123.582 27.1705 122.479 26.9834 121.537 26.6094C120.599 26.2353 119.87 25.66 119.349 24.8835C118.833 24.1023 118.573 23.1032 118.568 21.8864H122.318C122.342 22.3314 122.453 22.7055 122.652 23.0085C122.851 23.3116 123.13 23.5412 123.49 23.6974C123.855 23.8537 124.288 23.9318 124.79 23.9318C125.211 23.9318 125.564 23.8797 125.848 23.7756C126.132 23.6714 126.348 23.527 126.494 23.3423C126.641 23.1577 126.717 22.947 126.722 22.7102C126.717 22.4877 126.643 22.2936 126.501 22.1278C126.364 21.9574 126.137 21.8059 125.82 21.6733C125.502 21.536 125.074 21.4081 124.534 21.2898L123.085 20.9773C121.797 20.6979 120.782 20.2315 120.038 19.5781C119.3 18.92 118.933 18.0227 118.938 16.8864C118.933 15.9631 119.179 15.1558 119.676 14.4645C120.178 13.7685 120.872 13.2263 121.757 12.8381C122.647 12.4498 123.668 12.2557 124.818 12.2557C125.992 12.2557 127.008 12.4522 127.865 12.8452C128.722 13.2382 129.383 13.7921 129.847 14.5071C130.315 15.2173 130.552 16.0483 130.557 17H126.778ZM132.258 27V12.4545H142.741V15.6364H136.207V18.1364H142.201V21.3182H136.207V23.8182H142.712V27H132.258ZM158.79 19.7273C158.79 21.3466 158.475 22.7126 157.846 23.8253C157.216 24.9332 156.366 25.7737 155.296 26.3466C154.226 26.9148 153.033 27.1989 151.716 27.1989C150.391 27.1989 149.193 26.9124 148.123 26.3395C147.057 25.7618 146.21 24.919 145.58 23.8111C144.955 22.6984 144.642 21.3371 144.642 19.7273C144.642 18.108 144.955 16.7443 145.58 15.6364C146.21 14.5237 147.057 13.6832 148.123 13.1151C149.193 12.5421 150.391 12.2557 151.716 12.2557C153.033 12.2557 154.226 12.5421 155.296 13.1151C156.366 13.6832 157.216 14.5237 157.846 15.6364C158.475 16.7443 158.79 18.108 158.79 19.7273ZM154.728 19.7273C154.728 18.8561 154.612 18.1222 154.38 17.5256C154.152 16.9242 153.814 16.4697 153.364 16.1619C152.919 15.8494 152.37 15.6932 151.716 15.6932C151.063 15.6932 150.511 15.8494 150.061 16.1619C149.616 16.4697 149.278 16.9242 149.046 17.5256C148.819 18.1222 148.705 18.8561 148.705 19.7273C148.705 20.5985 148.819 21.3348 149.046 21.9361C149.278 22.5327 149.616 22.9872 150.061 23.2997C150.511 23.6075 151.063 23.7614 151.716 23.7614C152.37 23.7614 152.919 23.6075 153.364 23.2997C153.814 22.9872 154.152 22.5327 154.38 21.9361C154.612 21.3348 154.728 20.5985 154.728 19.7273ZM169.225 12.4545H173.174V21.7727C173.174 22.8807 172.909 23.8395 172.379 24.6491C171.853 25.4541 171.119 26.0767 170.177 26.517C169.235 26.9527 168.141 27.1705 166.896 27.1705C165.641 27.1705 164.542 26.9527 163.6 26.517C162.658 26.0767 161.924 25.4541 161.398 24.6491C160.878 23.8395 160.617 22.8807 160.617 21.7727V12.4545H164.566V21.4318C164.566 21.8816 164.665 22.2841 164.864 22.6392C165.063 22.9896 165.338 23.2642 165.688 23.4631C166.043 23.6619 166.446 23.7614 166.896 23.7614C167.35 23.7614 167.753 23.6619 168.103 23.4631C168.453 23.2642 168.728 22.9896 168.927 22.6392C169.126 22.2841 169.225 21.8816 169.225 21.4318V12.4545ZM175.051 27V12.4545H179V23.8182H184.88V27H175.051ZM190.34 25.0114L190.283 25.8068C190.236 26.4886 190.122 27.142 189.942 27.767C189.767 28.392 189.58 28.946 189.381 29.429C189.187 29.9119 189.033 30.286 188.92 30.5511H186.505C186.581 30.286 186.687 29.9025 186.825 29.4006C186.967 28.9034 187.094 28.34 187.208 27.7102C187.326 27.0852 187.386 26.4508 187.386 25.8068V25.0114H190.34ZM195.695 27V12.4545H199.644V18.3352H199.843L204.218 12.4545H208.82L203.906 18.9318L208.934 27H204.218L200.951 21.5455L199.644 23.25V27H195.695ZM223.165 19.7273C223.165 21.3466 222.85 22.7126 222.221 23.8253C221.591 24.9332 220.741 25.7737 219.671 26.3466C218.601 26.9148 217.408 27.1989 216.091 27.1989C214.766 27.1989 213.568 26.9124 212.498 26.3395C211.432 25.7618 210.585 24.919 209.955 23.8111C209.33 22.6984 209.017 21.3371 209.017 19.7273C209.017 18.108 209.33 16.7443 209.955 15.6364C210.585 14.5237 211.432 13.6832 212.498 13.1151C213.568 12.5421 214.766 12.2557 216.091 12.2557C217.408 12.2557 218.601 12.5421 219.671 13.1151C220.741 13.6832 221.591 14.5237 222.221 15.6364C222.85 16.7443 223.165 18.108 223.165 19.7273ZM219.103 19.7273C219.103 18.8561 218.987 18.1222 218.755 17.5256C218.527 16.9242 218.189 16.4697 217.739 16.1619C217.294 15.8494 216.745 15.6932 216.091 15.6932C215.438 15.6932 214.886 15.8494 214.436 16.1619C213.991 16.4697 213.653 16.9242 213.421 17.5256C213.194 18.1222 213.08 18.8561 213.08 19.7273C213.08 20.5985 213.194 21.3348 213.421 21.9361C213.653 22.5327 213.991 22.9872 214.436 23.2997C214.886 23.6075 215.438 23.7614 216.091 23.7614C216.745 23.7614 217.294 23.6075 217.739 23.2997C218.189 22.9872 218.527 22.5327 218.755 21.9361C218.987 21.3348 219.103 20.5985 219.103 19.7273ZM224.992 27V12.4545H231.271C232.35 12.4545 233.295 12.651 234.104 13.044C234.914 13.437 235.544 14.0028 235.994 14.7415C236.443 15.4801 236.668 16.3655 236.668 17.3977C236.668 18.4394 236.436 19.3177 235.972 20.0327C235.513 20.7476 234.867 21.2874 234.033 21.652C233.205 22.0166 232.237 22.1989 231.129 22.1989H227.379V19.1307H230.333C230.797 19.1307 231.192 19.0739 231.519 18.9602C231.851 18.8419 232.104 18.6548 232.279 18.3991C232.459 18.1435 232.549 17.8097 232.549 17.3977C232.549 16.9811 232.459 16.6425 232.279 16.3821C232.104 16.117 231.851 15.9228 231.519 15.7997C231.192 15.6719 230.797 15.608 230.333 15.608H228.941V27H224.992ZM233.515 20.3239L237.151 27H232.862L229.31 20.3239H233.515ZM238.352 27V12.4545H248.835V15.6364H242.3V18.1364H248.295V21.3182H242.3V23.8182H248.806V27H238.352ZM254.571 27H250.31L255.111 12.4545H260.509L265.31 27H261.049L257.867 16.4602H257.753L254.571 27ZM253.776 21.2614H261.787V24.2159H253.776V21.2614Z" fill="white"/>
</svg>
