<svg width="392" height="231" viewBox="0 0 392 231" fill="none" xmlns="http://www.w3.org/2000/svg">
<rect x="-2.5" y="2.5" width="387" height="209" rx="17.5" transform="matrix(-1 0 0 1 387 17)" fill="#EEEDE2" stroke="#FFAA09" stroke-width="5"/>
<path d="M138.671 82C138.641 81.6212 138.499 81.3258 138.245 81.1136C137.995 80.9015 137.614 80.7955 137.103 80.7955C136.777 80.7955 136.51 80.8352 136.302 80.9148C136.097 80.9905 135.946 81.0947 135.847 81.2273C135.749 81.3598 135.698 81.5114 135.694 81.6818C135.686 81.822 135.711 81.9489 135.768 82.0625C135.828 82.1723 135.923 82.2727 136.052 82.3636C136.181 82.4508 136.345 82.5303 136.546 82.6023C136.747 82.6742 136.986 82.7386 137.262 82.7955L138.217 83C138.861 83.1364 139.412 83.3163 139.87 83.5398C140.328 83.7633 140.703 84.0265 140.995 84.3295C141.287 84.6288 141.501 84.9659 141.637 85.3409C141.777 85.7159 141.849 86.125 141.853 86.5682C141.849 87.3333 141.658 87.9811 141.279 88.5114C140.9 89.0417 140.359 89.4451 139.654 89.7216C138.953 89.9981 138.111 90.1364 137.126 90.1364C136.114 90.1364 135.232 89.9867 134.478 89.6875C133.728 89.3883 133.145 88.928 132.728 88.3068C132.315 87.6818 132.107 86.8826 132.103 85.9091H135.103C135.122 86.2652 135.211 86.5644 135.37 86.8068C135.529 87.0492 135.753 87.233 136.04 87.358C136.332 87.483 136.679 87.5455 137.08 87.5455C137.417 87.5455 137.7 87.5038 137.927 87.4205C138.154 87.3371 138.326 87.2216 138.444 87.0739C138.561 86.9261 138.622 86.7576 138.626 86.5682C138.622 86.3902 138.563 86.2348 138.45 86.1023C138.34 85.9659 138.158 85.8447 137.904 85.7386C137.65 85.6288 137.308 85.5265 136.876 85.4318L135.717 85.1818C134.686 84.9583 133.874 84.5852 133.279 84.0625C132.688 83.536 132.395 82.8182 132.398 81.9091C132.395 81.1705 132.592 80.5246 132.989 79.9716C133.391 79.4148 133.946 78.9811 134.654 78.6705C135.366 78.3598 136.183 78.2045 137.103 78.2045C138.042 78.2045 138.855 78.3617 139.54 78.6761C140.226 78.9905 140.754 79.4337 141.126 80.0057C141.501 80.5739 141.69 81.2386 141.694 82H138.671ZM143.055 90V78.3636H151.441V80.9091H146.214V82.9091H151.009V85.4545H146.214V87.4545H151.418V90H143.055ZM153.008 90V78.3636H158.031C158.894 78.3636 159.65 78.5341 160.298 78.875C160.945 79.2159 161.449 79.6951 161.809 80.3125C162.169 80.9299 162.349 81.6515 162.349 82.4773C162.349 83.3106 162.163 84.0322 161.792 84.642C161.424 85.2519 160.907 85.7216 160.241 86.0511C159.578 86.3807 158.803 86.5455 157.917 86.5455H154.917V84.0909H157.281C157.652 84.0909 157.968 84.0265 158.229 83.8977C158.495 83.7652 158.697 83.5777 158.837 83.3352C158.981 83.0928 159.053 82.8068 159.053 82.4773C159.053 82.1439 158.981 81.8598 158.837 81.625C158.697 81.3864 158.495 81.2045 158.229 81.0795C157.968 80.9508 157.652 80.8864 157.281 80.8864H156.167V90H153.008ZM172.423 78.3636V90H169.263V81.2727H169.195L166.65 82.7955V80.1136L169.513 78.3636H172.423ZM179.562 90.1591C178.622 90.1591 177.783 90.0133 177.045 89.7216C176.31 89.4299 175.73 89.0341 175.306 88.5341C174.886 88.0341 174.675 87.4697 174.675 86.8409C174.675 86.3598 174.795 85.9205 175.033 85.5227C175.276 85.125 175.602 84.7955 176.011 84.5341C176.42 84.2689 176.876 84.0985 177.38 84.0227V83.9318C176.717 83.8182 176.172 83.5246 175.744 83.0511C175.319 82.5739 175.107 82.0114 175.107 81.3636C175.107 80.7538 175.3 80.2121 175.687 79.7386C176.073 79.2614 176.602 78.8864 177.272 78.6136C177.942 78.3409 178.706 78.2045 179.562 78.2045C180.418 78.2045 181.181 78.3428 181.852 78.6193C182.522 78.892 183.05 79.267 183.437 79.7443C183.823 80.2178 184.016 80.7576 184.016 81.3636C184.016 82.0152 183.8 82.5777 183.369 83.0511C182.937 83.5246 182.395 83.8182 181.744 83.9318V84.0227C182.244 84.0985 182.698 84.2689 183.107 84.5341C183.516 84.7955 183.842 85.125 184.085 85.5227C184.327 85.9205 184.448 86.3598 184.448 86.8409C184.448 87.4697 184.236 88.0341 183.812 88.5341C183.391 89.0341 182.812 89.4299 182.073 89.7216C181.338 90.0133 180.501 90.1591 179.562 90.1591ZM179.562 87.9773C179.861 87.9773 180.126 87.9167 180.357 87.7955C180.588 87.6742 180.77 87.5076 180.903 87.2955C181.039 87.0795 181.107 86.8371 181.107 86.5682C181.107 86.2992 181.039 86.0606 180.903 85.8523C180.77 85.6439 180.588 85.4811 180.357 85.3636C180.126 85.2424 179.861 85.1818 179.562 85.1818C179.266 85.1818 179.001 85.2424 178.766 85.3636C178.535 85.4811 178.352 85.6439 178.215 85.8523C178.083 86.0606 178.016 86.2992 178.016 86.5682C178.016 86.8371 178.083 87.0777 178.215 87.2898C178.352 87.5019 178.535 87.6705 178.766 87.7955C179.001 87.9167 179.266 87.9773 179.562 87.9773ZM179.562 83C179.827 83 180.062 82.9451 180.266 82.8352C180.471 82.7254 180.632 82.5739 180.749 82.3807C180.867 82.1875 180.925 81.9697 180.925 81.7273C180.925 81.4848 180.867 81.2708 180.749 81.0852C180.632 80.8958 180.471 80.7481 180.266 80.642C180.062 80.5322 179.827 80.4773 179.562 80.4773C179.3 80.4773 179.066 80.5322 178.857 80.642C178.653 80.7481 178.492 80.8958 178.374 81.0852C178.257 81.2708 178.198 81.4848 178.198 81.7273C178.198 81.9697 178.257 82.1875 178.374 82.3807C178.492 82.5701 178.653 82.7216 178.857 82.8352C179.066 82.9451 179.3 83 179.562 83ZM185.518 80.9091V78.3636H195.631V80.9091H192.131V90H189.018V80.9091H185.518ZM196.82 90V78.3636H199.979V82.9091H204.161V78.3636H207.32V90H204.161V85.4545H199.979V90H196.82ZM216.07 83V85.3636H208.07V83H216.07ZM216.843 90V87.7273L221.184 84.1364C221.472 83.8977 221.718 83.6742 221.923 83.4659C222.131 83.2538 222.29 83.036 222.4 82.8125C222.513 82.589 222.57 82.3409 222.57 82.0682C222.57 81.7689 222.506 81.5133 222.377 81.3011C222.252 81.089 222.078 80.9261 221.854 80.8125C221.631 80.6951 221.373 80.6364 221.082 80.6364C220.79 80.6364 220.532 80.6951 220.309 80.8125C220.089 80.9299 219.919 81.1023 219.798 81.3295C219.676 81.5568 219.616 81.8333 219.616 82.1591H216.616C216.616 81.3409 216.799 80.6364 217.167 80.0455C217.534 79.4545 218.053 79 218.724 78.6818C219.394 78.3636 220.18 78.2045 221.082 78.2045C222.013 78.2045 222.82 78.3542 223.502 78.6534C224.188 78.9489 224.716 79.3655 225.087 79.9034C225.462 80.4413 225.65 81.072 225.65 81.7955C225.65 82.2424 225.557 82.6875 225.371 83.1307C225.186 83.5701 224.853 84.0568 224.371 84.5909C223.89 85.125 223.207 85.7614 222.32 86.5L221.229 87.4091V87.4773H225.775V90H216.843ZM231.732 78.2045C232.41 78.2045 233.052 78.3125 233.658 78.5284C234.264 78.7405 234.8 79.0758 235.266 79.5341C235.736 79.9924 236.103 80.5909 236.369 81.3295C236.638 82.0644 236.774 82.9545 236.778 84C236.781 84.9545 236.662 85.8125 236.42 86.5739C236.181 87.3314 235.838 87.9773 235.391 88.5114C234.948 89.0455 234.414 89.4545 233.789 89.7386C233.168 90.0189 232.475 90.1591 231.71 90.1591C230.85 90.1591 230.094 89.9943 229.442 89.6648C228.791 89.3352 228.272 88.892 227.886 88.3352C227.499 87.7784 227.274 87.1591 227.21 86.4773H230.323C230.399 86.8295 230.566 87.0852 230.823 87.2443C231.081 87.3996 231.376 87.4773 231.71 87.4773C232.376 87.4773 232.863 87.1894 233.17 86.6136C233.48 86.0341 233.638 85.2614 233.641 84.2955H233.573C233.425 84.6515 233.202 84.9564 232.903 85.2102C232.603 85.464 232.255 85.6591 231.857 85.7955C231.46 85.9318 231.039 86 230.596 86C229.895 86 229.281 85.8428 228.755 85.5284C228.228 85.2102 227.817 84.7765 227.522 84.2273C227.227 83.6742 227.077 83.0455 227.073 82.3409C227.069 81.5152 227.264 80.7917 227.658 80.1705C228.052 79.5492 228.6 79.0663 229.3 78.7216C230.001 78.3769 230.812 78.2045 231.732 78.2045ZM231.755 80.5909C231.441 80.5909 231.16 80.6629 230.914 80.8068C230.672 80.9508 230.48 81.1458 230.34 81.392C230.204 81.6383 230.138 81.9167 230.141 82.2273C230.145 82.5379 230.215 82.8163 230.352 83.0625C230.492 83.3087 230.681 83.5038 230.92 83.6477C231.162 83.7917 231.441 83.8636 231.755 83.8636C231.986 83.8636 232.2 83.8239 232.397 83.7443C232.594 83.661 232.764 83.5455 232.908 83.3977C233.056 83.2462 233.17 83.072 233.249 82.875C233.333 82.6742 233.372 82.4583 233.369 82.2273C233.365 81.9167 233.293 81.6383 233.153 81.392C233.013 81.1458 232.821 80.9508 232.579 80.8068C232.336 80.6629 232.062 80.5909 231.755 80.5909ZM237.799 80.9091V78.3636H247.913V80.9091H244.413V90H241.299V80.9091H237.799ZM249.102 90V78.3636H252.261V82.9091H256.442V78.3636H259.602V90H256.442V85.4545H252.261V90H249.102Z" fill="#9A2B2B"/>
<path d="M68.3314 106C68.3049 105.669 68.1806 105.41 67.9585 105.224C67.7398 105.039 67.4067 104.946 66.9593 104.946C66.6742 104.946 66.4405 104.981 66.2583 105.05C66.0793 105.117 65.9467 105.208 65.8605 105.324C65.7744 105.44 65.7296 105.572 65.7263 105.722C65.7197 105.844 65.7412 105.955 65.7909 106.055C65.844 106.151 65.9268 106.239 66.0395 106.318C66.1522 106.394 66.2964 106.464 66.472 106.527C66.6477 106.59 66.8565 106.646 67.0985 106.696L67.9337 106.875C68.4971 106.994 68.9794 107.152 69.3804 107.347C69.7815 107.543 70.1096 107.773 70.3648 108.038C70.62 108.3 70.8073 108.595 70.9266 108.923C71.0492 109.251 71.1122 109.609 71.1155 109.997C71.1122 110.667 70.9448 111.233 70.6134 111.697C70.2819 112.161 69.808 112.514 69.1915 112.756C68.5783 112.998 67.8409 113.119 66.9791 113.119C66.0942 113.119 65.3219 112.988 64.6624 112.727C64.0061 112.465 63.4957 112.062 63.1311 111.518C62.7699 110.972 62.5876 110.272 62.5843 109.42H65.2093C65.2258 109.732 65.3037 109.994 65.4429 110.206C65.5821 110.418 65.7777 110.579 66.0296 110.688C66.2848 110.798 66.588 110.852 66.9394 110.852C67.2343 110.852 67.4813 110.816 67.6801 110.743C67.879 110.67 68.0298 110.569 68.1325 110.44C68.2353 110.31 68.2883 110.163 68.2916 109.997C68.2883 109.841 68.2369 109.705 68.1375 109.589C68.0414 109.47 67.8823 109.364 67.6602 109.271C67.4382 109.175 67.1382 109.086 66.7604 109.003L65.7462 108.784C64.8447 108.589 64.1337 108.262 63.6134 107.805C63.0963 107.344 62.8395 106.716 62.8428 105.92C62.8395 105.274 63.0118 104.709 63.3598 104.225C63.7111 103.738 64.1967 103.358 64.8165 103.087C65.4396 102.815 66.1539 102.679 66.9593 102.679C67.7812 102.679 68.4922 102.817 69.0921 103.092C69.692 103.367 70.1543 103.754 70.4791 104.255C70.8073 104.752 70.973 105.334 70.9763 106H68.3314ZM72.2068 113V105.364H74.9511V113H72.2068ZM73.5789 104.568C73.2077 104.568 72.8895 104.446 72.6244 104.2C72.3592 103.955 72.2267 103.66 72.2267 103.315C72.2267 102.971 72.3592 102.676 72.6244 102.43C72.8895 102.185 73.2077 102.062 73.5789 102.062C73.9535 102.062 74.2716 102.185 74.5335 102.43C74.7986 102.676 74.9312 102.971 74.9312 103.315C74.9312 103.66 74.7986 103.955 74.5335 104.2C74.2716 104.446 73.9535 104.568 73.5789 104.568ZM79.0937 108.705V113H76.3493V105.364H78.9545V106.815H79.034C79.1997 106.331 79.4914 105.952 79.909 105.677C80.3299 105.402 80.8205 105.264 81.3806 105.264C81.9208 105.264 82.3898 105.388 82.7876 105.637C83.1886 105.882 83.4985 106.22 83.7172 106.651C83.9393 107.082 84.0487 107.574 84.0454 108.128V113H81.301V108.705C81.3044 108.327 81.2082 108.03 81.0127 107.815C80.8205 107.599 80.552 107.491 80.2073 107.491C79.9819 107.491 79.7847 107.541 79.6157 107.641C79.45 107.737 79.3224 107.876 79.2329 108.058C79.1434 108.237 79.097 108.453 79.0937 108.705ZM89.0791 116.023C88.3135 116.023 87.6572 115.913 87.1104 115.695C86.5668 115.479 86.1442 115.181 85.8426 114.8C85.5443 114.422 85.3769 113.988 85.3405 113.497H87.9854C88.0119 113.66 88.0782 113.79 88.1842 113.89C88.2903 113.989 88.4262 114.061 88.5919 114.104C88.7609 114.15 88.9498 114.173 89.1586 114.173C89.5133 114.173 89.8066 114.087 90.0386 113.915C90.2739 113.742 90.3916 113.431 90.3916 112.98V111.688H90.3121C90.2126 111.946 90.0602 112.166 89.8547 112.349C89.6492 112.528 89.4023 112.665 89.1139 112.761C88.8256 112.854 88.509 112.901 88.1643 112.901C87.6208 112.901 87.1203 112.775 86.6629 112.523C86.2088 112.271 85.8443 111.871 85.5692 111.325C85.2974 110.778 85.1615 110.063 85.1615 109.182C85.1615 108.26 85.304 107.511 85.589 106.935C85.8774 106.358 86.2486 105.935 86.7027 105.667C87.1601 105.398 87.6407 105.264 88.1444 105.264C88.5223 105.264 88.8537 105.33 89.1388 105.463C89.4238 105.592 89.6624 105.766 89.8547 105.985C90.0469 106.201 90.1927 106.437 90.2922 106.696H90.3518V105.364H93.0961V112.98C93.0961 113.626 92.9288 114.175 92.594 114.626C92.2626 115.08 91.7952 115.426 91.192 115.665C90.5888 115.903 89.8845 116.023 89.0791 116.023ZM89.1785 110.952C89.4304 110.952 89.6459 110.882 89.8248 110.743C90.0071 110.6 90.1463 110.398 90.2425 110.136C90.3419 109.871 90.3916 109.553 90.3916 109.182C90.3916 108.804 90.3419 108.481 90.2425 108.212C90.1463 107.941 90.0071 107.733 89.8248 107.591C89.6459 107.445 89.4304 107.372 89.1785 107.372C88.9266 107.372 88.7112 107.445 88.5322 107.591C88.3566 107.733 88.2207 107.941 88.1246 108.212C88.0318 108.481 87.9854 108.804 87.9854 109.182C87.9854 109.56 88.0318 109.881 88.1246 110.146C88.2207 110.408 88.3566 110.609 88.5322 110.748C88.7112 110.884 88.9266 110.952 89.1785 110.952ZM96.6198 113.119C96.1325 113.119 95.7017 113.04 95.3271 112.881C94.9559 112.718 94.6643 112.473 94.4521 112.145C94.24 111.817 94.134 111.399 94.134 110.892C94.134 110.474 94.2052 110.118 94.3477 109.823C94.4903 109.525 94.6891 109.281 94.9443 109.092C95.1995 108.903 95.4962 108.759 95.8343 108.66C96.1756 108.56 96.5435 108.496 96.9379 108.466C97.3655 108.433 97.7085 108.393 97.9671 108.347C98.2289 108.297 98.4178 108.229 98.5338 108.143C98.6498 108.053 98.7078 107.936 98.7078 107.79V107.77C98.7078 107.571 98.6316 107.419 98.4791 107.312C98.3267 107.206 98.1311 107.153 97.8925 107.153C97.6307 107.153 97.4169 107.211 97.2512 107.327C97.0887 107.44 96.991 107.614 96.9578 107.849H94.4323C94.4654 107.385 94.6129 106.958 94.8747 106.567C95.1399 106.172 95.526 105.857 96.0331 105.622C96.5402 105.384 97.1733 105.264 97.9323 105.264C98.4791 105.264 98.9697 105.329 99.4039 105.458C99.838 105.584 100.208 105.761 100.513 105.99C100.817 106.215 101.049 106.481 101.209 106.786C101.371 107.087 101.452 107.415 101.452 107.77V113H98.8868V111.926H98.8271C98.6747 112.211 98.4891 112.442 98.2703 112.617C98.0549 112.793 97.808 112.92 97.5296 113C97.2545 113.08 96.9512 113.119 96.6198 113.119ZM97.5146 111.389C97.7235 111.389 97.919 111.346 98.1013 111.26C98.2869 111.174 98.4377 111.049 98.5537 110.887C98.6697 110.725 98.7277 110.527 98.7277 110.295V109.659C98.6548 109.689 98.5769 109.717 98.4941 109.744C98.4145 109.77 98.3283 109.795 98.2355 109.818C98.146 109.841 98.0499 109.863 97.9472 109.883C97.8477 109.903 97.7433 109.921 97.634 109.938C97.4218 109.971 97.2478 110.025 97.1119 110.102C96.9794 110.174 96.8799 110.266 96.8137 110.375C96.7507 110.481 96.7192 110.6 96.7192 110.733C96.7192 110.945 96.7938 111.107 96.9429 111.22C97.0921 111.333 97.2826 111.389 97.5146 111.389ZM102.763 115.864V105.364H105.488V106.696H105.547C105.647 106.437 105.793 106.201 105.985 105.985C106.177 105.766 106.416 105.592 106.701 105.463C106.986 105.33 107.317 105.264 107.695 105.264C108.199 105.264 108.678 105.398 109.132 105.667C109.589 105.935 109.961 106.358 110.246 106.935C110.534 107.511 110.678 108.26 110.678 109.182C110.678 110.063 110.541 110.794 110.266 111.374C109.994 111.954 109.629 112.387 109.172 112.672C108.718 112.957 108.219 113.099 107.675 113.099C107.317 113.099 106.998 113.041 106.716 112.925C106.437 112.806 106.199 112.645 106 112.443C105.804 112.238 105.654 112.006 105.547 111.747H105.508V115.864H102.763ZM105.448 109.182C105.448 109.553 105.496 109.875 105.592 110.146C105.692 110.415 105.831 110.624 106.01 110.773C106.192 110.919 106.409 110.991 106.661 110.991C106.913 110.991 107.127 110.92 107.302 110.778C107.481 110.632 107.617 110.425 107.71 110.156C107.806 109.884 107.854 109.56 107.854 109.182C107.854 108.804 107.806 108.481 107.71 108.212C107.617 107.941 107.481 107.733 107.302 107.591C107.127 107.445 106.913 107.372 106.661 107.372C106.409 107.372 106.192 107.445 106.01 107.591C105.831 107.733 105.692 107.941 105.592 108.212C105.496 108.481 105.448 108.804 105.448 109.182ZM115.507 113.139C114.678 113.139 113.969 112.975 113.379 112.647C112.789 112.316 112.337 111.855 112.022 111.265C111.707 110.672 111.549 109.984 111.549 109.202C111.549 108.42 111.707 107.733 112.022 107.143C112.337 106.55 112.789 106.089 113.379 105.761C113.969 105.43 114.678 105.264 115.507 105.264C116.335 105.264 117.045 105.43 117.635 105.761C118.225 106.089 118.677 106.55 118.992 107.143C119.307 107.733 119.464 108.42 119.464 109.202C119.464 109.984 119.307 110.672 118.992 111.265C118.677 111.855 118.225 112.316 117.635 112.647C117.045 112.975 116.335 113.139 115.507 113.139ZM115.527 111.111C115.759 111.111 115.959 111.033 116.128 110.877C116.297 110.721 116.428 110.499 116.521 110.211C116.614 109.923 116.66 109.58 116.66 109.182C116.66 108.781 116.614 108.438 116.521 108.153C116.428 107.864 116.297 107.642 116.128 107.487C115.959 107.331 115.759 107.253 115.527 107.253C115.281 107.253 115.071 107.331 114.895 107.487C114.72 107.642 114.585 107.864 114.493 108.153C114.4 108.438 114.353 108.781 114.353 109.182C114.353 109.58 114.4 109.923 114.493 110.211C114.585 110.499 114.72 110.721 114.895 110.877C115.071 111.033 115.281 111.111 115.527 111.111ZM120.578 113V105.364H123.243V106.815H123.322C123.461 106.278 123.682 105.886 123.983 105.637C124.288 105.388 124.645 105.264 125.052 105.264C125.172 105.264 125.289 105.274 125.405 105.294C125.525 105.311 125.639 105.335 125.748 105.369V107.71C125.612 107.664 125.445 107.629 125.246 107.606C125.047 107.583 124.877 107.571 124.734 107.571C124.466 107.571 124.224 107.632 124.008 107.755C123.796 107.874 123.629 108.043 123.506 108.262C123.383 108.478 123.322 108.731 123.322 109.023V113H120.578ZM129.87 113.139C129.054 113.139 128.352 112.983 127.762 112.672C127.175 112.357 126.723 111.906 126.405 111.32C126.09 110.73 125.932 110.024 125.932 109.202C125.932 108.413 126.091 107.723 126.41 107.134C126.728 106.544 127.177 106.085 127.757 105.756C128.337 105.428 129.021 105.264 129.81 105.264C130.387 105.264 130.909 105.354 131.376 105.533C131.843 105.712 132.243 105.972 132.574 106.313C132.906 106.651 133.161 107.062 133.34 107.546C133.519 108.03 133.608 108.575 133.608 109.182V109.818H126.787V108.307H131.083C131.08 108.088 131.023 107.896 130.914 107.73C130.808 107.561 130.664 107.43 130.481 107.337C130.302 107.241 130.098 107.193 129.87 107.193C129.648 107.193 129.444 107.241 129.258 107.337C129.073 107.43 128.924 107.559 128.811 107.725C128.701 107.891 128.643 108.085 128.637 108.307V109.938C128.637 110.183 128.688 110.402 128.791 110.594C128.894 110.786 129.041 110.937 129.233 111.046C129.426 111.156 129.658 111.21 129.929 111.21C130.118 111.21 130.291 111.184 130.446 111.131C130.606 111.078 130.741 111.001 130.854 110.902C130.967 110.799 131.05 110.677 131.103 110.534H133.608C133.522 111.064 133.318 111.525 132.997 111.916C132.675 112.304 132.249 112.606 131.719 112.821C131.192 113.033 130.576 113.139 129.87 113.139ZM142.966 106C142.94 105.669 142.815 105.41 142.593 105.224C142.375 105.039 142.041 104.946 141.594 104.946C141.309 104.946 141.075 104.981 140.893 105.05C140.714 105.117 140.581 105.208 140.495 105.324C140.409 105.44 140.364 105.572 140.361 105.722C140.354 105.844 140.376 105.955 140.426 106.055C140.479 106.151 140.562 106.239 140.674 106.318C140.787 106.394 140.931 106.464 141.107 106.527C141.282 106.59 141.491 106.646 141.733 106.696L142.568 106.875C143.132 106.994 143.614 107.152 144.015 107.347C144.416 107.543 144.744 107.773 145 108.038C145.255 108.3 145.442 108.595 145.561 108.923C145.684 109.251 145.747 109.609 145.75 109.997C145.747 110.667 145.58 111.233 145.248 111.697C144.917 112.161 144.443 112.514 143.826 112.756C143.213 112.998 142.476 113.119 141.614 113.119C140.729 113.119 139.957 112.988 139.297 112.727C138.641 112.465 138.13 112.062 137.766 111.518C137.405 110.972 137.222 110.272 137.219 109.42H139.844C139.861 109.732 139.938 109.994 140.078 110.206C140.217 110.418 140.412 110.579 140.664 110.688C140.92 110.798 141.223 110.852 141.574 110.852C141.869 110.852 142.116 110.816 142.315 110.743C142.514 110.67 142.665 110.569 142.767 110.44C142.87 110.31 142.923 110.163 142.926 109.997C142.923 109.841 142.872 109.705 142.772 109.589C142.676 109.47 142.517 109.364 142.295 109.271C142.073 109.175 141.773 109.086 141.395 109.003L140.381 108.784C139.479 108.589 138.768 108.262 138.248 107.805C137.731 107.344 137.474 106.716 137.478 105.92C137.474 105.274 137.647 104.709 137.995 104.225C138.346 103.738 138.831 103.358 139.451 103.087C140.074 102.815 140.789 102.679 141.594 102.679C142.416 102.679 143.127 102.817 143.727 103.092C144.327 103.367 144.789 103.754 145.114 104.255C145.442 104.752 145.608 105.334 145.611 106H142.966ZM151.396 105.364V107.352H146.364V105.364H151.396ZM147.339 103.534H150.083V110.544C150.083 110.65 150.101 110.74 150.138 110.812C150.174 110.882 150.23 110.935 150.307 110.972C150.383 111.005 150.481 111.021 150.6 111.021C150.683 111.021 150.779 111.011 150.888 110.991C151.001 110.972 151.084 110.955 151.137 110.942L151.535 112.871C151.412 112.907 151.236 112.952 151.008 113.005C150.782 113.058 150.514 113.093 150.202 113.109C149.573 113.143 149.044 113.078 148.616 112.915C148.189 112.75 147.867 112.49 147.652 112.135C147.436 111.78 147.332 111.336 147.339 110.803V103.534ZM154.643 113.119C154.156 113.119 153.725 113.04 153.351 112.881C152.979 112.718 152.688 112.473 152.476 112.145C152.263 111.817 152.157 111.399 152.157 110.892C152.157 110.474 152.229 110.118 152.371 109.823C152.514 109.525 152.713 109.281 152.968 109.092C153.223 108.903 153.52 108.759 153.858 108.66C154.199 108.56 154.567 108.496 154.961 108.466C155.389 108.433 155.732 108.393 155.991 108.347C156.252 108.297 156.441 108.229 156.557 108.143C156.673 108.053 156.731 107.936 156.731 107.79V107.77C156.731 107.571 156.655 107.419 156.503 107.312C156.35 107.206 156.155 107.153 155.916 107.153C155.654 107.153 155.44 107.211 155.275 107.327C155.112 107.44 155.014 107.614 154.981 107.849H152.456C152.489 107.385 152.636 106.958 152.898 106.567C153.163 106.172 153.549 105.857 154.057 105.622C154.564 105.384 155.197 105.264 155.956 105.264C156.503 105.264 156.993 105.329 157.427 105.458C157.861 105.584 158.231 105.761 158.536 105.99C158.841 106.215 159.073 106.481 159.232 106.786C159.394 107.087 159.476 107.415 159.476 107.77V113H156.91V111.926H156.851C156.698 112.211 156.513 112.442 156.294 112.617C156.078 112.793 155.831 112.92 155.553 113C155.278 113.08 154.975 113.119 154.643 113.119ZM155.538 111.389C155.747 111.389 155.942 111.346 156.125 111.26C156.31 111.174 156.461 111.049 156.577 110.887C156.693 110.725 156.751 110.527 156.751 110.295V109.659C156.678 109.689 156.6 109.717 156.517 109.744C156.438 109.77 156.352 109.795 156.259 109.818C156.169 109.841 156.073 109.863 155.971 109.883C155.871 109.903 155.767 109.921 155.657 109.938C155.445 109.971 155.271 110.025 155.135 110.102C155.003 110.174 154.903 110.266 154.837 110.375C154.774 110.481 154.743 110.6 154.743 110.733C154.743 110.945 154.817 111.107 154.966 111.22C155.116 111.333 155.306 111.389 155.538 111.389ZM160.787 113V105.364H163.452V106.815H163.531C163.67 106.278 163.891 105.886 164.192 105.637C164.497 105.388 164.854 105.264 165.261 105.264C165.381 105.264 165.498 105.274 165.614 105.294C165.734 105.311 165.848 105.335 165.957 105.369V107.71C165.821 107.664 165.654 107.629 165.455 107.606C165.256 107.583 165.086 107.571 164.943 107.571C164.675 107.571 164.433 107.632 164.217 107.755C164.005 107.874 163.838 108.043 163.715 108.262C163.592 108.478 163.531 108.731 163.531 109.023V113H160.787ZM171.726 105.364V107.352H166.694V105.364H171.726ZM167.669 103.534H170.413V110.544C170.413 110.65 170.431 110.74 170.468 110.812C170.504 110.882 170.561 110.935 170.637 110.972C170.713 111.005 170.811 111.021 170.93 111.021C171.013 111.021 171.109 111.011 171.218 110.991C171.331 110.972 171.414 110.955 171.467 110.942L171.865 112.871C171.742 112.907 171.566 112.952 171.338 113.005C171.112 113.058 170.844 113.093 170.532 113.109C169.903 113.143 169.374 113.078 168.946 112.915C168.519 112.75 168.197 112.49 167.982 112.135C167.767 111.78 167.662 111.336 167.669 110.803V103.534ZM177.797 109.659V105.364H180.541V113H177.936V111.548H177.857C177.691 112.036 177.401 112.417 176.987 112.692C176.572 112.964 176.08 113.099 175.51 113.099C174.977 113.099 174.509 112.977 174.108 112.732C173.71 112.486 173.401 112.148 173.179 111.717C172.96 111.286 172.849 110.793 172.845 110.236V105.364H175.59V109.659C175.593 110.037 175.689 110.334 175.878 110.549C176.07 110.764 176.339 110.872 176.684 110.872C176.912 110.872 177.109 110.824 177.275 110.728C177.444 110.629 177.573 110.489 177.663 110.31C177.756 110.128 177.8 109.911 177.797 109.659ZM181.937 115.864V105.364H184.662V106.696H184.721C184.821 106.437 184.967 106.201 185.159 105.985C185.351 105.766 185.59 105.592 185.875 105.463C186.16 105.33 186.491 105.264 186.869 105.264C187.373 105.264 187.852 105.398 188.306 105.667C188.763 105.935 189.134 106.358 189.419 106.935C189.708 107.511 189.852 108.26 189.852 109.182C189.852 110.063 189.714 110.794 189.439 111.374C189.168 111.954 188.803 112.387 188.346 112.672C187.892 112.957 187.393 113.099 186.849 113.099C186.491 113.099 186.171 113.041 185.89 112.925C185.611 112.806 185.373 112.645 185.174 112.443C184.978 112.238 184.827 112.006 184.721 111.747H184.682V115.864H181.937ZM184.622 109.182C184.622 109.553 184.67 109.875 184.766 110.146C184.866 110.415 185.005 110.624 185.184 110.773C185.366 110.919 185.583 110.991 185.835 110.991C186.087 110.991 186.301 110.92 186.476 110.778C186.655 110.632 186.791 110.425 186.884 110.156C186.98 109.884 187.028 109.56 187.028 109.182C187.028 108.804 186.98 108.481 186.884 108.212C186.791 107.941 186.655 107.733 186.476 107.591C186.301 107.445 186.087 107.372 185.835 107.372C185.583 107.372 185.366 107.445 185.184 107.591C185.005 107.733 184.866 107.941 184.766 108.212C184.67 108.481 184.622 108.804 184.622 109.182ZM196.535 102.818L198.623 109.997H198.703L200.791 102.818H203.913L200.552 113H196.774L193.413 102.818H196.535ZM204.933 113V105.364H207.678V113H204.933ZM206.305 104.568C205.934 104.568 205.616 104.446 205.351 104.2C205.086 103.955 204.953 103.66 204.953 103.315C204.953 102.971 205.086 102.676 205.351 102.43C205.616 102.185 205.934 102.062 206.305 102.062C206.68 102.062 206.998 102.185 207.26 102.43C207.525 102.676 207.658 102.971 207.658 103.315C207.658 103.66 207.525 103.955 207.26 104.2C206.998 104.446 206.68 104.568 206.305 104.568ZM211.82 102.818V113H209.076V102.818H211.82ZM215.963 102.818V113H213.218V102.818H215.963ZM219.489 113.119C219.002 113.119 218.571 113.04 218.196 112.881C217.825 112.718 217.533 112.473 217.321 112.145C217.109 111.817 217.003 111.399 217.003 110.892C217.003 110.474 217.074 110.118 217.217 109.823C217.359 109.525 217.558 109.281 217.813 109.092C218.069 108.903 218.365 108.759 218.703 108.66C219.045 108.56 219.413 108.496 219.807 108.466C220.235 108.433 220.578 108.393 220.836 108.347C221.098 108.297 221.287 108.229 221.403 108.143C221.519 108.053 221.577 107.936 221.577 107.79V107.77C221.577 107.571 221.501 107.419 221.348 107.312C221.196 107.206 221 107.153 220.762 107.153C220.5 107.153 220.286 107.211 220.12 107.327C219.958 107.44 219.86 107.614 219.827 107.849H217.301C217.335 107.385 217.482 106.958 217.744 106.567C218.009 106.172 218.395 105.857 218.902 105.622C219.409 105.384 220.042 105.264 220.801 105.264C221.348 105.264 221.839 105.329 222.273 105.458C222.707 105.584 223.077 105.761 223.382 105.99C223.687 106.215 223.919 106.481 224.078 106.786C224.24 107.087 224.321 107.415 224.321 107.77V113H221.756V111.926H221.696C221.544 112.211 221.358 112.442 221.139 112.617C220.924 112.793 220.677 112.92 220.399 113C220.124 113.08 219.82 113.119 219.489 113.119ZM220.384 111.389C220.593 111.389 220.788 111.346 220.97 111.26C221.156 111.174 221.307 111.049 221.423 110.887C221.539 110.725 221.597 110.527 221.597 110.295V109.659C221.524 109.689 221.446 109.717 221.363 109.744C221.284 109.77 221.197 109.795 221.105 109.818C221.015 109.841 220.919 109.863 220.816 109.883C220.717 109.903 220.612 109.921 220.503 109.938C220.291 109.971 220.117 110.025 219.981 110.102C219.849 110.174 219.749 110.266 219.683 110.375C219.62 110.481 219.588 110.6 219.588 110.733C219.588 110.945 219.663 111.107 219.812 111.22C219.961 111.333 220.152 111.389 220.384 111.389ZM229.312 116.023C228.546 116.023 227.89 115.913 227.343 115.695C226.799 115.479 226.377 115.181 226.075 114.8C225.777 114.422 225.609 113.988 225.573 113.497H228.218C228.244 113.66 228.311 113.79 228.417 113.89C228.523 113.989 228.659 114.061 228.824 114.104C228.993 114.15 229.182 114.173 229.391 114.173C229.746 114.173 230.039 114.087 230.271 113.915C230.506 113.742 230.624 113.431 230.624 112.98V111.688H230.544C230.445 111.946 230.293 112.166 230.087 112.349C229.882 112.528 229.635 112.665 229.346 112.761C229.058 112.854 228.741 112.901 228.397 112.901C227.853 112.901 227.353 112.775 226.895 112.523C226.441 112.271 226.077 111.871 225.802 111.325C225.53 110.778 225.394 110.063 225.394 109.182C225.394 108.26 225.536 107.511 225.821 106.935C226.11 106.358 226.481 105.935 226.935 105.667C227.392 105.398 227.873 105.264 228.377 105.264C228.755 105.264 229.086 105.33 229.371 105.463C229.656 105.592 229.895 105.766 230.087 105.985C230.279 106.201 230.425 106.437 230.525 106.696H230.584V105.364H233.329V112.98C233.329 113.626 233.161 114.175 232.826 114.626C232.495 115.08 232.028 115.426 231.424 115.665C230.821 115.903 230.117 116.023 229.312 116.023ZM229.411 110.952C229.663 110.952 229.878 110.882 230.057 110.743C230.24 110.6 230.379 110.398 230.475 110.136C230.574 109.871 230.624 109.553 230.624 109.182C230.624 108.804 230.574 108.481 230.475 108.212C230.379 107.941 230.24 107.733 230.057 107.591C229.878 107.445 229.663 107.372 229.411 107.372C229.159 107.372 228.944 107.445 228.765 107.591C228.589 107.733 228.453 107.941 228.357 108.212C228.264 108.481 228.218 108.804 228.218 109.182C228.218 109.56 228.264 109.881 228.357 110.146C228.453 110.408 228.589 110.609 228.765 110.748C228.944 110.884 229.159 110.952 229.411 110.952ZM238.383 113.139C237.568 113.139 236.865 112.983 236.275 112.672C235.689 112.357 235.236 111.906 234.918 111.32C234.603 110.73 234.446 110.024 234.446 109.202C234.446 108.413 234.605 107.723 234.923 107.134C235.241 106.544 235.69 106.085 236.271 105.756C236.851 105.428 237.535 105.264 238.324 105.264C238.9 105.264 239.422 105.354 239.89 105.533C240.357 105.712 240.757 105.972 241.088 106.313C241.419 106.651 241.675 107.062 241.854 107.546C242.033 108.03 242.122 108.575 242.122 109.182V109.818H235.301V108.307H239.597C239.593 108.088 239.537 107.896 239.427 107.73C239.321 107.561 239.177 107.43 238.995 107.337C238.816 107.241 238.612 107.193 238.383 107.193C238.161 107.193 237.958 107.241 237.772 107.337C237.586 107.43 237.437 107.559 237.324 107.725C237.215 107.891 237.157 108.085 237.15 108.307V109.938C237.15 110.183 237.202 110.402 237.305 110.594C237.407 110.786 237.555 110.937 237.747 111.046C237.939 111.156 238.171 111.21 238.443 111.21C238.632 111.21 238.804 111.184 238.96 111.131C239.119 111.078 239.255 111.001 239.368 110.902C239.48 110.799 239.563 110.677 239.616 110.534H242.122C242.036 111.064 241.832 111.525 241.511 111.916C241.189 112.304 240.763 112.606 240.233 112.821C239.706 113.033 239.089 113.139 238.383 113.139ZM251.022 102.341L247.741 114.531H245.415L248.696 102.341H251.022ZM257.314 102.818V113H254.55V102.818H257.314ZM262.343 116.023C261.577 116.023 260.921 115.913 260.374 115.695C259.83 115.479 259.408 115.181 259.106 114.8C258.808 114.422 258.641 113.988 258.604 113.497H261.249C261.276 113.66 261.342 113.79 261.448 113.89C261.554 113.989 261.69 114.061 261.856 114.104C262.025 114.15 262.214 114.173 262.422 114.173C262.777 114.173 263.07 114.087 263.302 113.915C263.538 113.742 263.655 113.431 263.655 112.98V111.688H263.576C263.476 111.946 263.324 112.166 263.118 112.349C262.913 112.528 262.666 112.665 262.378 112.761C262.089 112.854 261.773 112.901 261.428 112.901C260.884 112.901 260.384 112.775 259.927 112.523C259.473 112.271 259.108 111.871 258.833 111.325C258.561 110.778 258.425 110.063 258.425 109.182C258.425 108.26 258.568 107.511 258.853 106.935C259.141 106.358 259.512 105.935 259.966 105.667C260.424 105.398 260.904 105.264 261.408 105.264C261.786 105.264 262.117 105.33 262.402 105.463C262.687 105.592 262.926 105.766 263.118 105.985C263.311 106.201 263.456 106.437 263.556 106.696H263.616V105.364H266.36V112.98C266.36 113.626 266.192 114.175 265.858 114.626C265.526 115.08 265.059 115.426 264.456 115.665C263.852 115.903 263.148 116.023 262.343 116.023ZM262.442 110.952C262.694 110.952 262.91 110.882 263.089 110.743C263.271 110.6 263.41 110.398 263.506 110.136C263.606 109.871 263.655 109.553 263.655 109.182C263.655 108.804 263.606 108.481 263.506 108.212C263.41 107.941 263.271 107.733 263.089 107.591C262.91 107.445 262.694 107.372 262.442 107.372C262.19 107.372 261.975 107.445 261.796 107.591C261.62 107.733 261.484 107.941 261.388 108.212C261.295 108.481 261.249 108.804 261.249 109.182C261.249 109.56 261.295 109.881 261.388 110.146C261.484 110.408 261.62 110.609 261.796 110.748C261.975 110.884 262.19 110.952 262.442 110.952ZM270.5 108.705V113H267.756V105.364H270.361V106.815H270.44C270.606 106.331 270.898 105.952 271.315 105.677C271.736 105.402 272.227 105.264 272.787 105.264C273.327 105.264 273.796 105.388 274.194 105.637C274.595 105.882 274.905 106.22 275.123 106.651C275.346 107.082 275.455 107.574 275.452 108.128V113H272.707V108.705C272.711 108.327 272.614 108.03 272.419 107.815C272.227 107.599 271.958 107.491 271.614 107.491C271.388 107.491 271.191 107.541 271.022 107.641C270.856 107.737 270.729 107.876 270.639 108.058C270.55 108.237 270.503 108.453 270.5 108.705ZM276.806 113V105.364H279.551V113H276.806ZM278.179 104.568C277.807 104.568 277.489 104.446 277.224 104.2C276.959 103.955 276.826 103.66 276.826 103.315C276.826 102.971 276.959 102.676 277.224 102.43C277.489 102.185 277.807 102.062 278.179 102.062C278.553 102.062 278.871 102.185 279.133 102.43C279.398 102.676 279.531 102.971 279.531 103.315C279.531 103.66 279.398 103.955 279.133 104.2C278.871 104.446 278.553 104.568 278.179 104.568ZM285.503 105.364V107.352H280.472V105.364H285.503ZM281.446 103.534H284.19V110.544C284.19 110.65 284.209 110.74 284.245 110.812C284.282 110.882 284.338 110.935 284.414 110.972C284.49 111.005 284.588 111.021 284.707 111.021C284.79 111.021 284.886 111.011 284.996 110.991C285.109 110.972 285.191 110.955 285.244 110.942L285.642 112.871C285.52 112.907 285.344 112.952 285.115 113.005C284.89 113.058 284.621 113.093 284.31 113.109C283.68 113.143 283.151 113.078 282.724 112.915C282.296 112.75 281.975 112.49 281.759 112.135C281.544 111.78 281.439 111.336 281.446 110.803V103.534ZM286.623 113V105.364H289.367V113H286.623ZM287.995 104.568C287.624 104.568 287.306 104.446 287.04 104.2C286.775 103.955 286.643 103.66 286.643 103.315C286.643 102.971 286.775 102.676 287.04 102.43C287.306 102.185 287.624 102.062 287.995 102.062C288.369 102.062 288.688 102.185 288.949 102.43C289.215 102.676 289.347 102.971 289.347 103.315C289.347 103.66 289.215 103.955 288.949 104.2C288.688 104.446 288.369 104.568 287.995 104.568ZM294.444 113.139C293.616 113.139 292.906 112.975 292.316 112.647C291.727 112.316 291.274 111.855 290.959 111.265C290.644 110.672 290.487 109.984 290.487 109.202C290.487 108.42 290.644 107.733 290.959 107.143C291.274 106.55 291.727 106.089 292.316 105.761C292.906 105.43 293.616 105.264 294.444 105.264C295.273 105.264 295.982 105.43 296.572 105.761C297.162 106.089 297.615 106.55 297.929 107.143C298.244 107.733 298.402 108.42 298.402 109.202C298.402 109.984 298.244 110.672 297.929 111.265C297.615 111.855 297.162 112.316 296.572 112.647C295.982 112.975 295.273 113.139 294.444 113.139ZM294.464 111.111C294.696 111.111 294.897 111.033 295.066 110.877C295.235 110.721 295.366 110.499 295.459 110.211C295.551 109.923 295.598 109.58 295.598 109.182C295.598 108.781 295.551 108.438 295.459 108.153C295.366 107.864 295.235 107.642 295.066 107.487C294.897 107.331 294.696 107.253 294.464 107.253C294.219 107.253 294.008 107.331 293.833 107.487C293.657 107.642 293.523 107.864 293.43 108.153C293.337 108.438 293.291 108.781 293.291 109.182C293.291 109.58 293.337 109.923 293.43 110.211C293.523 110.499 293.657 110.721 293.833 110.877C294.008 111.033 294.219 111.111 294.464 111.111ZM302.26 108.705V113H299.515V105.364H302.12V106.815H302.2C302.366 106.331 302.657 105.952 303.075 105.677C303.496 105.402 303.986 105.264 304.547 105.264C305.087 105.264 305.556 105.388 305.954 105.637C306.355 105.882 306.665 106.22 306.883 106.651C307.105 107.082 307.215 107.574 307.211 108.128V113H304.467V108.705C304.47 108.327 304.374 108.03 304.179 107.815C303.986 107.599 303.718 107.491 303.373 107.491C303.148 107.491 302.951 107.541 302.782 107.641C302.616 107.737 302.488 107.876 302.399 108.058C302.309 108.237 302.263 108.453 302.26 108.705ZM316.804 106C316.778 105.669 316.653 105.41 316.431 105.224C316.212 105.039 315.879 104.946 315.432 104.946C315.147 104.946 314.913 104.981 314.731 105.05C314.552 105.117 314.419 105.208 314.333 105.324C314.247 105.44 314.202 105.572 314.199 105.722C314.192 105.844 314.214 105.955 314.264 106.055C314.317 106.151 314.399 106.239 314.512 106.318C314.625 106.394 314.769 106.464 314.945 106.527C315.12 106.59 315.329 106.646 315.571 106.696L316.406 106.875C316.97 106.994 317.452 107.152 317.853 107.347C318.254 107.543 318.582 107.773 318.837 108.038C319.093 108.3 319.28 108.595 319.399 108.923C319.522 109.251 319.585 109.609 319.588 109.997C319.585 110.667 319.417 111.233 319.086 111.697C318.755 112.161 318.281 112.514 317.664 112.756C317.051 112.998 316.314 113.119 315.452 113.119C314.567 113.119 313.795 112.988 313.135 112.727C312.479 112.465 311.968 112.062 311.604 111.518C311.243 110.972 311.06 110.272 311.057 109.42H313.682C313.698 109.732 313.776 109.994 313.916 110.206C314.055 110.418 314.25 110.579 314.502 110.688C314.757 110.798 315.061 110.852 315.412 110.852C315.707 110.852 315.954 110.816 316.153 110.743C316.352 110.67 316.502 110.569 316.605 110.44C316.708 110.31 316.761 110.163 316.764 109.997C316.761 109.841 316.71 109.705 316.61 109.589C316.514 109.47 316.355 109.364 316.133 109.271C315.911 109.175 315.611 109.086 315.233 109.003L314.219 108.784C313.317 108.589 312.606 108.262 312.086 107.805C311.569 107.344 311.312 106.716 311.315 105.92C311.312 105.274 311.484 104.709 311.832 104.225C312.184 103.738 312.669 103.358 313.289 103.087C313.912 102.815 314.627 102.679 315.432 102.679C316.254 102.679 316.965 102.817 317.565 103.092C318.165 103.367 318.627 103.754 318.952 104.255C319.28 104.752 319.446 105.334 319.449 106H316.804ZM320.56 111.409V109.261L324.657 102.818H326.606V105.682H325.492L323.285 109.182V109.261H329.33V111.409H320.56ZM325.512 113V110.753L325.571 109.818V102.818H328.157V113H325.512Z" fill="#3B3636"/>
<path d="M163.14 139C163.11 138.621 162.968 138.326 162.714 138.114C162.464 137.902 162.083 137.795 161.572 137.795C161.246 137.795 160.979 137.835 160.771 137.915C160.566 137.991 160.415 138.095 160.316 138.227C160.218 138.36 160.166 138.511 160.163 138.682C160.155 138.822 160.18 138.949 160.237 139.062C160.297 139.172 160.392 139.273 160.521 139.364C160.649 139.451 160.814 139.53 161.015 139.602C161.216 139.674 161.454 139.739 161.731 139.795L162.685 140C163.329 140.136 163.88 140.316 164.339 140.54C164.797 140.763 165.172 141.027 165.464 141.33C165.755 141.629 165.969 141.966 166.106 142.341C166.246 142.716 166.318 143.125 166.322 143.568C166.318 144.333 166.127 144.981 165.748 145.511C165.369 146.042 164.827 146.445 164.123 146.722C163.422 146.998 162.579 147.136 161.594 147.136C160.583 147.136 159.701 146.987 158.947 146.688C158.197 146.388 157.613 145.928 157.197 145.307C156.784 144.682 156.576 143.883 156.572 142.909H159.572C159.591 143.265 159.68 143.564 159.839 143.807C159.998 144.049 160.221 144.233 160.509 144.358C160.801 144.483 161.147 144.545 161.549 144.545C161.886 144.545 162.168 144.504 162.396 144.42C162.623 144.337 162.795 144.222 162.913 144.074C163.03 143.926 163.091 143.758 163.094 143.568C163.091 143.39 163.032 143.235 162.918 143.102C162.808 142.966 162.627 142.845 162.373 142.739C162.119 142.629 161.776 142.527 161.344 142.432L160.185 142.182C159.155 141.958 158.343 141.585 157.748 141.062C157.157 140.536 156.863 139.818 156.867 138.909C156.863 138.17 157.06 137.525 157.458 136.972C157.86 136.415 158.415 135.981 159.123 135.67C159.835 135.36 160.651 135.205 161.572 135.205C162.511 135.205 163.324 135.362 164.009 135.676C164.695 135.991 165.223 136.434 165.594 137.006C165.969 137.574 166.159 138.239 166.163 139H163.14ZM167.523 147V135.364H175.91V137.909H170.683V139.909H175.478V142.455H170.683V144.455H175.887V147H167.523ZM177.477 147V135.364H182.499C183.363 135.364 184.119 135.534 184.766 135.875C185.414 136.216 185.918 136.695 186.278 137.312C186.638 137.93 186.817 138.652 186.817 139.477C186.817 140.311 186.632 141.032 186.261 141.642C185.893 142.252 185.376 142.722 184.71 143.051C184.047 143.381 183.272 143.545 182.386 143.545H179.386V141.091H181.749C182.121 141.091 182.437 141.027 182.698 140.898C182.963 140.765 183.166 140.578 183.306 140.335C183.45 140.093 183.522 139.807 183.522 139.477C183.522 139.144 183.45 138.86 183.306 138.625C183.166 138.386 182.963 138.205 182.698 138.08C182.437 137.951 182.121 137.886 181.749 137.886H180.636V147H177.477ZM195.732 147.159C194.816 147.159 194.001 147.002 193.289 146.688C192.581 146.369 192.024 145.932 191.619 145.375C191.213 144.818 191.009 144.178 191.005 143.455H194.187C194.191 143.678 194.259 143.879 194.391 144.057C194.528 144.231 194.713 144.367 194.948 144.466C195.183 144.564 195.452 144.614 195.755 144.614C196.047 144.614 196.304 144.562 196.528 144.46C196.751 144.354 196.925 144.208 197.05 144.023C197.175 143.837 197.236 143.625 197.232 143.386C197.236 143.152 197.164 142.943 197.016 142.761C196.872 142.58 196.67 142.437 196.408 142.335C196.147 142.233 195.846 142.182 195.505 142.182H194.323V140H195.505C195.819 140 196.096 139.949 196.335 139.847C196.577 139.744 196.764 139.602 196.897 139.42C197.033 139.239 197.1 139.03 197.096 138.795C197.1 138.568 197.045 138.367 196.931 138.193C196.817 138.019 196.658 137.883 196.454 137.784C196.253 137.686 196.02 137.636 195.755 137.636C195.467 137.636 195.21 137.687 194.982 137.79C194.759 137.892 194.583 138.034 194.454 138.216C194.325 138.398 194.259 138.606 194.255 138.841H191.232C191.236 138.129 191.431 137.5 191.817 136.955C192.208 136.409 192.742 135.981 193.42 135.67C194.098 135.36 194.876 135.205 195.755 135.205C196.615 135.205 197.374 135.35 198.033 135.642C198.696 135.934 199.213 136.335 199.585 136.847C199.96 137.354 200.145 137.936 200.141 138.591C200.149 139.242 199.925 139.777 199.471 140.193C199.02 140.61 198.448 140.856 197.755 140.932V141.023C198.694 141.125 199.401 141.413 199.874 141.886C200.348 142.356 200.581 142.947 200.573 143.659C200.577 144.341 200.372 144.945 199.96 145.472C199.55 145.998 198.98 146.411 198.249 146.71C197.522 147.009 196.683 147.159 195.732 147.159ZM207.052 147.318C205.995 147.314 205.082 147.07 204.313 146.585C203.544 146.1 202.951 145.402 202.535 144.489C202.118 143.576 201.912 142.481 201.915 141.205C201.919 139.924 202.128 138.837 202.54 137.943C202.957 137.049 203.548 136.369 204.313 135.903C205.082 135.437 205.995 135.205 207.052 135.205C208.109 135.205 209.022 135.439 209.79 135.909C210.559 136.375 211.152 137.055 211.569 137.949C211.986 138.843 212.192 139.928 212.188 141.205C212.188 142.489 211.98 143.587 211.563 144.5C211.147 145.413 210.554 146.112 209.785 146.597C209.02 147.078 208.109 147.318 207.052 147.318ZM207.052 144.75C207.597 144.75 208.044 144.466 208.393 143.898C208.745 143.326 208.919 142.428 208.915 141.205C208.915 140.405 208.836 139.752 208.677 139.244C208.518 138.737 208.298 138.362 208.018 138.119C207.737 137.873 207.415 137.75 207.052 137.75C206.506 137.75 206.061 138.027 205.717 138.58C205.372 139.133 205.196 140.008 205.188 141.205C205.184 142.019 205.262 142.689 205.421 143.216C205.58 143.739 205.8 144.125 206.08 144.375C206.364 144.625 206.688 144.75 207.052 144.75ZM213.33 137.909V135.364H223.444V137.909H219.944V147H216.83V137.909H213.33ZM224.633 147V135.364H227.792V139.909H231.974V135.364H235.133V147H231.974V142.455H227.792V147H224.633Z" fill="#9A2B2B"/>
<path d="M77.3959 163C77.3693 162.669 77.2451 162.41 77.023 162.224C76.8042 162.039 76.4711 161.946 76.0237 161.946C75.7387 161.946 75.505 161.981 75.3227 162.05C75.1437 162.117 75.0112 162.208 74.925 162.324C74.8388 162.44 74.7941 162.572 74.7907 162.722C74.7841 162.844 74.8057 162.955 74.8554 163.055C74.9084 163.151 74.9913 163.239 75.104 163.318C75.2166 163.394 75.3608 163.464 75.5365 163.527C75.7122 163.59 75.921 163.646 76.1629 163.696L76.9981 163.875C77.5616 163.994 78.0438 164.152 78.4449 164.347C78.8459 164.543 79.174 164.773 79.4292 165.038C79.6845 165.3 79.8717 165.595 79.991 165.923C80.1137 166.251 80.1766 166.609 80.18 166.997C80.1766 167.667 80.0093 168.233 79.6778 168.697C79.3464 169.161 78.8724 169.514 78.2559 169.756C77.6428 169.998 76.9053 170.119 76.0436 170.119C75.1586 170.119 74.3864 169.988 73.7268 169.727C73.0706 169.465 72.5602 169.062 72.1956 168.518C71.8343 167.972 71.652 167.272 71.6487 166.42H74.2737C74.2903 166.732 74.3682 166.994 74.5074 167.206C74.6466 167.418 74.8421 167.579 75.094 167.688C75.3492 167.798 75.6525 167.852 76.0038 167.852C76.2988 167.852 76.5457 167.816 76.7446 167.743C76.9434 167.67 77.0943 167.569 77.197 167.44C77.2997 167.31 77.3528 167.163 77.3561 166.997C77.3528 166.841 77.3014 166.705 77.202 166.589C77.1059 166.47 76.9468 166.364 76.7247 166.271C76.5026 166.175 76.2027 166.086 75.8248 166.003L74.8106 165.784C73.9091 165.589 73.1982 165.262 72.6778 164.805C72.1608 164.344 71.9039 163.716 71.9072 162.92C71.9039 162.274 72.0763 161.709 72.4243 161.225C72.7756 160.738 73.2612 160.358 73.8809 160.087C74.5041 159.815 75.2183 159.679 76.0237 159.679C76.8457 159.679 77.5566 159.817 78.1565 160.092C78.7564 160.367 79.2188 160.754 79.5436 161.255C79.8717 161.752 80.0374 162.334 80.0407 163H77.3959ZM84.9502 170.139C84.1216 170.139 83.4123 169.975 82.8224 169.647C82.2324 169.316 81.78 168.855 81.4651 168.265C81.1502 167.672 80.9928 166.984 80.9928 166.202C80.9928 165.42 81.1502 164.733 81.4651 164.143C81.78 163.55 82.2324 163.089 82.8224 162.761C83.4123 162.43 84.1216 162.264 84.9502 162.264C85.7788 162.264 86.4881 162.43 87.078 162.761C87.668 163.089 88.1204 163.55 88.4353 164.143C88.7501 164.733 88.9076 165.42 88.9076 166.202C88.9076 166.984 88.7501 167.672 88.4353 168.265C88.1204 168.855 87.668 169.316 87.078 169.647C86.4881 169.975 85.7788 170.139 84.9502 170.139ZM84.9701 168.111C85.2021 168.111 85.4026 168.033 85.5716 167.877C85.7407 167.721 85.8716 167.499 85.9644 167.211C86.0572 166.923 86.1036 166.58 86.1036 166.182C86.1036 165.781 86.0572 165.438 85.9644 165.153C85.8716 164.864 85.7407 164.642 85.5716 164.487C85.4026 164.331 85.2021 164.253 84.9701 164.253C84.7248 164.253 84.5144 164.331 84.3387 164.487C84.163 164.642 84.0288 164.864 83.936 165.153C83.8432 165.438 83.7968 165.781 83.7968 166.182C83.7968 166.58 83.8432 166.923 83.936 167.211C84.0288 167.499 84.163 167.721 84.3387 167.877C84.5144 168.033 84.7248 168.111 84.9701 168.111ZM92.7655 159.818V170H90.0212V159.818H92.7655ZM96.2916 170.119C95.8044 170.119 95.3735 170.04 94.999 169.881C94.6278 169.718 94.3361 169.473 94.124 169.145C93.9119 168.817 93.8058 168.399 93.8058 167.892C93.8058 167.474 93.8771 167.118 94.0196 166.823C94.1621 166.525 94.361 166.281 94.6162 166.092C94.8714 165.903 95.1681 165.759 95.5061 165.66C95.8475 165.56 96.2154 165.496 96.6098 165.466C97.0374 165.433 97.3804 165.393 97.6389 165.347C97.9008 165.297 98.0897 165.229 98.2057 165.143C98.3217 165.053 98.3797 164.936 98.3797 164.79V164.77C98.3797 164.571 98.3035 164.419 98.151 164.312C97.9985 164.206 97.803 164.153 97.5644 164.153C97.3025 164.153 97.0887 164.211 96.923 164.327C96.7606 164.44 96.6628 164.614 96.6297 164.849H94.1041C94.1373 164.385 94.2848 163.958 94.5466 163.567C94.8118 163.172 95.1979 162.857 95.705 162.622C96.2121 162.384 96.8451 162.264 97.6041 162.264C98.151 162.264 98.6415 162.329 99.0757 162.458C99.5099 162.584 99.8795 162.761 100.184 162.99C100.489 163.215 100.721 163.481 100.88 163.786C101.043 164.087 101.124 164.415 101.124 164.77V170H98.5587V168.926H98.499C98.3466 169.211 98.161 169.442 97.9422 169.617C97.7268 169.793 97.4798 169.92 97.2014 170C96.9263 170.08 96.6231 170.119 96.2916 170.119ZM97.1865 168.389C97.3953 168.389 97.5909 168.346 97.7732 168.26C97.9588 168.174 98.1096 168.049 98.2256 167.887C98.3416 167.725 98.3996 167.527 98.3996 167.295V166.659C98.3267 166.689 98.2488 166.717 98.1659 166.744C98.0864 166.77 98.0002 166.795 97.9074 166.818C97.8179 166.841 97.7218 166.863 97.6191 166.883C97.5196 166.903 97.4152 166.921 97.3058 166.938C97.0937 166.971 96.9197 167.025 96.7838 167.102C96.6512 167.174 96.5518 167.266 96.4855 167.375C96.4226 167.481 96.3911 167.6 96.3911 167.733C96.3911 167.945 96.4656 168.107 96.6148 168.22C96.7639 168.333 96.9545 168.389 97.1865 168.389ZM105.18 165.705V170H102.435V162.364H105.04V163.815H105.12C105.286 163.331 105.577 162.952 105.995 162.677C106.416 162.402 106.906 162.264 107.467 162.264C108.007 162.264 108.476 162.388 108.873 162.637C109.275 162.882 109.584 163.22 109.803 163.651C110.025 164.082 110.135 164.574 110.131 165.128V170H107.387V165.705C107.39 165.327 107.294 165.03 107.099 164.815C106.906 164.599 106.638 164.491 106.293 164.491C106.068 164.491 105.871 164.541 105.702 164.641C105.536 164.737 105.408 164.876 105.319 165.058C105.229 165.237 105.183 165.453 105.18 165.705ZM113.614 170.119C113.127 170.119 112.696 170.04 112.321 169.881C111.95 169.718 111.658 169.473 111.446 169.145C111.234 168.817 111.128 168.399 111.128 167.892C111.128 167.474 111.199 167.118 111.342 166.823C111.484 166.525 111.683 166.281 111.938 166.092C112.194 165.903 112.49 165.759 112.828 165.66C113.17 165.56 113.538 165.496 113.932 165.466C114.36 165.433 114.703 165.393 114.961 165.347C115.223 165.297 115.412 165.229 115.528 165.143C115.644 165.053 115.702 164.936 115.702 164.79V164.77C115.702 164.571 115.626 164.419 115.473 164.312C115.321 164.206 115.125 164.153 114.887 164.153C114.625 164.153 114.411 164.211 114.245 164.327C114.083 164.44 113.985 164.614 113.952 164.849H111.426C111.46 164.385 111.607 163.958 111.869 163.567C112.134 163.172 112.52 162.857 113.027 162.622C113.534 162.384 114.167 162.264 114.926 162.264C115.473 162.264 115.964 162.329 116.398 162.458C116.832 162.584 117.202 162.761 117.507 162.99C117.812 163.215 118.044 163.481 118.203 163.786C118.365 164.087 118.446 164.415 118.446 164.77V170H115.881V168.926H115.821C115.669 169.211 115.483 169.442 115.264 169.617C115.049 169.793 114.802 169.92 114.524 170C114.249 170.08 113.945 170.119 113.614 170.119ZM114.509 168.389C114.718 168.389 114.913 168.346 115.095 168.26C115.281 168.174 115.432 168.049 115.548 167.887C115.664 167.725 115.722 167.527 115.722 167.295V166.659C115.649 166.689 115.571 166.717 115.488 166.744C115.409 166.77 115.322 166.795 115.23 166.818C115.14 166.841 115.044 166.863 114.941 166.883C114.842 166.903 114.737 166.921 114.628 166.938C114.416 166.971 114.242 167.025 114.106 167.102C113.974 167.174 113.874 167.266 113.808 167.375C113.745 167.481 113.713 167.6 113.713 167.733C113.713 167.945 113.788 168.107 113.937 168.22C114.086 168.333 114.277 168.389 114.509 168.389ZM125.152 170H122.169L125.53 159.818H129.308L132.669 170H129.686L127.459 162.622H127.379L125.152 170ZM124.595 165.983H130.203V168.051H124.595V165.983ZM133.689 172.864V162.364H136.414V163.696H136.473C136.573 163.437 136.719 163.201 136.911 162.985C137.103 162.766 137.342 162.592 137.627 162.463C137.912 162.33 138.243 162.264 138.621 162.264C139.125 162.264 139.604 162.398 140.058 162.667C140.515 162.935 140.886 163.358 141.171 163.935C141.46 164.511 141.604 165.26 141.604 166.182C141.604 167.063 141.466 167.794 141.191 168.374C140.92 168.954 140.555 169.387 140.098 169.672C139.643 169.957 139.145 170.099 138.601 170.099C138.243 170.099 137.923 170.041 137.642 169.925C137.363 169.806 137.125 169.645 136.926 169.443C136.73 169.238 136.579 169.006 136.473 168.747H136.434V172.864H133.689ZM136.374 166.182C136.374 166.553 136.422 166.875 136.518 167.146C136.617 167.415 136.757 167.624 136.936 167.773C137.118 167.919 137.335 167.991 137.587 167.991C137.839 167.991 138.053 167.92 138.228 167.778C138.407 167.632 138.543 167.425 138.636 167.156C138.732 166.884 138.78 166.56 138.78 166.182C138.78 165.804 138.732 165.481 138.636 165.212C138.543 164.941 138.407 164.733 138.228 164.591C138.053 164.445 137.839 164.372 137.587 164.372C137.335 164.372 137.118 164.445 136.936 164.591C136.757 164.733 136.617 164.941 136.518 165.212C136.422 165.481 136.374 165.804 136.374 166.182ZM146.413 170.139C145.597 170.139 144.895 169.983 144.305 169.672C143.718 169.357 143.266 168.906 142.948 168.32C142.633 167.73 142.475 167.024 142.475 166.202C142.475 165.413 142.634 164.723 142.953 164.134C143.271 163.544 143.72 163.085 144.3 162.756C144.88 162.428 145.564 162.264 146.353 162.264C146.93 162.264 147.452 162.354 147.919 162.533C148.386 162.712 148.786 162.972 149.117 163.313C149.449 163.651 149.704 164.062 149.883 164.546C150.062 165.03 150.151 165.575 150.151 166.182V166.818H143.33V165.307H147.626C147.622 165.088 147.566 164.896 147.457 164.73C147.351 164.561 147.207 164.43 147.024 164.337C146.845 164.241 146.641 164.193 146.413 164.193C146.191 164.193 145.987 164.241 145.801 164.337C145.616 164.43 145.466 164.559 145.354 164.725C145.244 164.891 145.186 165.085 145.18 165.307V166.938C145.18 167.183 145.231 167.402 145.334 167.594C145.437 167.786 145.584 167.937 145.776 168.046C145.969 168.156 146.201 168.21 146.472 168.21C146.661 168.21 146.834 168.184 146.989 168.131C147.149 168.078 147.284 168.001 147.397 167.902C147.51 167.799 147.593 167.677 147.646 167.534H150.151C150.065 168.064 149.861 168.525 149.54 168.916C149.218 169.304 148.792 169.606 148.262 169.821C147.735 170.033 147.119 170.139 146.413 170.139ZM153.556 162.364L154.669 164.73L155.843 162.364H158.567L156.519 166.182L158.666 170H155.962L154.669 167.574L153.416 170H150.672L152.84 166.182L150.811 162.364H153.556ZM167.781 163C167.754 162.669 167.63 162.41 167.408 162.224C167.189 162.039 166.856 161.946 166.408 161.946C166.123 161.946 165.89 161.981 165.707 162.05C165.528 162.117 165.396 162.208 165.31 162.324C165.224 162.44 165.179 162.572 165.176 162.722C165.169 162.844 165.19 162.955 165.24 163.055C165.293 163.151 165.376 163.239 165.489 163.318C165.601 163.394 165.746 163.464 165.921 163.527C166.097 163.59 166.306 163.646 166.548 163.696L167.383 163.875C167.946 163.994 168.429 164.152 168.83 164.347C169.231 164.543 169.559 164.773 169.814 165.038C170.069 165.3 170.256 165.595 170.376 165.923C170.498 166.251 170.561 166.609 170.565 166.997C170.561 167.667 170.394 168.233 170.063 168.697C169.731 169.161 169.257 169.514 168.641 169.756C168.028 169.998 167.29 170.119 166.428 170.119C165.543 170.119 164.771 169.988 164.112 169.727C163.455 169.465 162.945 169.062 162.58 168.518C162.219 167.972 162.037 167.272 162.033 166.42H164.658C164.675 166.732 164.753 166.994 164.892 167.206C165.031 167.418 165.227 167.579 165.479 167.688C165.734 167.798 166.037 167.852 166.389 167.852C166.684 167.852 166.93 167.816 167.129 167.743C167.328 167.67 167.479 167.569 167.582 167.44C167.685 167.31 167.738 167.163 167.741 166.997C167.738 166.841 167.686 166.705 167.587 166.589C167.491 166.47 167.332 166.364 167.109 166.271C166.887 166.175 166.587 166.086 166.21 166.003L165.195 165.784C164.294 165.589 163.583 165.262 163.063 164.805C162.546 164.344 162.289 163.716 162.292 162.92C162.289 162.274 162.461 161.709 162.809 161.225C163.16 160.738 163.646 160.358 164.266 160.087C164.889 159.815 165.603 159.679 166.408 159.679C167.23 159.679 167.941 159.817 168.541 160.092C169.141 160.367 169.604 160.754 169.928 161.255C170.256 161.752 170.422 162.334 170.426 163H167.781ZM171.656 170V162.364H174.4V170H171.656ZM173.028 161.568C172.657 161.568 172.339 161.446 172.074 161.2C171.808 160.955 171.676 160.66 171.676 160.315C171.676 159.971 171.808 159.676 172.074 159.43C172.339 159.185 172.657 159.062 173.028 159.062C173.403 159.062 173.721 159.185 173.983 159.43C174.248 159.676 174.38 159.971 174.38 160.315C174.38 160.66 174.248 160.955 173.983 161.2C173.721 161.446 173.403 161.568 173.028 161.568ZM178.543 165.705V170H175.799V162.364H178.404V163.815H178.483C178.649 163.331 178.941 162.952 179.358 162.677C179.779 162.402 180.27 162.264 180.83 162.264C181.37 162.264 181.839 162.388 182.237 162.637C182.638 162.882 182.948 163.22 183.166 163.651C183.389 164.082 183.498 164.574 183.495 165.128V170H180.75V165.705C180.754 165.327 180.657 165.03 180.462 164.815C180.27 164.599 180.001 164.491 179.657 164.491C179.431 164.491 179.234 164.541 179.065 164.641C178.899 164.737 178.772 164.876 178.682 165.058C178.593 165.237 178.546 165.453 178.543 165.705ZM188.528 173.023C187.763 173.023 187.106 172.913 186.56 172.695C186.016 172.479 185.593 172.181 185.292 171.8C184.994 171.422 184.826 170.988 184.79 170.497H187.435C187.461 170.66 187.527 170.79 187.633 170.89C187.739 170.989 187.875 171.061 188.041 171.104C188.21 171.15 188.399 171.173 188.608 171.173C188.963 171.173 189.256 171.087 189.488 170.915C189.723 170.742 189.841 170.431 189.841 169.98V168.688H189.761C189.662 168.946 189.509 169.166 189.304 169.349C189.098 169.528 188.851 169.665 188.563 169.761C188.275 169.854 187.958 169.901 187.614 169.901C187.07 169.901 186.57 169.775 186.112 169.523C185.658 169.271 185.293 168.871 185.018 168.325C184.747 167.778 184.611 167.063 184.611 166.182C184.611 165.26 184.753 164.511 185.038 163.935C185.327 163.358 185.698 162.935 186.152 162.667C186.609 162.398 187.09 162.264 187.594 162.264C187.972 162.264 188.303 162.33 188.588 162.463C188.873 162.592 189.112 162.766 189.304 162.985C189.496 163.201 189.642 163.437 189.741 163.696H189.801V162.364H192.545V169.98C192.545 170.626 192.378 171.175 192.043 171.626C191.712 172.08 191.244 172.426 190.641 172.665C190.038 172.903 189.334 173.023 188.528 173.023ZM188.628 167.952C188.88 167.952 189.095 167.882 189.274 167.743C189.456 167.6 189.596 167.398 189.692 167.136C189.791 166.871 189.841 166.553 189.841 166.182C189.841 165.804 189.791 165.481 189.692 165.212C189.596 164.941 189.456 164.733 189.274 164.591C189.095 164.445 188.88 164.372 188.628 164.372C188.376 164.372 188.16 164.445 187.981 164.591C187.806 164.733 187.67 164.941 187.574 165.212C187.481 165.481 187.435 165.804 187.435 166.182C187.435 166.56 187.481 166.881 187.574 167.146C187.67 167.408 187.806 167.609 187.981 167.748C188.16 167.884 188.376 167.952 188.628 167.952ZM196.069 170.119C195.582 170.119 195.151 170.04 194.776 169.881C194.405 169.718 194.113 169.473 193.901 169.145C193.689 168.817 193.583 168.399 193.583 167.892C193.583 167.474 193.654 167.118 193.797 166.823C193.939 166.525 194.138 166.281 194.394 166.092C194.649 165.903 194.945 165.759 195.283 165.66C195.625 165.56 195.993 165.496 196.387 165.466C196.815 165.433 197.158 165.393 197.416 165.347C197.678 165.297 197.867 165.229 197.983 165.143C198.099 165.053 198.157 164.936 198.157 164.79V164.77C198.157 164.571 198.081 164.419 197.928 164.312C197.776 164.206 197.58 164.153 197.342 164.153C197.08 164.153 196.866 164.211 196.7 164.327C196.538 164.44 196.44 164.614 196.407 164.849H193.881C193.915 164.385 194.062 163.958 194.324 163.567C194.589 163.172 194.975 162.857 195.482 162.622C195.989 162.384 196.622 162.264 197.381 162.264C197.928 162.264 198.419 162.329 198.853 162.458C199.287 162.584 199.657 162.761 199.962 162.99C200.267 163.215 200.499 163.481 200.658 163.786C200.82 164.087 200.901 164.415 200.901 164.77V170H198.336V168.926H198.276C198.124 169.211 197.938 169.442 197.72 169.617C197.504 169.793 197.257 169.92 196.979 170C196.704 170.08 196.4 170.119 196.069 170.119ZM196.964 168.389C197.173 168.389 197.368 168.346 197.551 168.26C197.736 168.174 197.887 168.049 198.003 167.887C198.119 167.725 198.177 167.527 198.177 167.295V166.659C198.104 166.689 198.026 166.717 197.943 166.744C197.864 166.77 197.778 166.795 197.685 166.818C197.595 166.841 197.499 166.863 197.396 166.883C197.297 166.903 197.193 166.921 197.083 166.938C196.871 166.971 196.697 167.025 196.561 167.102C196.429 167.174 196.329 167.266 196.263 167.375C196.2 167.481 196.168 167.6 196.168 167.733C196.168 167.945 196.243 168.107 196.392 168.22C196.541 168.333 196.732 168.389 196.964 168.389ZM202.213 172.864V162.364H204.937V163.696H204.997C205.096 163.437 205.242 163.201 205.434 162.985C205.626 162.766 205.865 162.592 206.15 162.463C206.435 162.33 206.767 162.264 207.144 162.264C207.648 162.264 208.127 162.398 208.581 162.667C209.039 162.935 209.41 163.358 209.695 163.935C209.983 164.511 210.127 165.26 210.127 166.182C210.127 167.063 209.99 167.794 209.715 168.374C209.443 168.954 209.078 169.387 208.621 169.672C208.167 169.957 207.668 170.099 207.125 170.099C206.767 170.099 206.447 170.041 206.165 169.925C205.887 169.806 205.648 169.645 205.449 169.443C205.254 169.238 205.103 169.006 204.997 168.747H204.957V172.864H202.213ZM204.897 166.182C204.897 166.553 204.945 166.875 205.041 167.146C205.141 167.415 205.28 167.624 205.459 167.773C205.641 167.919 205.858 167.991 206.11 167.991C206.362 167.991 206.576 167.92 206.752 167.778C206.931 167.632 207.067 167.425 207.159 167.156C207.255 166.884 207.304 166.56 207.304 166.182C207.304 165.804 207.255 165.481 207.159 165.212C207.067 164.941 206.931 164.733 206.752 164.591C206.576 164.445 206.362 164.372 206.11 164.372C205.858 164.372 205.641 164.445 205.459 164.591C205.28 164.733 205.141 164.941 205.041 165.212C204.945 165.481 204.897 165.804 204.897 166.182ZM214.956 170.139C214.127 170.139 213.418 169.975 212.828 169.647C212.238 169.316 211.786 168.855 211.471 168.265C211.156 167.672 210.999 166.984 210.999 166.202C210.999 165.42 211.156 164.733 211.471 164.143C211.786 163.55 212.238 163.089 212.828 162.761C213.418 162.43 214.127 162.264 214.956 162.264C215.785 162.264 216.494 162.43 217.084 162.761C217.674 163.089 218.126 163.55 218.441 164.143C218.756 164.733 218.913 165.42 218.913 166.202C218.913 166.984 218.756 167.672 218.441 168.265C218.126 168.855 217.674 169.316 217.084 169.647C216.494 169.975 215.785 170.139 214.956 170.139ZM214.976 168.111C215.208 168.111 215.408 168.033 215.578 167.877C215.747 167.721 215.877 167.499 215.97 167.211C216.063 166.923 216.109 166.58 216.109 166.182C216.109 165.781 216.063 165.438 215.97 165.153C215.877 164.864 215.747 164.642 215.578 164.487C215.408 164.331 215.208 164.253 214.976 164.253C214.731 164.253 214.52 164.331 214.345 164.487C214.169 164.642 214.035 164.864 213.942 165.153C213.849 165.438 213.803 165.781 213.803 166.182C213.803 166.58 213.849 166.923 213.942 167.211C214.035 167.499 214.169 167.721 214.345 167.877C214.52 168.033 214.731 168.111 214.976 168.111ZM220.027 170V162.364H222.692V163.815H222.771C222.911 163.278 223.131 162.886 223.433 162.637C223.738 162.388 224.094 162.264 224.502 162.264C224.621 162.264 224.738 162.274 224.854 162.294C224.974 162.311 225.088 162.335 225.198 162.369V164.71C225.062 164.664 224.894 164.629 224.695 164.606C224.497 164.583 224.326 164.571 224.183 164.571C223.915 164.571 223.673 164.632 223.457 164.755C223.245 164.874 223.078 165.043 222.955 165.262C222.833 165.478 222.771 165.731 222.771 166.023V170H220.027ZM229.319 170.139C228.504 170.139 227.801 169.983 227.211 169.672C226.624 169.357 226.172 168.906 225.854 168.32C225.539 167.73 225.381 167.024 225.381 166.202C225.381 165.413 225.541 164.723 225.859 164.134C226.177 163.544 226.626 163.085 227.206 162.756C227.786 162.428 228.47 162.264 229.259 162.264C229.836 162.264 230.358 162.354 230.825 162.533C231.293 162.712 231.692 162.972 232.024 163.313C232.355 163.651 232.61 164.062 232.789 164.546C232.968 165.03 233.058 165.575 233.058 166.182V166.818H226.237V165.307H230.532C230.529 165.088 230.472 164.896 230.363 164.73C230.257 164.561 230.113 164.43 229.93 164.337C229.752 164.241 229.548 164.193 229.319 164.193C229.097 164.193 228.893 164.241 228.707 164.337C228.522 164.43 228.373 164.559 228.26 164.725C228.151 164.891 228.093 165.085 228.086 165.307V166.938C228.086 167.183 228.137 167.402 228.24 167.594C228.343 167.786 228.49 167.937 228.683 168.046C228.875 168.156 229.107 168.21 229.379 168.21C229.568 168.21 229.74 168.184 229.896 168.131C230.055 168.078 230.191 168.001 230.303 167.902C230.416 167.799 230.499 167.677 230.552 167.534H233.058C232.971 168.064 232.768 168.525 232.446 168.916C232.125 169.304 231.699 169.606 231.168 169.821C230.641 170.033 230.025 170.139 229.319 170.139ZM236.648 162.045V159.818H245.498V162.045H242.435V170H239.711V162.045H236.648ZM249.149 170.139C248.321 170.139 247.612 169.975 247.022 169.647C246.432 169.316 245.979 168.855 245.664 168.265C245.349 167.672 245.192 166.984 245.192 166.202C245.192 165.42 245.349 164.733 245.664 164.143C245.979 163.55 246.432 163.089 247.022 162.761C247.612 162.43 248.321 162.264 249.149 162.264C249.978 162.264 250.687 162.43 251.277 162.761C251.867 163.089 252.32 163.55 252.634 164.143C252.949 164.733 253.107 165.42 253.107 166.202C253.107 166.984 252.949 167.672 252.634 168.265C252.32 168.855 251.867 169.316 251.277 169.647C250.687 169.975 249.978 170.139 249.149 170.139ZM249.169 168.111C249.401 168.111 249.602 168.033 249.771 167.877C249.94 167.721 250.071 167.499 250.164 167.211C250.256 166.923 250.303 166.58 250.303 166.182C250.303 165.781 250.256 165.438 250.164 165.153C250.071 164.864 249.94 164.642 249.771 164.487C249.602 164.331 249.401 164.253 249.169 164.253C248.924 164.253 248.714 164.331 248.538 164.487C248.362 164.642 248.228 164.864 248.135 165.153C248.042 165.438 247.996 165.781 247.996 166.182C247.996 166.58 248.042 166.923 248.135 167.211C248.228 167.499 248.362 167.721 248.538 167.877C248.714 168.033 248.924 168.111 249.169 168.111ZM256.686 168.19L256.706 164.929H257.064L258.914 162.364H261.996L258.894 166.361H258.118L256.686 168.19ZM254.22 170V159.818H256.965V170H254.22ZM258.934 170L257.184 166.977L258.973 165.028L262.076 170H258.934ZM266.055 170.139C265.24 170.139 264.537 169.983 263.947 169.672C263.361 169.357 262.908 168.906 262.59 168.32C262.275 167.73 262.118 167.024 262.118 166.202C262.118 165.413 262.277 164.723 262.595 164.134C262.913 163.544 263.362 163.085 263.942 162.756C264.522 162.428 265.207 162.264 265.996 162.264C266.572 162.264 267.094 162.354 267.562 162.533C268.029 162.712 268.428 162.972 268.76 163.313C269.091 163.651 269.347 164.062 269.525 164.546C269.704 165.03 269.794 165.575 269.794 166.182V166.818H262.973V165.307H267.268C267.265 165.088 267.209 164.896 267.099 164.73C266.993 164.561 266.849 164.43 266.667 164.337C266.488 164.241 266.284 164.193 266.055 164.193C265.833 164.193 265.629 164.241 265.444 164.337C265.258 164.43 265.109 164.559 264.996 164.725C264.887 164.891 264.829 165.085 264.822 165.307V166.938C264.822 167.183 264.874 167.402 264.976 167.594C265.079 167.786 265.227 167.937 265.419 168.046C265.611 168.156 265.843 168.21 266.115 168.21C266.304 168.21 266.476 168.184 266.632 168.131C266.791 168.078 266.927 168.001 267.04 167.902C267.152 167.799 267.235 167.677 267.288 167.534H269.794C269.708 168.064 269.504 168.525 269.182 168.916C268.861 169.304 268.435 169.606 267.905 169.821C267.378 170.033 266.761 170.139 266.055 170.139ZM273.658 165.705V170H270.914V162.364H273.519V163.815H273.598C273.764 163.331 274.056 162.952 274.473 162.677C274.894 162.402 275.385 162.264 275.945 162.264C276.485 162.264 276.954 162.388 277.352 162.637C277.753 162.882 278.063 163.22 278.282 163.651C278.504 164.082 278.613 164.574 278.61 165.128V170H275.866V165.705C275.869 165.327 275.773 165.03 275.577 164.815C275.385 164.599 275.116 164.491 274.772 164.491C274.546 164.491 274.349 164.541 274.18 164.641C274.014 164.737 273.887 164.876 273.797 165.058C273.708 165.237 273.661 165.453 273.658 165.705ZM282.734 170V168.011L286.532 164.869C286.784 164.661 286.999 164.465 287.178 164.283C287.361 164.097 287.5 163.906 287.596 163.711C287.695 163.515 287.745 163.298 287.745 163.06C287.745 162.798 287.689 162.574 287.576 162.388C287.467 162.203 287.314 162.06 287.119 161.961C286.923 161.858 286.698 161.807 286.443 161.807C286.187 161.807 285.962 161.858 285.766 161.961C285.574 162.064 285.425 162.214 285.319 162.413C285.213 162.612 285.16 162.854 285.16 163.139H282.535C282.535 162.423 282.696 161.807 283.017 161.29C283.339 160.773 283.793 160.375 284.379 160.097C284.966 159.818 285.654 159.679 286.443 159.679C287.258 159.679 287.964 159.81 288.56 160.072C289.16 160.33 289.623 160.695 289.948 161.165C290.276 161.636 290.44 162.188 290.44 162.821C290.44 163.212 290.359 163.602 290.196 163.989C290.034 164.374 289.742 164.8 289.321 165.267C288.9 165.734 288.302 166.291 287.526 166.938L286.572 167.733V167.793H290.549V170H282.734ZM296.219 170.278C295.294 170.275 294.496 170.061 293.823 169.637C293.15 169.213 292.631 168.601 292.267 167.803C291.902 167.004 291.722 166.046 291.725 164.929C291.728 163.809 291.91 162.857 292.272 162.075C292.636 161.293 293.153 160.698 293.823 160.29C294.496 159.883 295.294 159.679 296.219 159.679C297.144 159.679 297.943 159.884 298.616 160.295C299.288 160.703 299.807 161.298 300.172 162.08C300.536 162.862 300.717 163.812 300.714 164.929C300.714 166.053 300.531 167.014 300.167 167.812C299.802 168.611 299.283 169.223 298.611 169.647C297.941 170.068 297.144 170.278 296.219 170.278ZM296.219 168.031C296.696 168.031 297.088 167.783 297.392 167.286C297.701 166.785 297.853 166 297.85 164.929C297.85 164.23 297.78 163.658 297.641 163.214C297.502 162.77 297.31 162.442 297.064 162.229C296.819 162.014 296.537 161.906 296.219 161.906C295.742 161.906 295.352 162.148 295.051 162.632C294.749 163.116 294.595 163.882 294.589 164.929C294.585 165.642 294.653 166.228 294.792 166.689C294.932 167.146 295.124 167.484 295.369 167.703C295.618 167.922 295.901 168.031 296.219 168.031ZM301.912 168.409V166.261L306.008 159.818H307.957V162.682H306.843L304.636 166.182V166.261H310.682V168.409H301.912ZM306.863 170V167.753L306.923 166.818V159.818H309.508V170H306.863ZM315.818 159.679C316.412 159.679 316.974 159.773 317.504 159.962C318.034 160.148 318.503 160.441 318.911 160.842C319.322 161.243 319.643 161.767 319.875 162.413C320.111 163.056 320.23 163.835 320.233 164.75C320.237 165.585 320.132 166.336 319.92 167.002C319.711 167.665 319.411 168.23 319.02 168.697C318.632 169.165 318.165 169.523 317.618 169.771C317.075 170.017 316.468 170.139 315.799 170.139C315.046 170.139 314.385 169.995 313.815 169.707C313.245 169.418 312.791 169.031 312.453 168.543C312.115 168.056 311.917 167.514 311.861 166.918H314.585C314.652 167.226 314.798 167.45 315.023 167.589C315.248 167.725 315.507 167.793 315.799 167.793C316.382 167.793 316.808 167.541 317.076 167.037C317.348 166.53 317.486 165.854 317.489 165.009H317.429C317.3 165.32 317.104 165.587 316.843 165.809C316.581 166.031 316.276 166.202 315.928 166.321C315.58 166.44 315.212 166.5 314.824 166.5C314.211 166.5 313.674 166.362 313.213 166.087C312.753 165.809 312.393 165.429 312.134 164.949C311.876 164.465 311.745 163.915 311.742 163.298C311.738 162.576 311.909 161.943 312.254 161.399C312.599 160.856 313.077 160.433 313.691 160.131C314.304 159.83 315.013 159.679 315.818 159.679ZM315.838 161.767C315.563 161.767 315.318 161.83 315.103 161.956C314.89 162.082 314.723 162.253 314.6 162.468C314.481 162.683 314.423 162.927 314.426 163.199C314.43 163.471 314.491 163.714 314.61 163.93C314.733 164.145 314.899 164.316 315.108 164.442C315.32 164.568 315.563 164.631 315.838 164.631C316.041 164.631 316.228 164.596 316.4 164.526C316.572 164.453 316.722 164.352 316.848 164.223C316.977 164.09 317.076 163.938 317.146 163.766C317.219 163.59 317.254 163.401 317.25 163.199C317.247 162.927 317.184 162.683 317.061 162.468C316.939 162.253 316.771 162.082 316.559 161.956C316.347 161.83 316.107 161.767 315.838 161.767Z" fill="#3B3636"/>
<rect x="110.5" width="168" height="40" rx="20" fill="#9A2B2B"/>
<path d="M143.278 17C143.241 16.5265 143.063 16.1572 142.746 15.892C142.433 15.6269 141.957 15.4943 141.318 15.4943C140.911 15.4943 140.577 15.544 140.317 15.6435C140.061 15.7382 139.872 15.8684 139.749 16.0341C139.625 16.1998 139.562 16.3892 139.557 16.6023C139.547 16.7775 139.578 16.9361 139.649 17.0781C139.725 17.2154 139.843 17.3409 140.004 17.4545C140.165 17.5634 140.371 17.6629 140.622 17.7528C140.873 17.8428 141.171 17.9233 141.517 17.9943L142.71 18.25C143.515 18.4205 144.204 18.6454 144.777 18.9247C145.35 19.2041 145.819 19.5331 146.183 19.9119C146.548 20.286 146.815 20.7074 146.986 21.1761C147.161 21.6449 147.251 22.1562 147.256 22.7102C147.251 23.6667 147.012 24.4763 146.538 25.1392C146.065 25.8021 145.388 26.3063 144.507 26.652C143.631 26.9976 142.578 27.1705 141.347 27.1705C140.082 27.1705 138.979 26.9834 138.037 26.6094C137.099 26.2353 136.37 25.66 135.849 24.8835C135.333 24.1023 135.073 23.1032 135.068 21.8864H138.818C138.842 22.3314 138.953 22.7055 139.152 23.0085C139.351 23.3116 139.63 23.5412 139.99 23.6974C140.355 23.8537 140.788 23.9318 141.29 23.9318C141.711 23.9318 142.064 23.8797 142.348 23.7756C142.632 23.6714 142.848 23.527 142.994 23.3423C143.141 23.1577 143.217 22.947 143.222 22.7102C143.217 22.4877 143.143 22.2936 143.001 22.1278C142.864 21.9574 142.637 21.8059 142.32 21.6733C142.002 21.536 141.574 21.4081 141.034 21.2898L139.585 20.9773C138.297 20.6979 137.282 20.2315 136.538 19.5781C135.8 18.92 135.433 18.0227 135.438 16.8864C135.433 15.9631 135.679 15.1558 136.176 14.4645C136.678 13.7685 137.372 13.2263 138.257 12.8381C139.147 12.4498 140.168 12.2557 141.318 12.2557C142.492 12.2557 143.508 12.4522 144.365 12.8452C145.222 13.2382 145.883 13.7921 146.347 14.5071C146.815 15.2173 147.052 16.0483 147.057 17H143.278ZM152.707 12.4545V27H148.758V12.4545H152.707ZM167.163 12.4545V27H163.868L158.612 19.358H158.527V27H154.578V12.4545H157.93L163.101 20.0682H163.214V12.4545H167.163ZM178.477 17.2557C178.416 17.0047 178.319 16.7846 178.186 16.5952C178.054 16.401 177.888 16.2377 177.689 16.1051C177.495 15.9678 177.268 15.866 177.007 15.7997C176.751 15.7287 176.47 15.6932 176.162 15.6932C175.499 15.6932 174.933 15.8518 174.464 16.169C174 16.4863 173.645 16.9432 173.399 17.5398C173.158 18.1364 173.037 18.8561 173.037 19.6989C173.037 20.5511 173.153 21.2803 173.385 21.8864C173.617 22.4924 173.963 22.9564 174.422 23.2784C174.881 23.6004 175.452 23.7614 176.134 23.7614C176.735 23.7614 177.234 23.6738 177.632 23.4986C178.035 23.3234 178.335 23.0748 178.534 22.7528C178.733 22.4309 178.832 22.0521 178.832 21.6165L179.514 21.6875H176.19V18.875H182.639V20.892C182.639 22.2178 182.357 23.3518 181.794 24.294C181.235 25.2315 180.464 25.9512 179.479 26.4531C178.499 26.9503 177.374 27.1989 176.105 27.1989C174.689 27.1989 173.446 26.8982 172.376 26.2969C171.306 25.6955 170.471 24.8385 169.869 23.7259C169.273 22.6132 168.974 21.2898 168.974 19.7557C168.974 18.553 169.157 17.4877 169.521 16.5597C169.891 15.6316 170.402 14.848 171.055 14.2088C171.709 13.5649 172.464 13.0795 173.321 12.7528C174.178 12.4214 175.097 12.2557 176.077 12.2557C176.938 12.2557 177.739 12.3788 178.477 12.625C179.221 12.8665 179.876 13.2121 180.445 13.6619C181.018 14.107 181.479 14.6349 181.83 15.2457C182.18 15.8565 182.393 16.5265 182.469 17.2557H178.477ZM187.81 27H183.548L188.349 12.4545H193.747L198.548 27H194.287L191.105 16.4602H190.991L187.81 27ZM187.014 21.2614H195.026V24.2159H187.014V21.2614ZM199.949 27V12.4545H206.228C207.307 12.4545 208.252 12.6676 209.061 13.0938C209.871 13.5199 210.501 14.1188 210.951 14.8906C211.4 15.6624 211.625 16.5644 211.625 17.5966C211.625 18.6383 211.393 19.5402 210.929 20.3026C210.47 21.0649 209.824 21.652 208.99 22.0639C208.162 22.4759 207.194 22.6818 206.086 22.6818H202.336V19.6136H205.29C205.754 19.6136 206.15 19.5331 206.476 19.3722C206.808 19.2064 207.061 18.9721 207.236 18.669C207.416 18.366 207.506 18.0085 207.506 17.5966C207.506 17.1799 207.416 16.8248 207.236 16.5312C207.061 16.233 206.808 16.0057 206.476 15.8494C206.15 15.6884 205.754 15.608 205.29 15.608H203.898V27H199.949ZM227.165 19.7273C227.165 21.3466 226.85 22.7126 226.221 23.8253C225.591 24.9332 224.741 25.7737 223.671 26.3466C222.601 26.9148 221.408 27.1989 220.091 27.1989C218.766 27.1989 217.568 26.9124 216.498 26.3395C215.432 25.7618 214.585 24.919 213.955 23.8111C213.33 22.6984 213.017 21.3371 213.017 19.7273C213.017 18.108 213.33 16.7443 213.955 15.6364C214.585 14.5237 215.432 13.6832 216.498 13.1151C217.568 12.5421 218.766 12.2557 220.091 12.2557C221.408 12.2557 222.601 12.5421 223.671 13.1151C224.741 13.6832 225.591 14.5237 226.221 15.6364C226.85 16.7443 227.165 18.108 227.165 19.7273ZM223.103 19.7273C223.103 18.8561 222.987 18.1222 222.755 17.5256C222.527 16.9242 222.189 16.4697 221.739 16.1619C221.294 15.8494 220.745 15.6932 220.091 15.6932C219.438 15.6932 218.886 15.8494 218.436 16.1619C217.991 16.4697 217.653 16.9242 217.421 17.5256C217.194 18.1222 217.08 18.8561 217.08 19.7273C217.08 20.5985 217.194 21.3348 217.421 21.9361C217.653 22.5327 217.991 22.9872 218.436 23.2997C218.886 23.6075 219.438 23.7614 220.091 23.7614C220.745 23.7614 221.294 23.6075 221.739 23.2997C222.189 22.9872 222.527 22.5327 222.755 21.9361C222.987 21.3348 223.103 20.5985 223.103 19.7273ZM228.992 27V12.4545H235.271C236.35 12.4545 237.295 12.651 238.104 13.044C238.914 13.437 239.544 14.0028 239.994 14.7415C240.443 15.4801 240.668 16.3655 240.668 17.3977C240.668 18.4394 240.436 19.3177 239.972 20.0327C239.513 20.7476 238.867 21.2874 238.033 21.652C237.205 22.0166 236.237 22.1989 235.129 22.1989H231.379V19.1307H234.333C234.797 19.1307 235.192 19.0739 235.519 18.9602C235.851 18.8419 236.104 18.6548 236.279 18.3991C236.459 18.1435 236.549 17.8097 236.549 17.3977C236.549 16.9811 236.459 16.6425 236.279 16.3821C236.104 16.117 235.851 15.9228 235.519 15.7997C235.192 15.6719 234.797 15.608 234.333 15.608H232.941V27H228.992ZM237.515 20.3239L241.151 27H236.862L233.31 20.3239H237.515ZM242.352 27V12.4545H252.835V15.6364H246.3V18.1364H252.295V21.3182H246.3V23.8182H252.806V27H242.352Z" fill="white"/>
</svg>
